%TF.GenerationSoftware,KiCad,Pcbnew,9.0.3*%
%TF.CreationDate,2026-03-25T20:29:38-04:00*%
%TF.ProjectId,fpvc-power-distribution,66707663-2d70-46f7-9765-722d64697374,1*%
%TF.SameCoordinates,Original*%
%TF.FileFunction,Copper,L2,Bot*%
%TF.FilePolarity,Positive*%
%FSLAX46Y46*%
G04 Gerber Fmt 4.6, Leading zero omitted, Abs format (unit mm)*
G04 Created by KiCad (PCBNEW 9.0.3) date 2026-03-25 20:29:38*
%MOMM*%
%LPD*%
G01*
G04 APERTURE LIST*
G04 Aperture macros list*
%AMRoundRect*
0 Rectangle with rounded corners*
0 $1 Rounding radius*
0 $2 $3 $4 $5 $6 $7 $8 $9 X,Y pos of 4 corners*
0 Add a 4 corners polygon primitive as box body*
4,1,4,$2,$3,$4,$5,$6,$7,$8,$9,$2,$3,0*
0 Add four circle primitives for the rounded corners*
1,1,$1+$1,$2,$3*
1,1,$1+$1,$4,$5*
1,1,$1+$1,$6,$7*
1,1,$1+$1,$8,$9*
0 Add four rect primitives between the rounded corners*
20,1,$1+$1,$2,$3,$4,$5,0*
20,1,$1+$1,$4,$5,$6,$7,0*
20,1,$1+$1,$6,$7,$8,$9,0*
20,1,$1+$1,$8,$9,$2,$3,0*%
G04 Aperture macros list end*
%TA.AperFunction,Conductor*%
%ADD10C,0.200000*%
%TD*%
%TA.AperFunction,ComponentPad*%
%ADD11C,2.200000*%
%TD*%
%TA.AperFunction,ComponentPad*%
%ADD12RoundRect,0.249999X0.850001X-0.850001X0.850001X0.850001X-0.850001X0.850001X-0.850001X-0.850001X0*%
%TD*%
%TA.AperFunction,ComponentPad*%
%ADD13C,2.780000*%
%TD*%
%TA.AperFunction,ComponentPad*%
%ADD14O,2.000000X1.905000*%
%TD*%
%TA.AperFunction,ComponentPad*%
%ADD15R,2.000000X1.905000*%
%TD*%
%TA.AperFunction,ComponentPad*%
%ADD16C,1.800000*%
%TD*%
%TA.AperFunction,ComponentPad*%
%ADD17R,1.800000X1.800000*%
%TD*%
%TA.AperFunction,ComponentPad*%
%ADD18O,1.500000X2.300000*%
%TD*%
%TA.AperFunction,ComponentPad*%
%ADD19R,1.500000X2.300000*%
%TD*%
%TA.AperFunction,ComponentPad*%
%ADD20C,2.600000*%
%TD*%
%TA.AperFunction,ComponentPad*%
%ADD21RoundRect,0.250000X1.050000X1.050000X-1.050000X1.050000X-1.050000X-1.050000X1.050000X-1.050000X0*%
%TD*%
%TA.AperFunction,ComponentPad*%
%ADD22RoundRect,0.571500X2.603500X1.333500X-2.603500X1.333500X-2.603500X-1.333500X2.603500X-1.333500X0*%
%TD*%
%TA.AperFunction,ComponentPad*%
%ADD23C,3.175000*%
%TD*%
%TA.AperFunction,ViaPad*%
%ADD24C,0.800000*%
%TD*%
%TA.AperFunction,ViaPad*%
%ADD25C,1.200000*%
%TD*%
%TA.AperFunction,ViaPad*%
%ADD26C,0.700000*%
%TD*%
%TA.AperFunction,Conductor*%
%ADD27C,0.500000*%
%TD*%
%TA.AperFunction,Conductor*%
%ADD28C,2.500000*%
%TD*%
%TA.AperFunction,Conductor*%
%ADD29C,1.000000*%
%TD*%
G04 APERTURE END LIST*
D10*
%TO.N,+12V*%
X117341850Y-45186600D02*
X117341850Y-47980600D01*
X115563850Y-46202600D01*
X115563850Y-45948600D01*
X116833850Y-44678600D01*
X117341850Y-45186600D01*
%TA.AperFunction,Conductor*%
G36*
X117341850Y-45186600D02*
G01*
X117341850Y-47980600D01*
X115563850Y-46202600D01*
X115563850Y-45948600D01*
X116833850Y-44678600D01*
X117341850Y-45186600D01*
G37*
%TD.AperFunction*%
X117087850Y-47472600D02*
X114547850Y-47472600D01*
X115563850Y-46456600D01*
X116071850Y-46456600D01*
X117087850Y-47472600D01*
%TA.AperFunction,Conductor*%
G36*
X117087850Y-47472600D02*
G01*
X114547850Y-47472600D01*
X115563850Y-46456600D01*
X116071850Y-46456600D01*
X117087850Y-47472600D01*
G37*
%TD.AperFunction*%
%TD*%
D11*
%TO.P,D3,2,A*%
%TO.N,/Clu-2*%
X76854250Y-36703000D03*
D12*
%TO.P,D3,1,K*%
%TO.N,/Clu-1*%
X76854250Y-46863000D03*
%TD*%
D13*
%TO.P,F1,2*%
%TO.N,24V*%
X142155850Y-82136600D03*
X138755850Y-82136600D03*
%TO.P,F1,1*%
%TO.N,VIN*%
X142155850Y-92056600D03*
X138755850Y-92056600D03*
%TD*%
D14*
%TO.P,Q3,3,S*%
%TO.N,GND*%
X80781050Y-39243000D03*
%TO.P,Q3,2,D*%
%TO.N,/Clu-2*%
X80781050Y-36703000D03*
D15*
%TO.P,Q3,1,G*%
%TO.N,/C-G*%
X80781050Y-34163000D03*
%TD*%
D14*
%TO.P,Q1,3,S*%
%TO.N,GND*%
X80918250Y-78613000D03*
%TO.P,Q1,2,D*%
%TO.N,/Sol1-2*%
X80918250Y-76073000D03*
D15*
%TO.P,Q1,1,G*%
%TO.N,/S1-G*%
X80918250Y-73533000D03*
%TD*%
D16*
%TO.P,D6,2,A*%
%TO.N,+12V*%
X117336850Y-80746600D03*
D17*
%TO.P,D6,1,K*%
%TO.N,Net-(D6-K)*%
X114796850Y-80746600D03*
%TD*%
D13*
%TO.P,F4,2*%
%TO.N,/Clu-1*%
X82663850Y-45366200D03*
X82663850Y-48766200D03*
%TO.P,F4,1*%
%TO.N,+12V*%
X92583850Y-45366200D03*
X92583850Y-48766200D03*
%TD*%
D11*
%TO.P,D1,2,A*%
%TO.N,/Sol1-2*%
X77006650Y-76225400D03*
D12*
%TO.P,D1,1,K*%
%TO.N,/Sol1-1*%
X77006650Y-86385400D03*
%TD*%
D16*
%TO.P,D5,2,A*%
%TO.N,24V*%
X127755850Y-80746600D03*
D17*
%TO.P,D5,1,K*%
%TO.N,Net-(D5-K)*%
X125215850Y-80746600D03*
%TD*%
D18*
%TO.P,U2,3,OUT*%
%TO.N,+5V*%
X82128350Y-25169100D03*
%TO.P,U2,2,GND*%
%TO.N,GND*%
X79588350Y-25169100D03*
D19*
%TO.P,U2,1,IN*%
%TO.N,+12V*%
X77048350Y-25169100D03*
%TD*%
D16*
%TO.P,D7,2,A*%
%TO.N,+5V*%
X148075850Y-26136600D03*
D17*
%TO.P,D7,1,K*%
%TO.N,Net-(D7-K)*%
X148075850Y-23596600D03*
%TD*%
D11*
%TO.P,D2,2,A*%
%TO.N,/Sol2-2*%
X77006650Y-57632600D03*
D12*
%TO.P,D2,1,K*%
%TO.N,/Sol2-1*%
X77006650Y-67792600D03*
%TD*%
D14*
%TO.P,Q2,3,S*%
%TO.N,GND*%
X80918250Y-60020200D03*
%TO.P,Q2,2,D*%
%TO.N,/Sol2-2*%
X80918250Y-57480200D03*
D15*
%TO.P,Q2,1,G*%
%TO.N,/S2-G*%
X80918250Y-54940200D03*
%TD*%
D20*
%TO.P,J7,2,Pin_2*%
%TO.N,GND*%
X117804250Y-91516200D03*
D21*
%TO.P,J7,1,Pin_1*%
%TO.N,24V*%
X121304250Y-91516200D03*
%TD*%
D22*
%TO.P,U1,3,Vout*%
%TO.N,+12V*%
X132676900Y-39471600D03*
%TO.P,U1,2,GND*%
%TO.N,GND*%
X132638800Y-62407800D03*
X132676900Y-44475400D03*
%TO.P,U1,1,Vin*%
%TO.N,24V*%
X132638800Y-67411600D03*
%TD*%
D16*
%TO.P,J4,8,Pin_8*%
%TO.N,+5V*%
X122488350Y-26176600D03*
%TO.P,J4,7,Pin_7*%
%TO.N,unconnected-(J4-Pin_7-Pad7)*%
X124988350Y-26176600D03*
%TO.P,J4,6,Pin_6*%
%TO.N,unconnected-(J4-Pin_6-Pad6)*%
X127488350Y-26176600D03*
%TO.P,J4,5,Pin_5*%
%TO.N,unconnected-(J4-Pin_5-Pad5)*%
X129988350Y-26176600D03*
%TO.P,J4,4,Pin_4*%
%TO.N,unconnected-(J4-Pin_4-Pad4)*%
X132488350Y-26176600D03*
%TO.P,J4,3,Pin_3*%
%TO.N,PLC_SW2*%
X134988350Y-26176600D03*
%TO.P,J4,2,Pin_2*%
%TO.N,PLC_SW1*%
X137488350Y-26176600D03*
D17*
%TO.P,J4,1,Pin_1*%
%TO.N,GND*%
X139988350Y-26176600D03*
%TD*%
D16*
%TO.P,J5,8,Pin_8*%
%TO.N,+5V*%
X99033350Y-26176600D03*
%TO.P,J5,7,Pin_7*%
%TO.N,unconnected-(J5-Pin_7-Pad7)*%
X101533350Y-26176600D03*
%TO.P,J5,6,Pin_6*%
%TO.N,unconnected-(J5-Pin_6-Pad6)*%
X104033350Y-26176600D03*
%TO.P,J5,5,Pin_5*%
%TO.N,unconnected-(J5-Pin_5-Pad5)*%
X106533350Y-26176600D03*
%TO.P,J5,4,Pin_4*%
%TO.N,PLC-C*%
X109033350Y-26176600D03*
%TO.P,J5,3,Pin_3*%
%TO.N,PLC-S2*%
X111533350Y-26176600D03*
%TO.P,J5,2,Pin_2*%
%TO.N,PLC-S1*%
X114033350Y-26176600D03*
D17*
%TO.P,J5,1,Pin_1*%
%TO.N,GND*%
X116533350Y-26176600D03*
%TD*%
D23*
%TO.P,J9,6,Pin_6*%
%TO.N,VIN*%
X149345850Y-82778600D03*
%TO.P,J9,5,Pin_5*%
%TO.N,GND*%
X149345850Y-74396600D03*
%TO.P,J9,4,Pin_4*%
%TO.N,24V*%
X149345850Y-66268600D03*
%TO.P,J9,3,Pin_3*%
%TO.N,PLC_SW1*%
X149345850Y-58140600D03*
%TO.P,J9,2,Pin_2*%
%TO.N,24V*%
X149345850Y-49758600D03*
%TO.P,J9,1,Pin_1*%
%TO.N,PLC_SW2*%
X149345850Y-41440100D03*
%TD*%
%TO.P,J10,6,Pin_6*%
%TO.N,/Clu-2*%
X70605850Y-41173400D03*
%TO.P,J10,5,Pin_5*%
%TO.N,/Clu-1*%
X70605850Y-49555400D03*
%TO.P,J10,4,Pin_4*%
%TO.N,/Sol2-2*%
X70605850Y-57683400D03*
%TO.P,J10,3,Pin_3*%
%TO.N,/Sol2-1*%
X70605850Y-65811400D03*
%TO.P,J10,2,Pin_2*%
%TO.N,/Sol1-2*%
X70605850Y-74193400D03*
%TO.P,J10,1,Pin_1*%
%TO.N,/Sol1-1*%
X70605850Y-82511900D03*
%TD*%
D24*
%TO.N,GND*%
X89655850Y-63474600D03*
D25*
X142233850Y-85318600D03*
X140709850Y-78714600D03*
D24*
X97275850Y-27660600D03*
D25*
X149345850Y-79730600D03*
D24*
X143249850Y-44932600D03*
X77048350Y-22326600D03*
X87623850Y-69570600D03*
D25*
X146043850Y-82778600D03*
D24*
X70605850Y-25374600D03*
X87623850Y-81000600D03*
D25*
X152647850Y-83032600D03*
D24*
X70605850Y-71856600D03*
X80765850Y-81254600D03*
X128009850Y-78206600D03*
X76955850Y-59918600D03*
X70605850Y-80238600D03*
D25*
X135629850Y-81508600D03*
D24*
X70605850Y-47218600D03*
D25*
X138677850Y-95224600D03*
D24*
X148075850Y-28422600D03*
X69843850Y-76428600D03*
X131057850Y-36550600D03*
X87623850Y-62204600D03*
X149345850Y-52298600D03*
X68319850Y-65760600D03*
X76955850Y-65506600D03*
X89655850Y-82524600D03*
X76955850Y-78460600D03*
X122421850Y-23850600D03*
X122421850Y-28422600D03*
X149345850Y-47472600D03*
X68319850Y-82524600D03*
X151885850Y-66014600D03*
X69589850Y-38836600D03*
X97529850Y-24612600D03*
X90163850Y-45186600D03*
X70605850Y-63474600D03*
X68319850Y-41122600D03*
X87623850Y-88620600D03*
X132581850Y-70332600D03*
X76955850Y-83794600D03*
X70605850Y-55092600D03*
X80765850Y-41376600D03*
X149345850Y-68554600D03*
X69843850Y-84810600D03*
X138931850Y-44932600D03*
X80257850Y-48996600D03*
D25*
X142233850Y-95224600D03*
D24*
X77209850Y-49250600D03*
X134105850Y-36550600D03*
D26*
%TO.N,PLC-S1*%
X114033350Y-56870600D03*
D24*
%TO.N,GND*%
X94989850Y-45186600D03*
D26*
%TO.N,PLC-S1*%
X100044450Y-70993000D03*
D24*
%TO.N,GND*%
X68319850Y-49504600D03*
X130549850Y-70332600D03*
X117341850Y-83540600D03*
X85083850Y-45186600D03*
X132581850Y-36550600D03*
X80765850Y-88620600D03*
X85083850Y-48996600D03*
X69843850Y-68046600D03*
X80765850Y-62458600D03*
D25*
X138677850Y-88874600D03*
D24*
X76701850Y-39090600D03*
X68319850Y-74142600D03*
X90163850Y-48996600D03*
X134613850Y-70332600D03*
X149345850Y-63728600D03*
X70605850Y-60172600D03*
X90925850Y-28930600D03*
X70605850Y-52044600D03*
X89655850Y-64998600D03*
X128009850Y-83540600D03*
X82289850Y-22326600D03*
X146805850Y-49758600D03*
X68319850Y-57886600D03*
D25*
X138931850Y-85318600D03*
D24*
X70605850Y-43662600D03*
X155909088Y-93143350D03*
X72089088Y-29643350D03*
X64469088Y-85523350D03*
X143209088Y-19483350D03*
X84789088Y-80443350D03*
X67009088Y-60123350D03*
X64469088Y-72823350D03*
X64469088Y-39803350D03*
X135589088Y-77903350D03*
X77169088Y-80443350D03*
X158449088Y-39803350D03*
X97489088Y-80443350D03*
X107649088Y-57583350D03*
X64469088Y-57583350D03*
X64469088Y-27103350D03*
X72089088Y-19483350D03*
X61929088Y-70283350D03*
X133049088Y-57583350D03*
X112729088Y-22023350D03*
X155909088Y-47423350D03*
X127969088Y-85523350D03*
X155909088Y-39803350D03*
X61929088Y-67743350D03*
X158449088Y-27103350D03*
X64469088Y-19483350D03*
X61929088Y-44883350D03*
X153369088Y-75363350D03*
X127969088Y-19483350D03*
X135589088Y-32183350D03*
X92409088Y-62663350D03*
X92409088Y-75363350D03*
X110189088Y-85523350D03*
X74629088Y-62663350D03*
X158449088Y-52503350D03*
X153369088Y-49963350D03*
X94949088Y-88063350D03*
X150829088Y-22023350D03*
X74629088Y-55043350D03*
X127969088Y-34723350D03*
X143209088Y-27103350D03*
X122889088Y-77903350D03*
X84789088Y-67743350D03*
X145749088Y-62663350D03*
X117809088Y-34723350D03*
X158449088Y-95683350D03*
X155909088Y-75363350D03*
X102569088Y-44883350D03*
X102569088Y-57583350D03*
X122889088Y-72823350D03*
X127969088Y-29643350D03*
X102569088Y-60123350D03*
X112729088Y-42343350D03*
X61929088Y-93143350D03*
X74629088Y-72823350D03*
X127969088Y-93143350D03*
X67009088Y-47423350D03*
X105109088Y-29643350D03*
X105109088Y-52503350D03*
X61929088Y-85523350D03*
X67009088Y-29643350D03*
X158449088Y-75363350D03*
X87329088Y-57583350D03*
X155909088Y-57583350D03*
X145749088Y-24563350D03*
X74629088Y-19483350D03*
X67009088Y-19483350D03*
X158449088Y-60123350D03*
X125429088Y-32183350D03*
X61929088Y-55043350D03*
X155909088Y-77903350D03*
X87329088Y-95683350D03*
X115269088Y-19483350D03*
X102569088Y-37263350D03*
X69549088Y-88063350D03*
X125429088Y-77903350D03*
X138129088Y-55043350D03*
X102569088Y-19483350D03*
X87329088Y-47423350D03*
X148289088Y-70283350D03*
X155909088Y-70283350D03*
X105109088Y-95683350D03*
X64469088Y-67743350D03*
X120349088Y-75363350D03*
X155909088Y-27103350D03*
X125429088Y-19483350D03*
X61929088Y-37263350D03*
X153369088Y-62663350D03*
X145749088Y-95683350D03*
X64469088Y-47423350D03*
X107649088Y-85523350D03*
X120349088Y-47423350D03*
X100029088Y-95683350D03*
X67009088Y-80443350D03*
X61929088Y-34723350D03*
X61929088Y-62663350D03*
X105109088Y-70283350D03*
X64469088Y-95683350D03*
X112729088Y-52503350D03*
X120349088Y-60123350D03*
X64469088Y-77903350D03*
X64469088Y-29643350D03*
X127969088Y-32183350D03*
X87329088Y-72823350D03*
X107649088Y-37263350D03*
X153369088Y-52503350D03*
X133049088Y-75363350D03*
X97489088Y-19483350D03*
X69549088Y-95683350D03*
X112729088Y-62663350D03*
X145749088Y-44883350D03*
X69549088Y-29643350D03*
X158449088Y-19483350D03*
X122889088Y-55043350D03*
X115269088Y-88063350D03*
X150829088Y-29643350D03*
X153369088Y-60123350D03*
X94949088Y-39803350D03*
X153369088Y-19483350D03*
X120349088Y-44883350D03*
X72089088Y-27103350D03*
X79709088Y-95683350D03*
X77169088Y-42343350D03*
X122889088Y-57583350D03*
X100029088Y-77903350D03*
X61929088Y-42343350D03*
X97489088Y-72823350D03*
X92409088Y-88063350D03*
X130509088Y-19483350D03*
X105109088Y-62663350D03*
X112729088Y-39803350D03*
X105109088Y-39803350D03*
X94949088Y-60123350D03*
X115269088Y-95683350D03*
X84789088Y-75363350D03*
X69549088Y-27103350D03*
X107649088Y-22023350D03*
X155909088Y-67743350D03*
X115269088Y-29643350D03*
X100029088Y-72823350D03*
X64469088Y-44883350D03*
X135589088Y-55043350D03*
X100029088Y-22023350D03*
X110189088Y-32183350D03*
X115269088Y-34723350D03*
X120349088Y-62663350D03*
X127969088Y-70283350D03*
X145749088Y-47423350D03*
X100029088Y-88063350D03*
X133049088Y-52503350D03*
X130509088Y-47423350D03*
X64469088Y-62663350D03*
X122889088Y-32183350D03*
X125429088Y-82983350D03*
X155909088Y-80443350D03*
X84789088Y-65203350D03*
X61929088Y-39803350D03*
X143209088Y-37263350D03*
X158449088Y-22023350D03*
X135589088Y-57583350D03*
X102569088Y-39803350D03*
X148289088Y-32183350D03*
X140669088Y-19483350D03*
X94949088Y-22023350D03*
X67009088Y-52503350D03*
X67009088Y-95683350D03*
X105109088Y-88063350D03*
X145749088Y-22023350D03*
X158449088Y-49963350D03*
X150829088Y-24563350D03*
X155909088Y-42343350D03*
X107649088Y-70283350D03*
X133049088Y-19483350D03*
X110189088Y-52503350D03*
X92409088Y-77903350D03*
X84789088Y-19483350D03*
X87329088Y-24563350D03*
X155909088Y-29643350D03*
X67009088Y-67743350D03*
X133049088Y-32183350D03*
X130509088Y-75363350D03*
X135589088Y-19483350D03*
X155909088Y-95683350D03*
X153369088Y-39803350D03*
X92409088Y-60123350D03*
X158449088Y-93143350D03*
X125429088Y-42343350D03*
X122889088Y-22023350D03*
X158449088Y-65203350D03*
X92409088Y-95683350D03*
X112729088Y-82983350D03*
X112729088Y-95683350D03*
X158449088Y-88063350D03*
X64469088Y-88063350D03*
X105109088Y-44883350D03*
X100029088Y-60123350D03*
X67009088Y-44883350D03*
X130509088Y-49963350D03*
X87329088Y-37263350D03*
X150829088Y-27103350D03*
X122889088Y-44883350D03*
X135589088Y-95683350D03*
X61929088Y-72823350D03*
X69549088Y-93143350D03*
X84789088Y-82983350D03*
X155909088Y-24563350D03*
X67009088Y-85523350D03*
X115269088Y-75363350D03*
X61929088Y-19483350D03*
X87329088Y-29643350D03*
X140669088Y-34723350D03*
X94949088Y-34723350D03*
X117809088Y-85523350D03*
X110189088Y-55043350D03*
X150829088Y-95683350D03*
X107649088Y-39803350D03*
X112729088Y-77903350D03*
X82249088Y-19483350D03*
X115269088Y-82983350D03*
X64469088Y-70283350D03*
X155909088Y-65203350D03*
X89869088Y-88063350D03*
X122889088Y-52503350D03*
X64469088Y-37263350D03*
X122889088Y-34723350D03*
X155909088Y-85523350D03*
X69549088Y-34723350D03*
X133049088Y-77903350D03*
X94949088Y-62663350D03*
X105109088Y-85523350D03*
X67009088Y-70283350D03*
X153369088Y-95683350D03*
X140669088Y-37263350D03*
X155909088Y-72823350D03*
X105109088Y-42343350D03*
X120349088Y-70283350D03*
X89869088Y-60123350D03*
X127969088Y-75363350D03*
X125429088Y-85523350D03*
X145749088Y-29643350D03*
X84789088Y-95683350D03*
X92409088Y-80443350D03*
X117809088Y-32183350D03*
X92409088Y-55043350D03*
X61929088Y-60123350D03*
X94949088Y-55043350D03*
X153369088Y-80443350D03*
X110189088Y-29643350D03*
X140669088Y-22023350D03*
X92409088Y-72823350D03*
X74629088Y-27103350D03*
X112729088Y-32183350D03*
X140669088Y-75363350D03*
X67009088Y-62663350D03*
X94949088Y-19483350D03*
X77169088Y-62663350D03*
X100029088Y-55043350D03*
X74629088Y-70283350D03*
X153369088Y-77903350D03*
X117809088Y-19483350D03*
X143209088Y-22023350D03*
X87329088Y-49963350D03*
X122889088Y-42343350D03*
X125429088Y-70283350D03*
X122889088Y-82983350D03*
X155909088Y-82983350D03*
X120349088Y-22023350D03*
X153369088Y-57583350D03*
X110189088Y-70283350D03*
X74629088Y-95683350D03*
X148289088Y-95683350D03*
X107649088Y-19483350D03*
X150829088Y-70283350D03*
X61929088Y-27103350D03*
X138129088Y-19483350D03*
X84789088Y-85523350D03*
X155909088Y-88063350D03*
X120349088Y-57583350D03*
X102569088Y-42343350D03*
X120349088Y-32183350D03*
X97489088Y-62663350D03*
X72089088Y-32183350D03*
X74629088Y-42343350D03*
X155909088Y-19483350D03*
X102569088Y-29643350D03*
X67009088Y-77903350D03*
X97489088Y-44883350D03*
X158449088Y-77903350D03*
X135589088Y-90603350D03*
X153369088Y-24563350D03*
X138129088Y-57583350D03*
X120349088Y-37263350D03*
X158449088Y-57583350D03*
X135589088Y-49963350D03*
X158449088Y-90603350D03*
X148289088Y-55043350D03*
X105109088Y-37263350D03*
X115269088Y-55043350D03*
X125429088Y-37263350D03*
X150829088Y-44883350D03*
X148289088Y-44883350D03*
X115269088Y-32183350D03*
X158449088Y-67743350D03*
X120349088Y-49963350D03*
X143209088Y-60123350D03*
X89869088Y-42343350D03*
X133049088Y-82983350D03*
X61929088Y-88063350D03*
X155909088Y-37263350D03*
X133049088Y-22023350D03*
X107649088Y-88063350D03*
X122889088Y-49963350D03*
X87329088Y-44883350D03*
X74629088Y-29643350D03*
X155909088Y-62663350D03*
X125429088Y-72823350D03*
X122889088Y-70283350D03*
X61929088Y-57583350D03*
X138129088Y-49963350D03*
X153369088Y-85523350D03*
X130509088Y-29643350D03*
X100029088Y-80443350D03*
X130509088Y-52503350D03*
X72089088Y-90603350D03*
X87329088Y-55043350D03*
X67009088Y-27103350D03*
X115269088Y-37263350D03*
X107649088Y-42343350D03*
X84789088Y-34723350D03*
X61929088Y-77903350D03*
X130509088Y-55043350D03*
X64469088Y-82983350D03*
X158449088Y-62663350D03*
X158449088Y-37263350D03*
X102569088Y-34723350D03*
X100029088Y-42343350D03*
X138129088Y-22023350D03*
X100029088Y-62663350D03*
X115269088Y-60123350D03*
X64469088Y-52503350D03*
X94949088Y-29643350D03*
X135589088Y-29643350D03*
X122889088Y-88063350D03*
X64469088Y-93143350D03*
X110189088Y-82983350D03*
X94949088Y-80443350D03*
X89869088Y-80443350D03*
X153369088Y-55043350D03*
X84789088Y-72823350D03*
X158449088Y-85523350D03*
X143209088Y-39803350D03*
X94949088Y-95683350D03*
X153369088Y-44883350D03*
X107649088Y-52503350D03*
X84789088Y-42343350D03*
X153369088Y-29643350D03*
X122889088Y-19483350D03*
X79709088Y-19483350D03*
X125429088Y-34723350D03*
X61929088Y-49963350D03*
X155909088Y-22023350D03*
X122889088Y-85523350D03*
X138129088Y-60123350D03*
X133049088Y-29643350D03*
X74629088Y-60123350D03*
X94949088Y-42343350D03*
X67009088Y-55043350D03*
X127969088Y-37263350D03*
X100029088Y-39803350D03*
X155909088Y-49963350D03*
X92409088Y-34723350D03*
X120349088Y-27103350D03*
X87329088Y-77903350D03*
X105109088Y-19483350D03*
X158449088Y-55043350D03*
X135589088Y-52503350D03*
X120349088Y-19483350D03*
X61929088Y-80443350D03*
X64469088Y-42343350D03*
X148289088Y-93143350D03*
X110189088Y-95683350D03*
X115269088Y-49963350D03*
X153369088Y-72823350D03*
X107649088Y-95683350D03*
X155909088Y-60123350D03*
X100029088Y-44883350D03*
X115269088Y-52503350D03*
X102569088Y-95683350D03*
X89869088Y-77903350D03*
X138129088Y-47423350D03*
X94949088Y-24563350D03*
X127969088Y-22023350D03*
X61929088Y-29643350D03*
X110189088Y-88063350D03*
X89869088Y-55043350D03*
X84789088Y-62663350D03*
X97489088Y-88063350D03*
X158449088Y-29643350D03*
X67009088Y-37263350D03*
X133049088Y-80443350D03*
X125429088Y-75363350D03*
X72089088Y-34723350D03*
X102569088Y-72823350D03*
X155909088Y-52503350D03*
X117809088Y-88063350D03*
X133049088Y-55043350D03*
X77169088Y-95683350D03*
X72089088Y-95683350D03*
X92409088Y-57583350D03*
X61929088Y-65203350D03*
X122889088Y-62663350D03*
X158449088Y-82983350D03*
X64469088Y-60123350D03*
X117809088Y-95683350D03*
X158449088Y-42343350D03*
X120349088Y-34723350D03*
X107649088Y-62663350D03*
X110189088Y-57583350D03*
X158449088Y-44883350D03*
X115269088Y-85523350D03*
X97489088Y-42343350D03*
X135589088Y-22023350D03*
X153369088Y-67743350D03*
X120349088Y-85523350D03*
X127969088Y-42343350D03*
X94949088Y-77903350D03*
X94949088Y-72823350D03*
X120349088Y-82983350D03*
X133049088Y-47423350D03*
X74629088Y-65203350D03*
X153369088Y-70283350D03*
X158449088Y-72823350D03*
X105109088Y-60123350D03*
X112729088Y-55043350D03*
X64469088Y-55043350D03*
X110189088Y-19483350D03*
X105109088Y-22023350D03*
X135589088Y-47423350D03*
X64469088Y-80443350D03*
X120349088Y-29643350D03*
X87329088Y-19483350D03*
X64469088Y-75363350D03*
X100029088Y-34723350D03*
X127969088Y-95683350D03*
X115269088Y-22023350D03*
X69549088Y-19483350D03*
X110189088Y-60123350D03*
X158449088Y-70283350D03*
X153369088Y-47423350D03*
X102569088Y-77903350D03*
X84789088Y-37263350D03*
X155909088Y-55043350D03*
X117809088Y-22023350D03*
X153369088Y-22023350D03*
X117809088Y-37263350D03*
X74629088Y-32183350D03*
X138129088Y-77903350D03*
X89869088Y-95683350D03*
X79709088Y-22023350D03*
X122889088Y-75363350D03*
X130509088Y-22023350D03*
X97489088Y-95683350D03*
X84789088Y-77903350D03*
X102569088Y-22023350D03*
X130509088Y-57583350D03*
X61929088Y-47423350D03*
X115269088Y-62663350D03*
X112729088Y-29643350D03*
X72089088Y-93143350D03*
X135589088Y-93143350D03*
X84789088Y-88063350D03*
X110189088Y-22023350D03*
X158449088Y-24563350D03*
X153369088Y-27103350D03*
X74629088Y-80443350D03*
X87329088Y-60123350D03*
X100029088Y-19483350D03*
X89869088Y-39803350D03*
X84789088Y-55043350D03*
X140669088Y-55043350D03*
X125429088Y-29643350D03*
X84789088Y-22023350D03*
X87329088Y-75363350D03*
X105109088Y-75363350D03*
X110189088Y-37263350D03*
X102569088Y-62663350D03*
X112729088Y-37263350D03*
X153369088Y-42343350D03*
X135589088Y-75363350D03*
X102569088Y-55043350D03*
X107649088Y-82983350D03*
X97489088Y-22023350D03*
X87329088Y-22023350D03*
X105109088Y-57583350D03*
X110189088Y-39803350D03*
X122889088Y-47423350D03*
X61929088Y-95683350D03*
X61929088Y-90603350D03*
X138129088Y-75363350D03*
X158449088Y-47423350D03*
X122889088Y-95683350D03*
X89869088Y-75363350D03*
X122889088Y-37263350D03*
X153369088Y-37263350D03*
X133049088Y-49963350D03*
X158449088Y-32183350D03*
X61929088Y-75363350D03*
X138129088Y-32183350D03*
X82249088Y-95683350D03*
X143209088Y-62663350D03*
X115269088Y-39803350D03*
X158449088Y-34723350D03*
X120349088Y-88063350D03*
X115269088Y-77903350D03*
X84789088Y-57583350D03*
X138129088Y-52503350D03*
X120349088Y-95683350D03*
X61929088Y-32183350D03*
X158449088Y-80443350D03*
X145749088Y-19483350D03*
X112729088Y-19483350D03*
X127969088Y-72823350D03*
X125429088Y-22023350D03*
X64469088Y-49963350D03*
X107649088Y-60123350D03*
X130509088Y-77903350D03*
X120349088Y-52503350D03*
X102569088Y-88063350D03*
X125429088Y-95683350D03*
X87329088Y-42343350D03*
X112729088Y-88063350D03*
X97489088Y-39803350D03*
X61929088Y-52503350D03*
X89869088Y-72823350D03*
X105109088Y-55043350D03*
X84789088Y-39803350D03*
X107649088Y-55043350D03*
X120349088Y-55043350D03*
X74629088Y-52503350D03*
X112729088Y-34723350D03*
X155909088Y-44883350D03*
X89869088Y-57583350D03*
X87329088Y-39803350D03*
X61929088Y-82983350D03*
X122889088Y-60123350D03*
X110189088Y-34723350D03*
X120349088Y-77903350D03*
X112729088Y-85523350D03*
X102569088Y-75363350D03*
X84789088Y-24563350D03*
X117809088Y-29643350D03*
X77169088Y-19483350D03*
X64469088Y-65203350D03*
X120349088Y-72823350D03*
X84789088Y-60123350D03*
%TD*%
D10*
%TO.N,PLC-S1*%
X100044450Y-70859500D02*
X100044450Y-70993000D01*
D27*
X101667571Y-71020879D02*
X100072329Y-71020879D01*
%TO.N,+12V*%
X117336850Y-80746600D02*
X117336850Y-43540600D01*
D28*
X121405850Y-39471600D02*
X129833405Y-39471600D01*
D27*
%TO.N,PLC-S1*%
X100072329Y-71020879D02*
X100044450Y-70993000D01*
X114033350Y-58655100D02*
X101667571Y-71020879D01*
X114033350Y-56870600D02*
X114033350Y-58655100D01*
%TO.N,+12V*%
X117336850Y-43540600D02*
X121405850Y-39471600D01*
D29*
X77048350Y-27499100D02*
X78860850Y-29311600D01*
D28*
X92583850Y-48766200D02*
X112111250Y-48766200D01*
D29*
X77048350Y-25169100D02*
X77048350Y-27499100D01*
X78860850Y-29311600D02*
X83940850Y-29311600D01*
X92583850Y-37954600D02*
X92583850Y-45366200D01*
D28*
X112111250Y-48766200D02*
X121405850Y-39471600D01*
D29*
X83940850Y-29311600D02*
X92583850Y-37954600D01*
%TD*%
%TA.AperFunction,Conductor*%
%TO.N,GND*%
G36*
X159085293Y-17493102D02*
G01*
X159093528Y-17493101D01*
X159093533Y-17493103D01*
X159155007Y-17493100D01*
X159163843Y-17493415D01*
X159404683Y-17510631D01*
X159422187Y-17513147D01*
X159653793Y-17563522D01*
X159670765Y-17568505D01*
X159892845Y-17651331D01*
X159908933Y-17658677D01*
X160116959Y-17772265D01*
X160131843Y-17781830D01*
X160321588Y-17923869D01*
X160334959Y-17935456D01*
X160502548Y-18103045D01*
X160514135Y-18116417D01*
X160656171Y-18306159D01*
X160665736Y-18321043D01*
X160766715Y-18505979D01*
X160779320Y-18529063D01*
X160786670Y-18545158D01*
X160869494Y-18767236D01*
X160874478Y-18784212D01*
X160924851Y-19015810D01*
X160927368Y-19033323D01*
X160944587Y-19274219D01*
X160944903Y-19283064D01*
X160944901Y-19352709D01*
X160944904Y-19352754D01*
X160944904Y-95474172D01*
X160944588Y-95483018D01*
X160927362Y-95723858D01*
X160924844Y-95741370D01*
X160874465Y-95972963D01*
X160869481Y-95989939D01*
X160786650Y-96212017D01*
X160779300Y-96228110D01*
X160665711Y-96436132D01*
X160656146Y-96451015D01*
X160514109Y-96640755D01*
X160502523Y-96654126D01*
X160334928Y-96821721D01*
X160321557Y-96833307D01*
X160131818Y-96975344D01*
X160116935Y-96984909D01*
X159908913Y-97098499D01*
X159892820Y-97105849D01*
X159670742Y-97188680D01*
X159653766Y-97193664D01*
X159422173Y-97244044D01*
X159404661Y-97246562D01*
X159163877Y-97263784D01*
X159155031Y-97264100D01*
X60958293Y-97264100D01*
X60949444Y-97263784D01*
X60708607Y-97246553D01*
X60691096Y-97244035D01*
X60459501Y-97193651D01*
X60442525Y-97188666D01*
X60220455Y-97105833D01*
X60204363Y-97098483D01*
X59996352Y-96984897D01*
X59981468Y-96975332D01*
X59791727Y-96833290D01*
X59778364Y-96821711D01*
X59610765Y-96654107D01*
X59599186Y-96640744D01*
X59457148Y-96451000D01*
X59447583Y-96436116D01*
X59333997Y-96228095D01*
X59326648Y-96212003D01*
X59243818Y-95989926D01*
X59238837Y-95972959D01*
X59188458Y-95741367D01*
X59185940Y-95723854D01*
X59168666Y-95482313D01*
X59168350Y-95473468D01*
X59168350Y-90636568D01*
X64408525Y-90636568D01*
X64408525Y-90904847D01*
X64438560Y-91171412D01*
X64438562Y-91171424D01*
X64498258Y-91432971D01*
X64586861Y-91686185D01*
X64703257Y-91927883D01*
X64706281Y-91932696D01*
X64845987Y-92155037D01*
X64928125Y-92258034D01*
X65008940Y-92359373D01*
X65013251Y-92364778D01*
X65202946Y-92554473D01*
X65412687Y-92721737D01*
X65639838Y-92864465D01*
X65881540Y-92980863D01*
X66134752Y-93069465D01*
X66134754Y-93069465D01*
X66134755Y-93069466D01*
X66396299Y-93129162D01*
X66662876Y-93159198D01*
X66662877Y-93159199D01*
X66662881Y-93159199D01*
X66931155Y-93159199D01*
X66931155Y-93159198D01*
X67197733Y-93129162D01*
X67459277Y-93069466D01*
X67712492Y-92980863D01*
X67954194Y-92864465D01*
X68181345Y-92721737D01*
X68391086Y-92554473D01*
X68580781Y-92364778D01*
X68748045Y-92155037D01*
X68890773Y-91927886D01*
X69007171Y-91686184D01*
X69095774Y-91432969D01*
X69103707Y-91398214D01*
X116004250Y-91398214D01*
X116004250Y-91634185D01*
X116035049Y-91868114D01*
X116096120Y-92096037D01*
X116186410Y-92314019D01*
X116186415Y-92314028D01*
X116304394Y-92518371D01*
X116304395Y-92518372D01*
X116366971Y-92599923D01*
X117203208Y-91763687D01*
X117228228Y-91824090D01*
X117299362Y-91930551D01*
X117389899Y-92021088D01*
X117496360Y-92092222D01*
X117556761Y-92117241D01*
X116720525Y-92953477D01*
X116802077Y-93016054D01*
X116802078Y-93016055D01*
X117006421Y-93134034D01*
X117006430Y-93134039D01*
X117224413Y-93224329D01*
X117224411Y-93224329D01*
X117452335Y-93285400D01*
X117686264Y-93316199D01*
X117686279Y-93316200D01*
X117922221Y-93316200D01*
X117922235Y-93316199D01*
X118156164Y-93285400D01*
X118384087Y-93224329D01*
X118602069Y-93134039D01*
X118602078Y-93134034D01*
X118806431Y-93016050D01*
X118887973Y-92953479D01*
X118887973Y-92953476D01*
X118051737Y-92117241D01*
X118112140Y-92092222D01*
X118218601Y-92021088D01*
X118309138Y-91930551D01*
X118380272Y-91824090D01*
X118405291Y-91763687D01*
X119241526Y-92599923D01*
X119241527Y-92599923D01*
X119281571Y-92547738D01*
X119337999Y-92506536D01*
X119407745Y-92502381D01*
X119468666Y-92536593D01*
X119501418Y-92598311D01*
X119503299Y-92613081D01*
X119503430Y-92613068D01*
X119514250Y-92718996D01*
X119514251Y-92718999D01*
X119569435Y-92885531D01*
X119569437Y-92885536D01*
X119574996Y-92894548D01*
X119661538Y-93034856D01*
X119785594Y-93158912D01*
X119934916Y-93251014D01*
X120101453Y-93306199D01*
X120204241Y-93316700D01*
X122404258Y-93316699D01*
X122507047Y-93306199D01*
X122673584Y-93251014D01*
X122822906Y-93158912D01*
X122946962Y-93034856D01*
X123039064Y-92885534D01*
X123094249Y-92718997D01*
X123104750Y-92616209D01*
X123104749Y-91932696D01*
X136865350Y-91932696D01*
X136865350Y-92180503D01*
X136865351Y-92180519D01*
X136889044Y-92360488D01*
X136897697Y-92426210D01*
X136948609Y-92616216D01*
X136961840Y-92665592D01*
X137056669Y-92894531D01*
X137056677Y-92894548D01*
X137180579Y-93109151D01*
X137180590Y-93109167D01*
X137331445Y-93305766D01*
X137331451Y-93305773D01*
X137506676Y-93480998D01*
X137506682Y-93481003D01*
X137703291Y-93631866D01*
X137703298Y-93631870D01*
X137917901Y-93755772D01*
X137917906Y-93755774D01*
X137917909Y-93755776D01*
X137917913Y-93755777D01*
X137917918Y-93755780D01*
X138146857Y-93850609D01*
X138146859Y-93850609D01*
X138146865Y-93850612D01*
X138386240Y-93914753D01*
X138631940Y-93947100D01*
X138631947Y-93947100D01*
X138879753Y-93947100D01*
X138879760Y-93947100D01*
X139125460Y-93914753D01*
X139364835Y-93850612D01*
X139593791Y-93755776D01*
X139808409Y-93631866D01*
X140005018Y-93481003D01*
X140180253Y-93305768D01*
X140331116Y-93109159D01*
X140348463Y-93079112D01*
X140399030Y-93030897D01*
X140467637Y-93017674D01*
X140532502Y-93043642D01*
X140563236Y-93079112D01*
X140580584Y-93109159D01*
X140580589Y-93109165D01*
X140580590Y-93109167D01*
X140731445Y-93305766D01*
X140731451Y-93305773D01*
X140906676Y-93480998D01*
X140906682Y-93481003D01*
X141103291Y-93631866D01*
X141103298Y-93631870D01*
X141317901Y-93755772D01*
X141317906Y-93755774D01*
X141317909Y-93755776D01*
X141317913Y-93755777D01*
X141317918Y-93755780D01*
X141546857Y-93850609D01*
X141546859Y-93850609D01*
X141546865Y-93850612D01*
X141786240Y-93914753D01*
X142031940Y-93947100D01*
X142031947Y-93947100D01*
X142279753Y-93947100D01*
X142279760Y-93947100D01*
X142525460Y-93914753D01*
X142764835Y-93850612D01*
X142993791Y-93755776D01*
X143208409Y-93631866D01*
X143405018Y-93481003D01*
X143580253Y-93305768D01*
X143731116Y-93109159D01*
X143855026Y-92894541D01*
X143949862Y-92665585D01*
X144014003Y-92426210D01*
X144046350Y-92180510D01*
X144046350Y-91932690D01*
X144014003Y-91686990D01*
X143949862Y-91447615D01*
X143943796Y-91432971D01*
X143855030Y-91218668D01*
X143855022Y-91218651D01*
X143731120Y-91004048D01*
X143731116Y-91004041D01*
X143606793Y-90842020D01*
X143606792Y-90842019D01*
X150766193Y-90842019D01*
X150766193Y-91110298D01*
X150796228Y-91376863D01*
X150796230Y-91376875D01*
X150855926Y-91638422D01*
X150944529Y-91891636D01*
X151060925Y-92133334D01*
X151060927Y-92133337D01*
X151203655Y-92360488D01*
X151370919Y-92570229D01*
X151560614Y-92759924D01*
X151770355Y-92927188D01*
X151997506Y-93069916D01*
X152239208Y-93186314D01*
X152492420Y-93274916D01*
X152492422Y-93274916D01*
X152492423Y-93274917D01*
X152753967Y-93334613D01*
X153020544Y-93364649D01*
X153020545Y-93364650D01*
X153020549Y-93364650D01*
X153288823Y-93364650D01*
X153288823Y-93364649D01*
X153555401Y-93334613D01*
X153816945Y-93274917D01*
X154070160Y-93186314D01*
X154311862Y-93069916D01*
X154539013Y-92927188D01*
X154748754Y-92759924D01*
X154938449Y-92570229D01*
X155105713Y-92360488D01*
X155248441Y-92133337D01*
X155364839Y-91891635D01*
X155453442Y-91638420D01*
X155513138Y-91376876D01*
X155543175Y-91110294D01*
X155543175Y-90842024D01*
X155513138Y-90575442D01*
X155453442Y-90313898D01*
X155364839Y-90060683D01*
X155248441Y-89818981D01*
X155105713Y-89591830D01*
X154938449Y-89382089D01*
X154748754Y-89192394D01*
X154539013Y-89025130D01*
X154311862Y-88882402D01*
X154311859Y-88882400D01*
X154070161Y-88766004D01*
X153816946Y-88677401D01*
X153816948Y-88677401D01*
X153620787Y-88632629D01*
X153555401Y-88617705D01*
X153555397Y-88617704D01*
X153555388Y-88617703D01*
X153288823Y-88587668D01*
X153288819Y-88587668D01*
X153020549Y-88587668D01*
X153020545Y-88587668D01*
X152753979Y-88617703D01*
X152753967Y-88617705D01*
X152492420Y-88677401D01*
X152239206Y-88766004D01*
X151997508Y-88882400D01*
X151770356Y-89025129D01*
X151560614Y-89192393D01*
X151370918Y-89382089D01*
X151203654Y-89591831D01*
X151060925Y-89818983D01*
X150944529Y-90060681D01*
X150855926Y-90313895D01*
X150796230Y-90575442D01*
X150796228Y-90575454D01*
X150766193Y-90842019D01*
X143606792Y-90842019D01*
X143580254Y-90807433D01*
X143580248Y-90807426D01*
X143405023Y-90632201D01*
X143405016Y-90632195D01*
X143208417Y-90481340D01*
X143208415Y-90481338D01*
X143208409Y-90481334D01*
X143208404Y-90481331D01*
X143208401Y-90481329D01*
X142993798Y-90357427D01*
X142993781Y-90357419D01*
X142764842Y-90262590D01*
X142722323Y-90251197D01*
X142525460Y-90198447D01*
X142525459Y-90198446D01*
X142525456Y-90198446D01*
X142279769Y-90166101D01*
X142279766Y-90166100D01*
X142279760Y-90166100D01*
X142031940Y-90166100D01*
X142031934Y-90166100D01*
X142031930Y-90166101D01*
X141786243Y-90198446D01*
X141546857Y-90262590D01*
X141317918Y-90357419D01*
X141317901Y-90357427D01*
X141103298Y-90481329D01*
X141103282Y-90481340D01*
X140906683Y-90632195D01*
X140906676Y-90632201D01*
X140731451Y-90807426D01*
X140731445Y-90807433D01*
X140580590Y-91004032D01*
X140580576Y-91004053D01*
X140563236Y-91034087D01*
X140512669Y-91082302D01*
X140444062Y-91095524D01*
X140379197Y-91069556D01*
X140348464Y-91034087D01*
X140331123Y-91004053D01*
X140331120Y-91004048D01*
X140331116Y-91004041D01*
X140206793Y-90842020D01*
X140180254Y-90807433D01*
X140180248Y-90807426D01*
X140005023Y-90632201D01*
X140005016Y-90632195D01*
X139808417Y-90481340D01*
X139808415Y-90481338D01*
X139808409Y-90481334D01*
X139808404Y-90481331D01*
X139808401Y-90481329D01*
X139593798Y-90357427D01*
X139593781Y-90357419D01*
X139364842Y-90262590D01*
X139322323Y-90251197D01*
X139125460Y-90198447D01*
X139125459Y-90198446D01*
X139125456Y-90198446D01*
X138879769Y-90166101D01*
X138879766Y-90166100D01*
X138879760Y-90166100D01*
X138631940Y-90166100D01*
X138631934Y-90166100D01*
X138631930Y-90166101D01*
X138386243Y-90198446D01*
X138146857Y-90262590D01*
X137917918Y-90357419D01*
X137917901Y-90357427D01*
X137703298Y-90481329D01*
X137703282Y-90481340D01*
X137506683Y-90632195D01*
X137506676Y-90632201D01*
X137331451Y-90807426D01*
X137331445Y-90807433D01*
X137180590Y-91004032D01*
X137180579Y-91004048D01*
X137056677Y-91218651D01*
X137056669Y-91218668D01*
X136961840Y-91447607D01*
X136897696Y-91686993D01*
X136865351Y-91932680D01*
X136865350Y-91932696D01*
X123104749Y-91932696D01*
X123104749Y-91516200D01*
X123104749Y-90416198D01*
X123104748Y-90416181D01*
X123094249Y-90313403D01*
X123094248Y-90313400D01*
X123077411Y-90262590D01*
X123039064Y-90146866D01*
X122946962Y-89997544D01*
X122822906Y-89873488D01*
X122673584Y-89781386D01*
X122507047Y-89726201D01*
X122507045Y-89726200D01*
X122404260Y-89715700D01*
X120204248Y-89715700D01*
X120204231Y-89715701D01*
X120101453Y-89726200D01*
X120101450Y-89726201D01*
X119934918Y-89781385D01*
X119934913Y-89781387D01*
X119785592Y-89873489D01*
X119661539Y-89997542D01*
X119569437Y-90146863D01*
X119569436Y-90146866D01*
X119514251Y-90313403D01*
X119514251Y-90313404D01*
X119514250Y-90313404D01*
X119503429Y-90419332D01*
X119502479Y-90419234D01*
X119480701Y-90481453D01*
X119425629Y-90524451D01*
X119356053Y-90530849D01*
X119294063Y-90498616D01*
X119281570Y-90484659D01*
X119241527Y-90432475D01*
X118405291Y-91268711D01*
X118380272Y-91208310D01*
X118309138Y-91101849D01*
X118218601Y-91011312D01*
X118112140Y-90940178D01*
X118051738Y-90915158D01*
X118887973Y-90078921D01*
X118806422Y-90016345D01*
X118806421Y-90016344D01*
X118602078Y-89898365D01*
X118602069Y-89898360D01*
X118384086Y-89808070D01*
X118384088Y-89808070D01*
X118156164Y-89746999D01*
X117922235Y-89716200D01*
X117686264Y-89716200D01*
X117452335Y-89746999D01*
X117224412Y-89808070D01*
X117006430Y-89898360D01*
X117006421Y-89898365D01*
X116802078Y-90016344D01*
X116802068Y-90016350D01*
X116720525Y-90078920D01*
X116720525Y-90078921D01*
X117556762Y-90915158D01*
X117496360Y-90940178D01*
X117389899Y-91011312D01*
X117299362Y-91101849D01*
X117228228Y-91208310D01*
X117203208Y-91268712D01*
X116366971Y-90432475D01*
X116366970Y-90432475D01*
X116304400Y-90514018D01*
X116304394Y-90514028D01*
X116186415Y-90718371D01*
X116186410Y-90718380D01*
X116096120Y-90936362D01*
X116035049Y-91164285D01*
X116004250Y-91398214D01*
X69103707Y-91398214D01*
X69155470Y-91171425D01*
X69185507Y-90904843D01*
X69185507Y-90636573D01*
X69155470Y-90369991D01*
X69095774Y-90108447D01*
X69085442Y-90078921D01*
X69007170Y-89855230D01*
X68971608Y-89781386D01*
X68890773Y-89613530D01*
X68748045Y-89386379D01*
X68580781Y-89176638D01*
X68391086Y-88986943D01*
X68181345Y-88819679D01*
X67954194Y-88676951D01*
X67954191Y-88676949D01*
X67712493Y-88560553D01*
X67459278Y-88471950D01*
X67459280Y-88471950D01*
X67263119Y-88427178D01*
X67197733Y-88412254D01*
X67197729Y-88412253D01*
X67197720Y-88412252D01*
X66931155Y-88382217D01*
X66931151Y-88382217D01*
X66662881Y-88382217D01*
X66662877Y-88382217D01*
X66396311Y-88412252D01*
X66396299Y-88412254D01*
X66134752Y-88471950D01*
X65881538Y-88560553D01*
X65639840Y-88676949D01*
X65412688Y-88819678D01*
X65202946Y-88986942D01*
X65013250Y-89176638D01*
X64845986Y-89386380D01*
X64703257Y-89613532D01*
X64586861Y-89855230D01*
X64498258Y-90108444D01*
X64438562Y-90369991D01*
X64438560Y-90370003D01*
X64408525Y-90636568D01*
X59168350Y-90636568D01*
X59168350Y-85485382D01*
X75406150Y-85485382D01*
X75406150Y-87285417D01*
X75416650Y-87388196D01*
X75416651Y-87388198D01*
X75471836Y-87554735D01*
X75563938Y-87704056D01*
X75687994Y-87828112D01*
X75837315Y-87920214D01*
X76003852Y-87975399D01*
X76106640Y-87985900D01*
X76106645Y-87985900D01*
X77906655Y-87985900D01*
X77906660Y-87985900D01*
X78009448Y-87975399D01*
X78175985Y-87920214D01*
X78325306Y-87828112D01*
X78449362Y-87704056D01*
X78541464Y-87554735D01*
X78596649Y-87388198D01*
X78607150Y-87285410D01*
X78607150Y-85485390D01*
X78596649Y-85382602D01*
X78541464Y-85216065D01*
X78449362Y-85066744D01*
X78325306Y-84942688D01*
X78175985Y-84850586D01*
X78009448Y-84795401D01*
X78009446Y-84795400D01*
X77906667Y-84784900D01*
X77906660Y-84784900D01*
X76106640Y-84784900D01*
X76106632Y-84784900D01*
X76003853Y-84795400D01*
X76003852Y-84795401D01*
X75921319Y-84822749D01*
X75837317Y-84850585D01*
X75837312Y-84850587D01*
X75687992Y-84942689D01*
X75563939Y-85066742D01*
X75471837Y-85216062D01*
X75471836Y-85216065D01*
X75416651Y-85382602D01*
X75416651Y-85382603D01*
X75416650Y-85382603D01*
X75406150Y-85485382D01*
X59168350Y-85485382D01*
X59168350Y-82375051D01*
X68517850Y-82375051D01*
X68517850Y-82648748D01*
X68517851Y-82648765D01*
X68553575Y-82920119D01*
X68624418Y-83184506D01*
X68729159Y-83437373D01*
X68729163Y-83437383D01*
X68866015Y-83674419D01*
X69032638Y-83891566D01*
X69032644Y-83891573D01*
X69226176Y-84085105D01*
X69226183Y-84085111D01*
X69443330Y-84251734D01*
X69680366Y-84388586D01*
X69680367Y-84388586D01*
X69680370Y-84388588D01*
X69933244Y-84493332D01*
X70197627Y-84564174D01*
X70468995Y-84599900D01*
X70469002Y-84599900D01*
X70742698Y-84599900D01*
X70742705Y-84599900D01*
X71014073Y-84564174D01*
X71278456Y-84493332D01*
X71531330Y-84388588D01*
X71768370Y-84251734D01*
X71985518Y-84085110D01*
X72179060Y-83891568D01*
X72345684Y-83674420D01*
X72482538Y-83437380D01*
X72587282Y-83184506D01*
X72658124Y-82920123D01*
X72693850Y-82648755D01*
X72693850Y-82375045D01*
X72658124Y-82103677D01*
X72587282Y-81839294D01*
X72482538Y-81586420D01*
X72345684Y-81349380D01*
X72179060Y-81132232D01*
X72179055Y-81132226D01*
X71985523Y-80938694D01*
X71985516Y-80938688D01*
X71768369Y-80772065D01*
X71531333Y-80635213D01*
X71531323Y-80635209D01*
X71278456Y-80530468D01*
X71014069Y-80459625D01*
X70742715Y-80423901D01*
X70742710Y-80423900D01*
X70742705Y-80423900D01*
X70468995Y-80423900D01*
X70468989Y-80423900D01*
X70468984Y-80423901D01*
X70197630Y-80459625D01*
X69933243Y-80530468D01*
X69680376Y-80635209D01*
X69680366Y-80635213D01*
X69443330Y-80772065D01*
X69226183Y-80938688D01*
X69226176Y-80938694D01*
X69032644Y-81132226D01*
X69032638Y-81132233D01*
X68866015Y-81349380D01*
X68729163Y-81586416D01*
X68729159Y-81586426D01*
X68624418Y-81839293D01*
X68553575Y-82103680D01*
X68517851Y-82375034D01*
X68517850Y-82375051D01*
X59168350Y-82375051D01*
X59168350Y-74056551D01*
X68517850Y-74056551D01*
X68517850Y-74330248D01*
X68517851Y-74330265D01*
X68553575Y-74601619D01*
X68624418Y-74866006D01*
X68729159Y-75118873D01*
X68729163Y-75118883D01*
X68866015Y-75355919D01*
X69032638Y-75573066D01*
X69032644Y-75573073D01*
X69226176Y-75766605D01*
X69226183Y-75766611D01*
X69443330Y-75933234D01*
X69680366Y-76070086D01*
X69680367Y-76070086D01*
X69680370Y-76070088D01*
X69933244Y-76174832D01*
X70197627Y-76245674D01*
X70468995Y-76281400D01*
X70469002Y-76281400D01*
X70742698Y-76281400D01*
X70742705Y-76281400D01*
X71014073Y-76245674D01*
X71278456Y-76174832D01*
X71460473Y-76099438D01*
X75406150Y-76099438D01*
X75406150Y-76351362D01*
X75415952Y-76413246D01*
X75445560Y-76600185D01*
X75523410Y-76839783D01*
X75602063Y-76994147D01*
X75615015Y-77019567D01*
X75637782Y-77064248D01*
X75785851Y-77268049D01*
X75785855Y-77268054D01*
X75963995Y-77446194D01*
X75964000Y-77446198D01*
X76073839Y-77526000D01*
X76167805Y-77594270D01*
X76310069Y-77666757D01*
X76392266Y-77708639D01*
X76392268Y-77708639D01*
X76392271Y-77708641D01*
X76631865Y-77786490D01*
X76880688Y-77825900D01*
X76880689Y-77825900D01*
X77132611Y-77825900D01*
X77132612Y-77825900D01*
X77381435Y-77786490D01*
X77621029Y-77708641D01*
X77845495Y-77594270D01*
X78049306Y-77446193D01*
X78227443Y-77268056D01*
X78375520Y-77064245D01*
X78489891Y-76839779D01*
X78567740Y-76600185D01*
X78607150Y-76351362D01*
X78607150Y-76099438D01*
X78567740Y-75850615D01*
X78489891Y-75611021D01*
X78489889Y-75611018D01*
X78489889Y-75611016D01*
X78396928Y-75428571D01*
X78375520Y-75386555D01*
X78277351Y-75251436D01*
X78227448Y-75182750D01*
X78227444Y-75182745D01*
X78049304Y-75004605D01*
X78049299Y-75004601D01*
X77845498Y-74856532D01*
X77845497Y-74856531D01*
X77845495Y-74856530D01*
X77743826Y-74804727D01*
X77621033Y-74742160D01*
X77381435Y-74664310D01*
X77132612Y-74624900D01*
X76880688Y-74624900D01*
X76756276Y-74644605D01*
X76631864Y-74664310D01*
X76392266Y-74742160D01*
X76167801Y-74856532D01*
X75964000Y-75004601D01*
X75963995Y-75004605D01*
X75785855Y-75182745D01*
X75785851Y-75182750D01*
X75637782Y-75386551D01*
X75523410Y-75611016D01*
X75445560Y-75850614D01*
X75445560Y-75850615D01*
X75406150Y-76099438D01*
X71460473Y-76099438D01*
X71531330Y-76070088D01*
X71753395Y-75941880D01*
X71768365Y-75933237D01*
X71768367Y-75933236D01*
X71768370Y-75933234D01*
X71985518Y-75766610D01*
X72179060Y-75573068D01*
X72345684Y-75355920D01*
X72482538Y-75118880D01*
X72587282Y-74866006D01*
X72658124Y-74601623D01*
X72693850Y-74330255D01*
X72693850Y-74056545D01*
X72658124Y-73785177D01*
X72587282Y-73520794D01*
X72482538Y-73267920D01*
X72469667Y-73245627D01*
X72345684Y-73030880D01*
X72179061Y-72813733D01*
X72179055Y-72813726D01*
X71985528Y-72620199D01*
X71985521Y-72620193D01*
X71985518Y-72620190D01*
X71985509Y-72620183D01*
X71871415Y-72532635D01*
X79417750Y-72532635D01*
X79417750Y-74533370D01*
X79417751Y-74533376D01*
X79424158Y-74592983D01*
X79474452Y-74727828D01*
X79474456Y-74727835D01*
X79560702Y-74843044D01*
X79560705Y-74843047D01*
X79675914Y-74929293D01*
X79675919Y-74929296D01*
X79703789Y-74939690D01*
X79759723Y-74981561D01*
X79784141Y-75047024D01*
X79769290Y-75115298D01*
X79760775Y-75128759D01*
X79628033Y-75311461D01*
X79524200Y-75515244D01*
X79453528Y-75732750D01*
X79453528Y-75732753D01*
X79420405Y-75941886D01*
X79417750Y-75958646D01*
X79417750Y-76187354D01*
X79420406Y-76204120D01*
X79453528Y-76413246D01*
X79453528Y-76413249D01*
X79524200Y-76630755D01*
X79628033Y-76834538D01*
X79762464Y-77019566D01*
X79924184Y-77181286D01*
X80009114Y-77242991D01*
X80051779Y-77298321D01*
X80057758Y-77367935D01*
X80025152Y-77429730D01*
X80009114Y-77443627D01*
X79924507Y-77505097D01*
X79762847Y-77666757D01*
X79628461Y-77851723D01*
X79524667Y-78055429D01*
X79454015Y-78272871D01*
X79439741Y-78363000D01*
X80427502Y-78363000D01*
X80405732Y-78400708D01*
X80368250Y-78540591D01*
X80368250Y-78685409D01*
X80405732Y-78825292D01*
X80427502Y-78863000D01*
X79439741Y-78863000D01*
X79454015Y-78953128D01*
X79524667Y-79170570D01*
X79628461Y-79374276D01*
X79762847Y-79559242D01*
X79924507Y-79720902D01*
X80109473Y-79855288D01*
X80313179Y-79959082D01*
X80530621Y-80029734D01*
X80668250Y-80051532D01*
X80668250Y-79103747D01*
X80705958Y-79125518D01*
X80845841Y-79163000D01*
X80990659Y-79163000D01*
X81130542Y-79125518D01*
X81168250Y-79103747D01*
X81168250Y-80051531D01*
X81305878Y-80029734D01*
X81523320Y-79959082D01*
X81727026Y-79855288D01*
X81911992Y-79720902D01*
X82073652Y-79559242D01*
X82208038Y-79374276D01*
X82311832Y-79170570D01*
X82382484Y-78953128D01*
X82396759Y-78863000D01*
X81408998Y-78863000D01*
X81430768Y-78825292D01*
X81468250Y-78685409D01*
X81468250Y-78540591D01*
X81430768Y-78400708D01*
X81408998Y-78363000D01*
X82396759Y-78363000D01*
X82382484Y-78272871D01*
X82311832Y-78055429D01*
X82208038Y-77851723D01*
X82073652Y-77666757D01*
X81911992Y-77505097D01*
X81827385Y-77443626D01*
X81784720Y-77388296D01*
X81778741Y-77318682D01*
X81811347Y-77256887D01*
X81827375Y-77242999D01*
X81912316Y-77181286D01*
X82074036Y-77019566D01*
X82208467Y-76834538D01*
X82312298Y-76630758D01*
X82366444Y-76464114D01*
X82382971Y-76413249D01*
X82382971Y-76413248D01*
X82382972Y-76413245D01*
X82418750Y-76187354D01*
X82418750Y-75958646D01*
X82416093Y-75941872D01*
X95577750Y-75941872D01*
X95577750Y-76204127D01*
X95600584Y-76377557D01*
X95611980Y-76464116D01*
X95679852Y-76717418D01*
X95679855Y-76717428D01*
X95780203Y-76959690D01*
X95780208Y-76959700D01*
X95911325Y-77186803D01*
X96070968Y-77394851D01*
X96070976Y-77394860D01*
X96256390Y-77580274D01*
X96256398Y-77580281D01*
X96256399Y-77580282D01*
X96304804Y-77617424D01*
X96464446Y-77739924D01*
X96691549Y-77871041D01*
X96691559Y-77871046D01*
X96933821Y-77971394D01*
X96933831Y-77971398D01*
X97187134Y-78039270D01*
X97447130Y-78073500D01*
X97447137Y-78073500D01*
X97709363Y-78073500D01*
X97709370Y-78073500D01*
X97969366Y-78039270D01*
X98222669Y-77971398D01*
X98464947Y-77871043D01*
X98692053Y-77739924D01*
X98900101Y-77580282D01*
X98900105Y-77580277D01*
X98900110Y-77580274D01*
X99085524Y-77394860D01*
X99085527Y-77394855D01*
X99085532Y-77394851D01*
X99245174Y-77186803D01*
X99376293Y-76959697D01*
X99476648Y-76717419D01*
X99544520Y-76464116D01*
X99578750Y-76204120D01*
X99578750Y-75941880D01*
X99544520Y-75681884D01*
X99476648Y-75428581D01*
X99446551Y-75355920D01*
X99376296Y-75186309D01*
X99376291Y-75186299D01*
X99245174Y-74959196D01*
X99085531Y-74751148D01*
X99085524Y-74751140D01*
X98900110Y-74565726D01*
X98900101Y-74565718D01*
X98692053Y-74406075D01*
X98464950Y-74274958D01*
X98464940Y-74274953D01*
X98222678Y-74174605D01*
X98222671Y-74174603D01*
X98222669Y-74174602D01*
X97969366Y-74106730D01*
X97911589Y-74099123D01*
X97709377Y-74072500D01*
X97709370Y-74072500D01*
X97447130Y-74072500D01*
X97447122Y-74072500D01*
X97216022Y-74102926D01*
X97187134Y-74106730D01*
X96933831Y-74174602D01*
X96933821Y-74174605D01*
X96691559Y-74274953D01*
X96691549Y-74274958D01*
X96464446Y-74406075D01*
X96256398Y-74565718D01*
X96070968Y-74751148D01*
X95911325Y-74959196D01*
X95780208Y-75186299D01*
X95780203Y-75186309D01*
X95679855Y-75428571D01*
X95679852Y-75428581D01*
X95644947Y-75558851D01*
X95611980Y-75681885D01*
X95577750Y-75941872D01*
X82416093Y-75941872D01*
X82382972Y-75732755D01*
X82382971Y-75732751D01*
X82382971Y-75732750D01*
X82312299Y-75515244D01*
X82268137Y-75428571D01*
X82208467Y-75311462D01*
X82075722Y-75128755D01*
X82052244Y-75062953D01*
X82068069Y-74994899D01*
X82118175Y-74946204D01*
X82132705Y-74939692D01*
X82160581Y-74929296D01*
X82275796Y-74843046D01*
X82362046Y-74727831D01*
X82412341Y-74592983D01*
X82418750Y-74533373D01*
X82418749Y-72746091D01*
X104198308Y-72746091D01*
X104198308Y-72996832D01*
X104237533Y-73244490D01*
X104315014Y-73482957D01*
X104315015Y-73482960D01*
X104334293Y-73520794D01*
X104428696Y-73706069D01*
X104428853Y-73706376D01*
X104576228Y-73909222D01*
X104576232Y-73909227D01*
X104753537Y-74086532D01*
X104753542Y-74086536D01*
X104874760Y-74174605D01*
X104956392Y-74233914D01*
X105102438Y-74308328D01*
X105179804Y-74347749D01*
X105179807Y-74347750D01*
X105299040Y-74386490D01*
X105418276Y-74425232D01*
X105665932Y-74464457D01*
X105665933Y-74464457D01*
X105916673Y-74464457D01*
X105916674Y-74464457D01*
X106164330Y-74425232D01*
X106402801Y-74347749D01*
X106626214Y-74233914D01*
X106829070Y-74086531D01*
X107006372Y-73909229D01*
X107153755Y-73706373D01*
X107267590Y-73482960D01*
X107345073Y-73244489D01*
X107384298Y-72996833D01*
X107384298Y-72746091D01*
X107345073Y-72498435D01*
X107293000Y-72338169D01*
X107267591Y-72259966D01*
X107267590Y-72259963D01*
X107207038Y-72141125D01*
X107153755Y-72036551D01*
X107013496Y-71843500D01*
X107006377Y-71833701D01*
X107006373Y-71833696D01*
X106829068Y-71656391D01*
X106829063Y-71656387D01*
X106626217Y-71509012D01*
X106626216Y-71509011D01*
X106626214Y-71509010D01*
X106554638Y-71472540D01*
X106402801Y-71395174D01*
X106402798Y-71395173D01*
X106164331Y-71317692D01*
X106040502Y-71298079D01*
X105916674Y-71278467D01*
X105665932Y-71278467D01*
X105583380Y-71291542D01*
X105418274Y-71317692D01*
X105179807Y-71395173D01*
X105179804Y-71395174D01*
X104956388Y-71509012D01*
X104753542Y-71656387D01*
X104753537Y-71656391D01*
X104576232Y-71833696D01*
X104576228Y-71833701D01*
X104428853Y-72036547D01*
X104315015Y-72259963D01*
X104315014Y-72259966D01*
X104237533Y-72498433D01*
X104198308Y-72746091D01*
X82418749Y-72746091D01*
X82418749Y-72532628D01*
X82412341Y-72473017D01*
X82405086Y-72453566D01*
X82362047Y-72338171D01*
X82362043Y-72338164D01*
X82275797Y-72222955D01*
X82275794Y-72222952D01*
X82160585Y-72136706D01*
X82160578Y-72136702D01*
X82025732Y-72086408D01*
X82025733Y-72086408D01*
X81966133Y-72080001D01*
X81966131Y-72080000D01*
X81966123Y-72080000D01*
X81966114Y-72080000D01*
X79870379Y-72080000D01*
X79870373Y-72080001D01*
X79810766Y-72086408D01*
X79675921Y-72136702D01*
X79675914Y-72136706D01*
X79560705Y-72222952D01*
X79560702Y-72222955D01*
X79474456Y-72338164D01*
X79474452Y-72338171D01*
X79424158Y-72473017D01*
X79419069Y-72520359D01*
X79417751Y-72532623D01*
X79417750Y-72532635D01*
X71871415Y-72532635D01*
X71768369Y-72453565D01*
X71531333Y-72316713D01*
X71531323Y-72316709D01*
X71278456Y-72211968D01*
X71014069Y-72141125D01*
X70742715Y-72105401D01*
X70742710Y-72105400D01*
X70742705Y-72105400D01*
X70468995Y-72105400D01*
X70468989Y-72105400D01*
X70468984Y-72105401D01*
X70197630Y-72141125D01*
X69933243Y-72211968D01*
X69680376Y-72316709D01*
X69680366Y-72316713D01*
X69443330Y-72453565D01*
X69226183Y-72620188D01*
X69226176Y-72620194D01*
X69032644Y-72813726D01*
X69032638Y-72813733D01*
X68866015Y-73030880D01*
X68729163Y-73267916D01*
X68729159Y-73267926D01*
X68624418Y-73520793D01*
X68553575Y-73785180D01*
X68517851Y-74056534D01*
X68517850Y-74056551D01*
X59168350Y-74056551D01*
X59168350Y-70909228D01*
X99193950Y-70909228D01*
X99193950Y-71076771D01*
X99226632Y-71241074D01*
X99226634Y-71241082D01*
X99290745Y-71395860D01*
X99383823Y-71535162D01*
X99502287Y-71653626D01*
X99550685Y-71685964D01*
X99641587Y-71746703D01*
X99796368Y-71810816D01*
X99911390Y-71833695D01*
X99960678Y-71843499D01*
X99960682Y-71843500D01*
X99960683Y-71843500D01*
X100128218Y-71843500D01*
X100128219Y-71843499D01*
X100292532Y-71810816D01*
X100364953Y-71780817D01*
X100412405Y-71771379D01*
X101741491Y-71771379D01*
X101839033Y-71751975D01*
X101886484Y-71742537D01*
X102023066Y-71685963D01*
X102086617Y-71643500D01*
X102145987Y-71603831D01*
X114616301Y-59133516D01*
X114698434Y-59010595D01*
X114755008Y-58874013D01*
X114769321Y-58802060D01*
X114783850Y-58729020D01*
X114783850Y-57305861D01*
X114793289Y-57258408D01*
X114811217Y-57215126D01*
X114851166Y-57118682D01*
X114883850Y-56954367D01*
X114883850Y-56786833D01*
X114851166Y-56622518D01*
X114787053Y-56467737D01*
X114734283Y-56388761D01*
X114693976Y-56328437D01*
X114575512Y-56209973D01*
X114436210Y-56116895D01*
X114281432Y-56052784D01*
X114281424Y-56052782D01*
X114117121Y-56020100D01*
X114117117Y-56020100D01*
X113949583Y-56020100D01*
X113949578Y-56020100D01*
X113785275Y-56052782D01*
X113785267Y-56052784D01*
X113630489Y-56116895D01*
X113491187Y-56209973D01*
X113372723Y-56328437D01*
X113279645Y-56467739D01*
X113215534Y-56622517D01*
X113215532Y-56622525D01*
X113182850Y-56786828D01*
X113182850Y-56954371D01*
X113215532Y-57118674D01*
X113215534Y-57118682D01*
X113273411Y-57258408D01*
X113282850Y-57305861D01*
X113282850Y-58292870D01*
X113263165Y-58359909D01*
X113246531Y-58380551D01*
X101393022Y-70234060D01*
X101331699Y-70267545D01*
X101305341Y-70270379D01*
X100531445Y-70270379D01*
X100464406Y-70250694D01*
X100462554Y-70249481D01*
X100447310Y-70239295D01*
X100292532Y-70175184D01*
X100292524Y-70175182D01*
X100128221Y-70142500D01*
X100128217Y-70142500D01*
X99960683Y-70142500D01*
X99960678Y-70142500D01*
X99796375Y-70175182D01*
X99796367Y-70175184D01*
X99641589Y-70239295D01*
X99502287Y-70332373D01*
X99383823Y-70450837D01*
X99290745Y-70590139D01*
X99226634Y-70744917D01*
X99226632Y-70744925D01*
X99193950Y-70909228D01*
X59168350Y-70909228D01*
X59168350Y-65674551D01*
X68517850Y-65674551D01*
X68517850Y-65948248D01*
X68517851Y-65948265D01*
X68553575Y-66219619D01*
X68624418Y-66484006D01*
X68729159Y-66736873D01*
X68729163Y-66736883D01*
X68866015Y-66973919D01*
X69032638Y-67191066D01*
X69032644Y-67191073D01*
X69226176Y-67384605D01*
X69226183Y-67384611D01*
X69443330Y-67551234D01*
X69680366Y-67688086D01*
X69680367Y-67688086D01*
X69680370Y-67688088D01*
X69933244Y-67792832D01*
X70197627Y-67863674D01*
X70468995Y-67899400D01*
X70469002Y-67899400D01*
X70742698Y-67899400D01*
X70742705Y-67899400D01*
X71014073Y-67863674D01*
X71278456Y-67792832D01*
X71531330Y-67688088D01*
X71768370Y-67551234D01*
X71985518Y-67384610D01*
X72179060Y-67191068D01*
X72345684Y-66973920D01*
X72392644Y-66892582D01*
X75406150Y-66892582D01*
X75406150Y-68692617D01*
X75416650Y-68795396D01*
X75471835Y-68961932D01*
X75471836Y-68961935D01*
X75563938Y-69111256D01*
X75687994Y-69235312D01*
X75837315Y-69327414D01*
X76003852Y-69382599D01*
X76106640Y-69393100D01*
X76106645Y-69393100D01*
X77906655Y-69393100D01*
X77906660Y-69393100D01*
X78009448Y-69382599D01*
X78175985Y-69327414D01*
X78325306Y-69235312D01*
X78449362Y-69111256D01*
X78541464Y-68961935D01*
X78596649Y-68795398D01*
X78607150Y-68692610D01*
X78607150Y-66892590D01*
X78596649Y-66789802D01*
X78541464Y-66623265D01*
X78449362Y-66473944D01*
X78325306Y-66349888D01*
X78175985Y-66257786D01*
X78009448Y-66202601D01*
X78009446Y-66202600D01*
X77906667Y-66192100D01*
X77906660Y-66192100D01*
X76106640Y-66192100D01*
X76106632Y-66192100D01*
X76003853Y-66202600D01*
X76003852Y-66202601D01*
X75952483Y-66219623D01*
X75837317Y-66257785D01*
X75837312Y-66257787D01*
X75687992Y-66349889D01*
X75563939Y-66473942D01*
X75471837Y-66623262D01*
X75471835Y-66623267D01*
X75443999Y-66707269D01*
X75416651Y-66789802D01*
X75416651Y-66789803D01*
X75416650Y-66789803D01*
X75406150Y-66892582D01*
X72392644Y-66892582D01*
X72482538Y-66736880D01*
X72587282Y-66484006D01*
X72658124Y-66219623D01*
X72693850Y-65948255D01*
X72693850Y-65674545D01*
X72658124Y-65403177D01*
X72587282Y-65138794D01*
X72482538Y-64885920D01*
X72345684Y-64648880D01*
X72179060Y-64431732D01*
X72179055Y-64431726D01*
X71985523Y-64238194D01*
X71985516Y-64238188D01*
X71768369Y-64071565D01*
X71531333Y-63934713D01*
X71531323Y-63934709D01*
X71278456Y-63829968D01*
X71014069Y-63759125D01*
X70742715Y-63723401D01*
X70742710Y-63723400D01*
X70742705Y-63723400D01*
X70468995Y-63723400D01*
X70468989Y-63723400D01*
X70468984Y-63723401D01*
X70197630Y-63759125D01*
X69933243Y-63829968D01*
X69680376Y-63934709D01*
X69680366Y-63934713D01*
X69443330Y-64071565D01*
X69226183Y-64238188D01*
X69226176Y-64238194D01*
X69032644Y-64431726D01*
X69032638Y-64431733D01*
X68866015Y-64648880D01*
X68729163Y-64885916D01*
X68729159Y-64885926D01*
X68624418Y-65138793D01*
X68553575Y-65403180D01*
X68517851Y-65674534D01*
X68517850Y-65674551D01*
X59168350Y-65674551D01*
X59168350Y-57546551D01*
X68517850Y-57546551D01*
X68517850Y-57820248D01*
X68517851Y-57820265D01*
X68553575Y-58091619D01*
X68624418Y-58356006D01*
X68729159Y-58608873D01*
X68729163Y-58608883D01*
X68866015Y-58845919D01*
X69032638Y-59063066D01*
X69032644Y-59063073D01*
X69226176Y-59256605D01*
X69226183Y-59256611D01*
X69443330Y-59423234D01*
X69680366Y-59560086D01*
X69680367Y-59560086D01*
X69680370Y-59560088D01*
X69933244Y-59664832D01*
X70197627Y-59735674D01*
X70468995Y-59771400D01*
X70469002Y-59771400D01*
X70742698Y-59771400D01*
X70742705Y-59771400D01*
X71014073Y-59735674D01*
X71278456Y-59664832D01*
X71531330Y-59560088D01*
X71768370Y-59423234D01*
X71985518Y-59256610D01*
X72179060Y-59063068D01*
X72345684Y-58845920D01*
X72482538Y-58608880D01*
X72587282Y-58356006D01*
X72658124Y-58091623D01*
X72693850Y-57820255D01*
X72693850Y-57546545D01*
X72692589Y-57536973D01*
X72690086Y-57517950D01*
X72688597Y-57506638D01*
X75406150Y-57506638D01*
X75406150Y-57758562D01*
X75415952Y-57820446D01*
X75445560Y-58007385D01*
X75523410Y-58246983D01*
X75591467Y-58380551D01*
X75615015Y-58426767D01*
X75637782Y-58471448D01*
X75785851Y-58675249D01*
X75785855Y-58675254D01*
X75963995Y-58853394D01*
X75964000Y-58853398D01*
X76073839Y-58933200D01*
X76167805Y-59001470D01*
X76310069Y-59073957D01*
X76392266Y-59115839D01*
X76392268Y-59115839D01*
X76392271Y-59115841D01*
X76631865Y-59193690D01*
X76880688Y-59233100D01*
X76880689Y-59233100D01*
X77132611Y-59233100D01*
X77132612Y-59233100D01*
X77381435Y-59193690D01*
X77621029Y-59115841D01*
X77845495Y-59001470D01*
X78049306Y-58853393D01*
X78227443Y-58675256D01*
X78375520Y-58471445D01*
X78489891Y-58246979D01*
X78567740Y-58007385D01*
X78607150Y-57758562D01*
X78607150Y-57506638D01*
X78567740Y-57257815D01*
X78489891Y-57018221D01*
X78489889Y-57018218D01*
X78489889Y-57018216D01*
X78396928Y-56835771D01*
X78375520Y-56793755D01*
X78356602Y-56767717D01*
X78227448Y-56589950D01*
X78227444Y-56589945D01*
X78049304Y-56411805D01*
X78049299Y-56411801D01*
X77845498Y-56263732D01*
X77845497Y-56263731D01*
X77845495Y-56263730D01*
X77739991Y-56209973D01*
X77621033Y-56149360D01*
X77381435Y-56071510D01*
X77132612Y-56032100D01*
X76880688Y-56032100D01*
X76756276Y-56051805D01*
X76631864Y-56071510D01*
X76392266Y-56149360D01*
X76167801Y-56263732D01*
X75964000Y-56411801D01*
X75963995Y-56411805D01*
X75785855Y-56589945D01*
X75785851Y-56589950D01*
X75637782Y-56793751D01*
X75523410Y-57018216D01*
X75445560Y-57257814D01*
X75442322Y-57278256D01*
X75406150Y-57506638D01*
X72688597Y-57506638D01*
X72667852Y-57349072D01*
X72658124Y-57275177D01*
X72587282Y-57010794D01*
X72482538Y-56757920D01*
X72345684Y-56520880D01*
X72261988Y-56411805D01*
X72179061Y-56303733D01*
X72179055Y-56303726D01*
X71985523Y-56110194D01*
X71985516Y-56110188D01*
X71768369Y-55943565D01*
X71531333Y-55806713D01*
X71531323Y-55806709D01*
X71278456Y-55701968D01*
X71014069Y-55631125D01*
X70742715Y-55595401D01*
X70742710Y-55595400D01*
X70742705Y-55595400D01*
X70468995Y-55595400D01*
X70468989Y-55595400D01*
X70468984Y-55595401D01*
X70197630Y-55631125D01*
X69933243Y-55701968D01*
X69680376Y-55806709D01*
X69680366Y-55806713D01*
X69443330Y-55943565D01*
X69226183Y-56110188D01*
X69226176Y-56110194D01*
X69032644Y-56303726D01*
X69032638Y-56303733D01*
X68866015Y-56520880D01*
X68729163Y-56757916D01*
X68729159Y-56757926D01*
X68624418Y-57010793D01*
X68553575Y-57275180D01*
X68517851Y-57546534D01*
X68517850Y-57546551D01*
X59168350Y-57546551D01*
X59168350Y-53939835D01*
X79417750Y-53939835D01*
X79417750Y-55940570D01*
X79417751Y-55940576D01*
X79424158Y-56000183D01*
X79474452Y-56135028D01*
X79474456Y-56135035D01*
X79560702Y-56250244D01*
X79560705Y-56250247D01*
X79675914Y-56336493D01*
X79675919Y-56336496D01*
X79703789Y-56346890D01*
X79759723Y-56388761D01*
X79784141Y-56454224D01*
X79769290Y-56522498D01*
X79760775Y-56535959D01*
X79628033Y-56718661D01*
X79524200Y-56922444D01*
X79453528Y-57139950D01*
X79453528Y-57139953D01*
X79420405Y-57349086D01*
X79417750Y-57365846D01*
X79417750Y-57594554D01*
X79420406Y-57611320D01*
X79453528Y-57820446D01*
X79453528Y-57820449D01*
X79524200Y-58037955D01*
X79628033Y-58241738D01*
X79762464Y-58426766D01*
X79924184Y-58588486D01*
X80009114Y-58650191D01*
X80051779Y-58705521D01*
X80057758Y-58775135D01*
X80025152Y-58836930D01*
X80009114Y-58850827D01*
X79924507Y-58912297D01*
X79762847Y-59073957D01*
X79628461Y-59258923D01*
X79524667Y-59462629D01*
X79454015Y-59680071D01*
X79439741Y-59770200D01*
X80427502Y-59770200D01*
X80405732Y-59807908D01*
X80368250Y-59947791D01*
X80368250Y-60092609D01*
X80405732Y-60232492D01*
X80427502Y-60270200D01*
X79439741Y-60270200D01*
X79454015Y-60360328D01*
X79524667Y-60577770D01*
X79628461Y-60781476D01*
X79762847Y-60966442D01*
X79924507Y-61128102D01*
X80109473Y-61262488D01*
X80313179Y-61366282D01*
X80530621Y-61436934D01*
X80668250Y-61458732D01*
X80668250Y-60510947D01*
X80705958Y-60532718D01*
X80845841Y-60570200D01*
X80990659Y-60570200D01*
X81130542Y-60532718D01*
X81168250Y-60510947D01*
X81168250Y-61458731D01*
X81305878Y-61436934D01*
X81523320Y-61366282D01*
X81727026Y-61262488D01*
X81911992Y-61128102D01*
X82073652Y-60966442D01*
X82208038Y-60781476D01*
X82311832Y-60577770D01*
X82382484Y-60360328D01*
X82396759Y-60270200D01*
X81408998Y-60270200D01*
X81430768Y-60232492D01*
X81468250Y-60092609D01*
X81468250Y-59947791D01*
X81430768Y-59807908D01*
X81408998Y-59770200D01*
X82396759Y-59770200D01*
X82382484Y-59680071D01*
X82311832Y-59462629D01*
X82208038Y-59258923D01*
X82073652Y-59073957D01*
X81911992Y-58912297D01*
X81827385Y-58850826D01*
X81784720Y-58795496D01*
X81778741Y-58725882D01*
X81811347Y-58664087D01*
X81827375Y-58650199D01*
X81912316Y-58588486D01*
X82074036Y-58426766D01*
X82208467Y-58241738D01*
X82312298Y-58037958D01*
X82322232Y-58007385D01*
X82382971Y-57820449D01*
X82382971Y-57820448D01*
X82382972Y-57820445D01*
X82418750Y-57594554D01*
X82418750Y-57365846D01*
X82416093Y-57349072D01*
X95577750Y-57349072D01*
X95577750Y-57611327D01*
X95593688Y-57732380D01*
X95611980Y-57871316D01*
X95671010Y-58091619D01*
X95679852Y-58124618D01*
X95679855Y-58124628D01*
X95780203Y-58366890D01*
X95780208Y-58366900D01*
X95911325Y-58594003D01*
X96070968Y-58802051D01*
X96070976Y-58802060D01*
X96256390Y-58987474D01*
X96256398Y-58987481D01*
X96256399Y-58987482D01*
X96286511Y-59010588D01*
X96464446Y-59147124D01*
X96691549Y-59278241D01*
X96691559Y-59278246D01*
X96933821Y-59378594D01*
X96933831Y-59378598D01*
X97187134Y-59446470D01*
X97447130Y-59480700D01*
X97447137Y-59480700D01*
X97709363Y-59480700D01*
X97709370Y-59480700D01*
X97969366Y-59446470D01*
X98222669Y-59378598D01*
X98464947Y-59278243D01*
X98692053Y-59147124D01*
X98900101Y-58987482D01*
X98900105Y-58987477D01*
X98900110Y-58987474D01*
X99085524Y-58802060D01*
X99085527Y-58802055D01*
X99085532Y-58802051D01*
X99245174Y-58594003D01*
X99376293Y-58366897D01*
X99476648Y-58124619D01*
X99544520Y-57871316D01*
X99578750Y-57611320D01*
X99578750Y-57349080D01*
X99544520Y-57089084D01*
X99476648Y-56835781D01*
X99445645Y-56760933D01*
X99376296Y-56593509D01*
X99376291Y-56593499D01*
X99245174Y-56366396D01*
X99085531Y-56158348D01*
X99085524Y-56158340D01*
X98900110Y-55972926D01*
X98900101Y-55972918D01*
X98692053Y-55813275D01*
X98464950Y-55682158D01*
X98464940Y-55682153D01*
X98222678Y-55581805D01*
X98222671Y-55581803D01*
X98222669Y-55581802D01*
X97969366Y-55513930D01*
X97911589Y-55506323D01*
X97709377Y-55479700D01*
X97709370Y-55479700D01*
X97447130Y-55479700D01*
X97447122Y-55479700D01*
X97216022Y-55510126D01*
X97187134Y-55513930D01*
X96933831Y-55581802D01*
X96933821Y-55581805D01*
X96691559Y-55682153D01*
X96691549Y-55682158D01*
X96464446Y-55813275D01*
X96256398Y-55972918D01*
X96070968Y-56158348D01*
X95911325Y-56366396D01*
X95780208Y-56593499D01*
X95780203Y-56593509D01*
X95679855Y-56835771D01*
X95679852Y-56835781D01*
X95611980Y-57089085D01*
X95577750Y-57349072D01*
X82416093Y-57349072D01*
X82382972Y-57139955D01*
X82382971Y-57139951D01*
X82382971Y-57139950D01*
X82312299Y-56922444D01*
X82268137Y-56835771D01*
X82208467Y-56718662D01*
X82075722Y-56535955D01*
X82052244Y-56470153D01*
X82068069Y-56402099D01*
X82118175Y-56353404D01*
X82132705Y-56346892D01*
X82160581Y-56336496D01*
X82275796Y-56250246D01*
X82362046Y-56135031D01*
X82412341Y-56000183D01*
X82418750Y-55940573D01*
X82418749Y-53939828D01*
X82412341Y-53880217D01*
X82362046Y-53745369D01*
X82362045Y-53745368D01*
X82362043Y-53745364D01*
X82275797Y-53630155D01*
X82275794Y-53630152D01*
X82160585Y-53543906D01*
X82160578Y-53543902D01*
X82025732Y-53493608D01*
X82025733Y-53493608D01*
X81966133Y-53487201D01*
X81966131Y-53487200D01*
X81966123Y-53487200D01*
X81966114Y-53487200D01*
X79870379Y-53487200D01*
X79870373Y-53487201D01*
X79810766Y-53493608D01*
X79675921Y-53543902D01*
X79675914Y-53543906D01*
X79560705Y-53630152D01*
X79560702Y-53630155D01*
X79474456Y-53745364D01*
X79474452Y-53745371D01*
X79424158Y-53880217D01*
X79417751Y-53939816D01*
X79417751Y-53939823D01*
X79417750Y-53939835D01*
X59168350Y-53939835D01*
X59168350Y-49418551D01*
X68517850Y-49418551D01*
X68517850Y-49692248D01*
X68517851Y-49692265D01*
X68553575Y-49963619D01*
X68624418Y-50228006D01*
X68729159Y-50480873D01*
X68729163Y-50480883D01*
X68866015Y-50717919D01*
X69032638Y-50935066D01*
X69032644Y-50935073D01*
X69226176Y-51128605D01*
X69226183Y-51128611D01*
X69443330Y-51295234D01*
X69680366Y-51432086D01*
X69680367Y-51432086D01*
X69680370Y-51432088D01*
X69933244Y-51536832D01*
X70197627Y-51607674D01*
X70468995Y-51643400D01*
X70469002Y-51643400D01*
X70742698Y-51643400D01*
X70742705Y-51643400D01*
X71014073Y-51607674D01*
X71278456Y-51536832D01*
X71531330Y-51432088D01*
X71768370Y-51295234D01*
X71985518Y-51128610D01*
X72179060Y-50935068D01*
X72345684Y-50717920D01*
X72482538Y-50480880D01*
X72587282Y-50228006D01*
X72658124Y-49963623D01*
X72693850Y-49692255D01*
X72693850Y-49418545D01*
X72658124Y-49147177D01*
X72587282Y-48882794D01*
X72482538Y-48629920D01*
X72380393Y-48452999D01*
X72345684Y-48392880D01*
X72179061Y-48175733D01*
X72179055Y-48175726D01*
X71985523Y-47982194D01*
X71985516Y-47982188D01*
X71768369Y-47815565D01*
X71531333Y-47678713D01*
X71531323Y-47678709D01*
X71278456Y-47573968D01*
X71014069Y-47503125D01*
X70742715Y-47467401D01*
X70742710Y-47467400D01*
X70742705Y-47467400D01*
X70468995Y-47467400D01*
X70468989Y-47467400D01*
X70468984Y-47467401D01*
X70197630Y-47503125D01*
X69933243Y-47573968D01*
X69680376Y-47678709D01*
X69680366Y-47678713D01*
X69443330Y-47815565D01*
X69226183Y-47982188D01*
X69226176Y-47982194D01*
X69032644Y-48175726D01*
X69032638Y-48175733D01*
X68866015Y-48392880D01*
X68729163Y-48629916D01*
X68729159Y-48629926D01*
X68624418Y-48882793D01*
X68553575Y-49147180D01*
X68517851Y-49418534D01*
X68517850Y-49418551D01*
X59168350Y-49418551D01*
X59168350Y-45962982D01*
X75253750Y-45962982D01*
X75253750Y-47763017D01*
X75264250Y-47865796D01*
X75302821Y-47982194D01*
X75319436Y-48032335D01*
X75411538Y-48181656D01*
X75535594Y-48305712D01*
X75684915Y-48397814D01*
X75851452Y-48452999D01*
X75954240Y-48463500D01*
X75954245Y-48463500D01*
X77754255Y-48463500D01*
X77754260Y-48463500D01*
X77857048Y-48452999D01*
X78023585Y-48397814D01*
X78172906Y-48305712D01*
X78296962Y-48181656D01*
X78389064Y-48032335D01*
X78444249Y-47865798D01*
X78454750Y-47763010D01*
X78454750Y-45962990D01*
X78444249Y-45860202D01*
X78389064Y-45693665D01*
X78296962Y-45544344D01*
X78172906Y-45420288D01*
X78023585Y-45328186D01*
X77857048Y-45273001D01*
X77857046Y-45273000D01*
X77754267Y-45262500D01*
X77754260Y-45262500D01*
X75954240Y-45262500D01*
X75954232Y-45262500D01*
X75851453Y-45273000D01*
X75851452Y-45273001D01*
X75768919Y-45300349D01*
X75684917Y-45328185D01*
X75684912Y-45328187D01*
X75535592Y-45420289D01*
X75411539Y-45544342D01*
X75319437Y-45693662D01*
X75319435Y-45693667D01*
X75300028Y-45752235D01*
X75264251Y-45860202D01*
X75264251Y-45860203D01*
X75264250Y-45860203D01*
X75253750Y-45962982D01*
X59168350Y-45962982D01*
X59168350Y-45242296D01*
X80773350Y-45242296D01*
X80773350Y-45490103D01*
X80773351Y-45490119D01*
X80800148Y-45693667D01*
X80805697Y-45735810D01*
X80859523Y-45936691D01*
X80869840Y-45975192D01*
X80964669Y-46204131D01*
X80964677Y-46204148D01*
X81088579Y-46418751D01*
X81088590Y-46418767D01*
X81239445Y-46615366D01*
X81239451Y-46615373D01*
X81414676Y-46790598D01*
X81414683Y-46790604D01*
X81471453Y-46834165D01*
X81611291Y-46941466D01*
X81611302Y-46941472D01*
X81611303Y-46941473D01*
X81641337Y-46958814D01*
X81689552Y-47009381D01*
X81702774Y-47077988D01*
X81676806Y-47142853D01*
X81641337Y-47173586D01*
X81611303Y-47190926D01*
X81611282Y-47190940D01*
X81414683Y-47341795D01*
X81414676Y-47341801D01*
X81239451Y-47517026D01*
X81239445Y-47517033D01*
X81088590Y-47713632D01*
X81088579Y-47713648D01*
X80964677Y-47928251D01*
X80964669Y-47928268D01*
X80869840Y-48157207D01*
X80805696Y-48396593D01*
X80773351Y-48642280D01*
X80773350Y-48642296D01*
X80773350Y-48890103D01*
X80773351Y-48890119D01*
X80799138Y-49085994D01*
X80805697Y-49135810D01*
X80863191Y-49350380D01*
X80869840Y-49375192D01*
X80964669Y-49604131D01*
X80964677Y-49604148D01*
X81088579Y-49818751D01*
X81088590Y-49818767D01*
X81239445Y-50015366D01*
X81239451Y-50015373D01*
X81414676Y-50190598D01*
X81414683Y-50190604D01*
X81535953Y-50283657D01*
X81611291Y-50341466D01*
X81611298Y-50341470D01*
X81825901Y-50465372D01*
X81825906Y-50465374D01*
X81825909Y-50465376D01*
X81825913Y-50465377D01*
X81825918Y-50465380D01*
X82054857Y-50560209D01*
X82054859Y-50560209D01*
X82054865Y-50560212D01*
X82294240Y-50624353D01*
X82539940Y-50656700D01*
X82539947Y-50656700D01*
X82787753Y-50656700D01*
X82787760Y-50656700D01*
X83033460Y-50624353D01*
X83272835Y-50560212D01*
X83501791Y-50465376D01*
X83716409Y-50341466D01*
X83913018Y-50190603D01*
X84088253Y-50015368D01*
X84239116Y-49818759D01*
X84363026Y-49604141D01*
X84457862Y-49375185D01*
X84522003Y-49135810D01*
X84554350Y-48890110D01*
X84554350Y-48642290D01*
X84522003Y-48396590D01*
X84457862Y-48157215D01*
X84455117Y-48150589D01*
X84363030Y-47928268D01*
X84363022Y-47928251D01*
X84239120Y-47713648D01*
X84239116Y-47713641D01*
X84195676Y-47657028D01*
X84088254Y-47517033D01*
X84088248Y-47517026D01*
X83913023Y-47341801D01*
X83913016Y-47341795D01*
X83716417Y-47190940D01*
X83716415Y-47190939D01*
X83716409Y-47190934D01*
X83686362Y-47173586D01*
X83638147Y-47123020D01*
X83624924Y-47054413D01*
X83650892Y-46989548D01*
X83686363Y-46958813D01*
X83716409Y-46941466D01*
X83913018Y-46790603D01*
X84088253Y-46615368D01*
X84239116Y-46418759D01*
X84363026Y-46204141D01*
X84457862Y-45975185D01*
X84522003Y-45735810D01*
X84554350Y-45490110D01*
X84554350Y-45242290D01*
X84522003Y-44996590D01*
X84457862Y-44757215D01*
X84434969Y-44701947D01*
X84363030Y-44528268D01*
X84363022Y-44528251D01*
X84239120Y-44313648D01*
X84239116Y-44313641D01*
X84155907Y-44205200D01*
X84088254Y-44117033D01*
X84088248Y-44117026D01*
X83913023Y-43941801D01*
X83913016Y-43941795D01*
X83716417Y-43790940D01*
X83716415Y-43790938D01*
X83716409Y-43790934D01*
X83716404Y-43790931D01*
X83716401Y-43790929D01*
X83501798Y-43667027D01*
X83501781Y-43667019D01*
X83272842Y-43572190D01*
X83108290Y-43528098D01*
X83033460Y-43508047D01*
X83033459Y-43508046D01*
X83033456Y-43508046D01*
X82787769Y-43475701D01*
X82787766Y-43475700D01*
X82787760Y-43475700D01*
X82539940Y-43475700D01*
X82539934Y-43475700D01*
X82539930Y-43475701D01*
X82294243Y-43508046D01*
X82054857Y-43572190D01*
X81825918Y-43667019D01*
X81825901Y-43667027D01*
X81611298Y-43790929D01*
X81611282Y-43790940D01*
X81414683Y-43941795D01*
X81414676Y-43941801D01*
X81239451Y-44117026D01*
X81239445Y-44117033D01*
X81088590Y-44313632D01*
X81088579Y-44313648D01*
X80964677Y-44528251D01*
X80964669Y-44528268D01*
X80869840Y-44757207D01*
X80805696Y-44996593D01*
X80773351Y-45242280D01*
X80773350Y-45242296D01*
X59168350Y-45242296D01*
X59168350Y-41036551D01*
X68517850Y-41036551D01*
X68517850Y-41310248D01*
X68517851Y-41310265D01*
X68552962Y-41576965D01*
X68553576Y-41581623D01*
X68568013Y-41635501D01*
X68624418Y-41846006D01*
X68729159Y-42098873D01*
X68729163Y-42098883D01*
X68866015Y-42335919D01*
X69032638Y-42553066D01*
X69032644Y-42553073D01*
X69226176Y-42746605D01*
X69226183Y-42746611D01*
X69443330Y-42913234D01*
X69680366Y-43050086D01*
X69680367Y-43050086D01*
X69680370Y-43050088D01*
X69933244Y-43154832D01*
X70197627Y-43225674D01*
X70468995Y-43261400D01*
X70469002Y-43261400D01*
X70742698Y-43261400D01*
X70742705Y-43261400D01*
X71014073Y-43225674D01*
X71278456Y-43154832D01*
X71531330Y-43050088D01*
X71768370Y-42913234D01*
X71985518Y-42746610D01*
X72179060Y-42553068D01*
X72345684Y-42335920D01*
X72482538Y-42098880D01*
X72587282Y-41846006D01*
X72658124Y-41581623D01*
X72693850Y-41310255D01*
X72693850Y-41036545D01*
X72658124Y-40765177D01*
X72587282Y-40500794D01*
X72482538Y-40247920D01*
X72345684Y-40010880D01*
X72179060Y-39793732D01*
X72179055Y-39793726D01*
X71985523Y-39600194D01*
X71960128Y-39580708D01*
X71925729Y-39554312D01*
X71925728Y-39554311D01*
X71768369Y-39433565D01*
X71531333Y-39296713D01*
X71531323Y-39296709D01*
X71278456Y-39191968D01*
X71014069Y-39121125D01*
X70742715Y-39085401D01*
X70742710Y-39085400D01*
X70742705Y-39085400D01*
X70468995Y-39085400D01*
X70468989Y-39085400D01*
X70468984Y-39085401D01*
X70197630Y-39121125D01*
X69933243Y-39191968D01*
X69680376Y-39296709D01*
X69680366Y-39296713D01*
X69443330Y-39433565D01*
X69226183Y-39600188D01*
X69226176Y-39600194D01*
X69032644Y-39793726D01*
X69032638Y-39793733D01*
X68866015Y-40010880D01*
X68729163Y-40247916D01*
X68729159Y-40247926D01*
X68624418Y-40500793D01*
X68553575Y-40765180D01*
X68517851Y-41036534D01*
X68517850Y-41036551D01*
X59168350Y-41036551D01*
X59168350Y-36577038D01*
X75253750Y-36577038D01*
X75253750Y-36828961D01*
X75293160Y-37077785D01*
X75371010Y-37317383D01*
X75485382Y-37541848D01*
X75633451Y-37745649D01*
X75633455Y-37745654D01*
X75811595Y-37923794D01*
X75811600Y-37923798D01*
X75950689Y-38024851D01*
X76015405Y-38071870D01*
X76139495Y-38135097D01*
X76239866Y-38186239D01*
X76239868Y-38186239D01*
X76239871Y-38186241D01*
X76479465Y-38264090D01*
X76728288Y-38303500D01*
X76728289Y-38303500D01*
X76980211Y-38303500D01*
X76980212Y-38303500D01*
X77229035Y-38264090D01*
X77468629Y-38186241D01*
X77693095Y-38071870D01*
X77896906Y-37923793D01*
X78075043Y-37745656D01*
X78223120Y-37541845D01*
X78337491Y-37317379D01*
X78415340Y-37077785D01*
X78454750Y-36828962D01*
X78454750Y-36577038D01*
X78415340Y-36328215D01*
X78337491Y-36088621D01*
X78337489Y-36088618D01*
X78337489Y-36088616D01*
X78295997Y-36007184D01*
X78223120Y-35864155D01*
X78146546Y-35758759D01*
X78075048Y-35660350D01*
X78075044Y-35660345D01*
X77896904Y-35482205D01*
X77896899Y-35482201D01*
X77693098Y-35334132D01*
X77693097Y-35334131D01*
X77693095Y-35334130D01*
X77576257Y-35274598D01*
X77468633Y-35219760D01*
X77229035Y-35141910D01*
X77168493Y-35132321D01*
X76980212Y-35102500D01*
X76728288Y-35102500D01*
X76603876Y-35122205D01*
X76479464Y-35141910D01*
X76239866Y-35219760D01*
X76015401Y-35334132D01*
X75811600Y-35482201D01*
X75811595Y-35482205D01*
X75633455Y-35660345D01*
X75633451Y-35660350D01*
X75485382Y-35864151D01*
X75371010Y-36088616D01*
X75293160Y-36328214D01*
X75253750Y-36577038D01*
X59168350Y-36577038D01*
X59168350Y-32841701D01*
X64408525Y-32841701D01*
X64408525Y-33109980D01*
X64438560Y-33376545D01*
X64438562Y-33376557D01*
X64498258Y-33638104D01*
X64586861Y-33891318D01*
X64703257Y-34133016D01*
X64703259Y-34133019D01*
X64845987Y-34360170D01*
X64928125Y-34463167D01*
X65008940Y-34564506D01*
X65013251Y-34569911D01*
X65202946Y-34759606D01*
X65412687Y-34926870D01*
X65639838Y-35069598D01*
X65881540Y-35185996D01*
X66134752Y-35274598D01*
X66134754Y-35274598D01*
X66134755Y-35274599D01*
X66396299Y-35334295D01*
X66662876Y-35364331D01*
X66662877Y-35364332D01*
X66662881Y-35364332D01*
X66931155Y-35364332D01*
X66931155Y-35364331D01*
X67197733Y-35334295D01*
X67459277Y-35274599D01*
X67712492Y-35185996D01*
X67954194Y-35069598D01*
X68181345Y-34926870D01*
X68391086Y-34759606D01*
X68580781Y-34569911D01*
X68748045Y-34360170D01*
X68890773Y-34133019D01*
X69007171Y-33891317D01*
X69095774Y-33638102D01*
X69155470Y-33376558D01*
X69165206Y-33290153D01*
X69179574Y-33162635D01*
X79280550Y-33162635D01*
X79280550Y-35163370D01*
X79280551Y-35163376D01*
X79286958Y-35222983D01*
X79337252Y-35357828D01*
X79337256Y-35357835D01*
X79423502Y-35473044D01*
X79423505Y-35473047D01*
X79538714Y-35559293D01*
X79538719Y-35559296D01*
X79566589Y-35569690D01*
X79622523Y-35611561D01*
X79646941Y-35677024D01*
X79632090Y-35745298D01*
X79623575Y-35758759D01*
X79490833Y-35941461D01*
X79387000Y-36145244D01*
X79316328Y-36362750D01*
X79316328Y-36362753D01*
X79283205Y-36571886D01*
X79280550Y-36588646D01*
X79280550Y-36817354D01*
X79283206Y-36834120D01*
X79316328Y-37043246D01*
X79316328Y-37043249D01*
X79387000Y-37260755D01*
X79484679Y-37452461D01*
X79490833Y-37464538D01*
X79625264Y-37649566D01*
X79786984Y-37811286D01*
X79871914Y-37872991D01*
X79914579Y-37928321D01*
X79920558Y-37997935D01*
X79887952Y-38059730D01*
X79871914Y-38073627D01*
X79787307Y-38135097D01*
X79625647Y-38296757D01*
X79491261Y-38481723D01*
X79387467Y-38685429D01*
X79316815Y-38902871D01*
X79302541Y-38993000D01*
X80290302Y-38993000D01*
X80268532Y-39030708D01*
X80231050Y-39170591D01*
X80231050Y-39315409D01*
X80268532Y-39455292D01*
X80290302Y-39493000D01*
X79302541Y-39493000D01*
X79316815Y-39583128D01*
X79387467Y-39800570D01*
X79491261Y-40004276D01*
X79625647Y-40189242D01*
X79787307Y-40350902D01*
X79972273Y-40485288D01*
X80175979Y-40589082D01*
X80393421Y-40659734D01*
X80531050Y-40681532D01*
X80531050Y-39733747D01*
X80568758Y-39755518D01*
X80708641Y-39793000D01*
X80853459Y-39793000D01*
X80993342Y-39755518D01*
X81031050Y-39733747D01*
X81031050Y-40681531D01*
X81168678Y-40659734D01*
X81386120Y-40589082D01*
X81589826Y-40485288D01*
X81774792Y-40350902D01*
X81936452Y-40189242D01*
X82070838Y-40004276D01*
X82174632Y-39800570D01*
X82245284Y-39583128D01*
X82259559Y-39493000D01*
X81271798Y-39493000D01*
X81293568Y-39455292D01*
X81331050Y-39315409D01*
X81331050Y-39170591D01*
X81293568Y-39030708D01*
X81271798Y-38993000D01*
X82259559Y-38993000D01*
X82245284Y-38902871D01*
X82174632Y-38685429D01*
X82070838Y-38481723D01*
X81936452Y-38296757D01*
X81774792Y-38135097D01*
X81690185Y-38073626D01*
X81647520Y-38018296D01*
X81641541Y-37948682D01*
X81674147Y-37886887D01*
X81690175Y-37872999D01*
X81775116Y-37811286D01*
X81936836Y-37649566D01*
X82071267Y-37464538D01*
X82175098Y-37260758D01*
X82175099Y-37260755D01*
X82245771Y-37043249D01*
X82245771Y-37043248D01*
X82245772Y-37043245D01*
X82281550Y-36817354D01*
X82281550Y-36588646D01*
X82245772Y-36362755D01*
X82245771Y-36362751D01*
X82245771Y-36362750D01*
X82175099Y-36145244D01*
X82146248Y-36088621D01*
X82071267Y-35941462D01*
X81938522Y-35758755D01*
X81915044Y-35692953D01*
X81930869Y-35624899D01*
X81980975Y-35576204D01*
X81995505Y-35569692D01*
X82023381Y-35559296D01*
X82138596Y-35473046D01*
X82224846Y-35357831D01*
X82275141Y-35222983D01*
X82281550Y-35163373D01*
X82281549Y-33162628D01*
X82275141Y-33103017D01*
X82263733Y-33072431D01*
X82224847Y-32968171D01*
X82224843Y-32968164D01*
X82138597Y-32852955D01*
X82138594Y-32852952D01*
X82023385Y-32766706D01*
X82023378Y-32766702D01*
X81888532Y-32716408D01*
X81888533Y-32716408D01*
X81828933Y-32710001D01*
X81828931Y-32710000D01*
X81828923Y-32710000D01*
X81828914Y-32710000D01*
X79733179Y-32710000D01*
X79733173Y-32710001D01*
X79673566Y-32716408D01*
X79538721Y-32766702D01*
X79538714Y-32766706D01*
X79423505Y-32852952D01*
X79423502Y-32852955D01*
X79337256Y-32968164D01*
X79337252Y-32968171D01*
X79286958Y-33103017D01*
X79280551Y-33162616D01*
X79280551Y-33162623D01*
X79280550Y-33162635D01*
X69179574Y-33162635D01*
X69181514Y-33145422D01*
X69181514Y-33145421D01*
X69185506Y-33109983D01*
X69185507Y-33109980D01*
X69185507Y-32841702D01*
X69185506Y-32841701D01*
X69180303Y-32795525D01*
X69155470Y-32575124D01*
X69095774Y-32313580D01*
X69007171Y-32060365D01*
X68890773Y-31818663D01*
X68748045Y-31591512D01*
X68580781Y-31381771D01*
X68391086Y-31192076D01*
X68181345Y-31024812D01*
X67954194Y-30882084D01*
X67954191Y-30882082D01*
X67712493Y-30765686D01*
X67459278Y-30677083D01*
X67459280Y-30677083D01*
X67263119Y-30632311D01*
X67197733Y-30617387D01*
X67197729Y-30617386D01*
X67197720Y-30617385D01*
X66931155Y-30587350D01*
X66931151Y-30587350D01*
X66662881Y-30587350D01*
X66662877Y-30587350D01*
X66396311Y-30617385D01*
X66396299Y-30617387D01*
X66134752Y-30677083D01*
X65881538Y-30765686D01*
X65639840Y-30882082D01*
X65412688Y-31024811D01*
X65202946Y-31192075D01*
X65013250Y-31381771D01*
X64845986Y-31591513D01*
X64703257Y-31818665D01*
X64586861Y-32060363D01*
X64498258Y-32313577D01*
X64438562Y-32575124D01*
X64438560Y-32575136D01*
X64408525Y-32841701D01*
X59168350Y-32841701D01*
X59168350Y-23971235D01*
X75797850Y-23971235D01*
X75797850Y-26366970D01*
X75797851Y-26366976D01*
X75804258Y-26426583D01*
X75854552Y-26561428D01*
X75854553Y-26561429D01*
X75854554Y-26561431D01*
X75940802Y-26676643D01*
X75940805Y-26676647D01*
X75998160Y-26719582D01*
X76040032Y-26775515D01*
X76047850Y-26818849D01*
X76047850Y-27597641D01*
X76047850Y-27597643D01*
X76047849Y-27597643D01*
X76086297Y-27790929D01*
X76086300Y-27790939D01*
X76161714Y-27973007D01*
X76161721Y-27973020D01*
X76271210Y-28136881D01*
X76271213Y-28136885D01*
X76414887Y-28280559D01*
X76414909Y-28280579D01*
X78080585Y-29946255D01*
X78080614Y-29946286D01*
X78223064Y-30088736D01*
X78223068Y-30088739D01*
X78386929Y-30198228D01*
X78386942Y-30198235D01*
X78515683Y-30251561D01*
X78558594Y-30269335D01*
X78569014Y-30273651D01*
X78665662Y-30292875D01*
X78713985Y-30302487D01*
X78762308Y-30312100D01*
X78762309Y-30312100D01*
X78762310Y-30312100D01*
X78959390Y-30312100D01*
X83475068Y-30312100D01*
X83542107Y-30331785D01*
X83562749Y-30348419D01*
X91547031Y-38332701D01*
X91580516Y-38394024D01*
X91583350Y-38420382D01*
X91583350Y-43689869D01*
X91563665Y-43756908D01*
X91533726Y-43787440D01*
X91534511Y-43788463D01*
X91334683Y-43941795D01*
X91334676Y-43941801D01*
X91159451Y-44117026D01*
X91159445Y-44117033D01*
X91008590Y-44313632D01*
X91008579Y-44313648D01*
X90884677Y-44528251D01*
X90884669Y-44528268D01*
X90789840Y-44757207D01*
X90725696Y-44996593D01*
X90693351Y-45242280D01*
X90693350Y-45242296D01*
X90693350Y-45490103D01*
X90693351Y-45490119D01*
X90720148Y-45693667D01*
X90725697Y-45735810D01*
X90779523Y-45936691D01*
X90789840Y-45975192D01*
X90884669Y-46204131D01*
X90884677Y-46204148D01*
X91008579Y-46418751D01*
X91008590Y-46418767D01*
X91159445Y-46615366D01*
X91159451Y-46615373D01*
X91334676Y-46790598D01*
X91334683Y-46790604D01*
X91391453Y-46834165D01*
X91531291Y-46941466D01*
X91531302Y-46941472D01*
X91531303Y-46941473D01*
X91561337Y-46958814D01*
X91609552Y-47009381D01*
X91622774Y-47077988D01*
X91596806Y-47142853D01*
X91561337Y-47173586D01*
X91531303Y-47190926D01*
X91531282Y-47190940D01*
X91334683Y-47341795D01*
X91334676Y-47341801D01*
X91159451Y-47517026D01*
X91159445Y-47517033D01*
X91008590Y-47713632D01*
X91008579Y-47713648D01*
X90884677Y-47928251D01*
X90884669Y-47928268D01*
X90789840Y-48157207D01*
X90725696Y-48396593D01*
X90693351Y-48642280D01*
X90693350Y-48642296D01*
X90693350Y-48890103D01*
X90693351Y-48890119D01*
X90719138Y-49085994D01*
X90725697Y-49135810D01*
X90783191Y-49350380D01*
X90789840Y-49375192D01*
X90884669Y-49604131D01*
X90884677Y-49604148D01*
X91008579Y-49818751D01*
X91008590Y-49818767D01*
X91159445Y-50015366D01*
X91159451Y-50015373D01*
X91334676Y-50190598D01*
X91334683Y-50190604D01*
X91455953Y-50283657D01*
X91531291Y-50341466D01*
X91531298Y-50341470D01*
X91745901Y-50465372D01*
X91745906Y-50465374D01*
X91745909Y-50465376D01*
X91745913Y-50465377D01*
X91745918Y-50465380D01*
X91974857Y-50560209D01*
X91974859Y-50560209D01*
X91974865Y-50560212D01*
X92214240Y-50624353D01*
X92459940Y-50656700D01*
X92459947Y-50656700D01*
X92707753Y-50656700D01*
X92707760Y-50656700D01*
X92953460Y-50624353D01*
X93192835Y-50560212D01*
X93275096Y-50526138D01*
X93322547Y-50516700D01*
X112225977Y-50516700D01*
X112225984Y-50516700D01*
X112427021Y-50490232D01*
X112427022Y-50490232D01*
X112453479Y-50486750D01*
X112453484Y-50486748D01*
X112453489Y-50486748D01*
X112675137Y-50427358D01*
X112847177Y-50356096D01*
X112887129Y-50339548D01*
X112887130Y-50339546D01*
X112887138Y-50339544D01*
X112983937Y-50283657D01*
X113085862Y-50224811D01*
X113176886Y-50154965D01*
X113267911Y-50085120D01*
X115238612Y-48114419D01*
X115299935Y-48080934D01*
X115326293Y-48078100D01*
X116462350Y-48078100D01*
X116529389Y-48097785D01*
X116575144Y-48150589D01*
X116586350Y-48202100D01*
X116586350Y-79497575D01*
X116585806Y-79499425D01*
X116586294Y-79501290D01*
X116576004Y-79532808D01*
X116566665Y-79564614D01*
X116565019Y-79566457D01*
X116564610Y-79567710D01*
X116555992Y-79576564D01*
X116540709Y-79593679D01*
X116538038Y-79595856D01*
X116424485Y-79678358D01*
X116369866Y-79732976D01*
X116364992Y-79736951D01*
X116338351Y-79748164D01*
X116312990Y-79762013D01*
X116306547Y-79761552D01*
X116300595Y-79764058D01*
X116272121Y-79759089D01*
X116243298Y-79757028D01*
X116238128Y-79753158D01*
X116231765Y-79752048D01*
X116210500Y-79732475D01*
X116187365Y-79715157D01*
X116183001Y-79707166D01*
X116180356Y-79704731D01*
X116179147Y-79700107D01*
X116170451Y-79684180D01*
X116140647Y-79604271D01*
X116140643Y-79604264D01*
X116054397Y-79489055D01*
X116054394Y-79489052D01*
X115939185Y-79402806D01*
X115939178Y-79402802D01*
X115804332Y-79352508D01*
X115804333Y-79352508D01*
X115744733Y-79346101D01*
X115744731Y-79346100D01*
X115744723Y-79346100D01*
X115744714Y-79346100D01*
X113848979Y-79346100D01*
X113848973Y-79346101D01*
X113789366Y-79352508D01*
X113654521Y-79402802D01*
X113654514Y-79402806D01*
X113539305Y-79489052D01*
X113539302Y-79489055D01*
X113453056Y-79604264D01*
X113453052Y-79604271D01*
X113402758Y-79739117D01*
X113396351Y-79798716D01*
X113396350Y-79798735D01*
X113396350Y-81694470D01*
X113396351Y-81694476D01*
X113402758Y-81754083D01*
X113453052Y-81888928D01*
X113453056Y-81888935D01*
X113539302Y-82004144D01*
X113539305Y-82004147D01*
X113654514Y-82090393D01*
X113654521Y-82090397D01*
X113789367Y-82140691D01*
X113789366Y-82140691D01*
X113796294Y-82141435D01*
X113848977Y-82147100D01*
X115744722Y-82147099D01*
X115804333Y-82140691D01*
X115939181Y-82090396D01*
X116054396Y-82004146D01*
X116140646Y-81888931D01*
X116140648Y-81888926D01*
X116170451Y-81809020D01*
X116212321Y-81753086D01*
X116277786Y-81728668D01*
X116346059Y-81743519D01*
X116374314Y-81764671D01*
X116424486Y-81814843D01*
X116424491Y-81814847D01*
X116526453Y-81888926D01*
X116602828Y-81944415D01*
X116731225Y-82009837D01*
X116799243Y-82044495D01*
X116799246Y-82044496D01*
X116904071Y-82078555D01*
X117008899Y-82112615D01*
X117226628Y-82147100D01*
X117226629Y-82147100D01*
X117447071Y-82147100D01*
X117447072Y-82147100D01*
X117664801Y-82112615D01*
X117874456Y-82044495D01*
X118070872Y-81944415D01*
X118249215Y-81814842D01*
X118405092Y-81658965D01*
X118534665Y-81480622D01*
X118634745Y-81284206D01*
X118702865Y-81074551D01*
X118737350Y-80856822D01*
X118737350Y-80636378D01*
X118702865Y-80418649D01*
X118646802Y-80246101D01*
X118634746Y-80208996D01*
X118634745Y-80208993D01*
X118554513Y-80051532D01*
X118534665Y-80012578D01*
X118476351Y-79932315D01*
X118429836Y-79868291D01*
X118405097Y-79834241D01*
X118405093Y-79834236D01*
X118369592Y-79798735D01*
X123815350Y-79798735D01*
X123815350Y-81694470D01*
X123815351Y-81694476D01*
X123821758Y-81754083D01*
X123872052Y-81888928D01*
X123872056Y-81888935D01*
X123958302Y-82004144D01*
X123958305Y-82004147D01*
X124073514Y-82090393D01*
X124073521Y-82090397D01*
X124208367Y-82140691D01*
X124208366Y-82140691D01*
X124215294Y-82141435D01*
X124267977Y-82147100D01*
X126163722Y-82147099D01*
X126223333Y-82140691D01*
X126358181Y-82090396D01*
X126473396Y-82004146D01*
X126559646Y-81888931D01*
X126559648Y-81888926D01*
X126589451Y-81809020D01*
X126631321Y-81753086D01*
X126696786Y-81728668D01*
X126765059Y-81743519D01*
X126793314Y-81764671D01*
X126843486Y-81814843D01*
X126843491Y-81814847D01*
X126945453Y-81888926D01*
X127021828Y-81944415D01*
X127150225Y-82009837D01*
X127218243Y-82044495D01*
X127218246Y-82044496D01*
X127323071Y-82078555D01*
X127427899Y-82112615D01*
X127645628Y-82147100D01*
X127645629Y-82147100D01*
X127866071Y-82147100D01*
X127866072Y-82147100D01*
X128083801Y-82112615D01*
X128293456Y-82044495D01*
X128355864Y-82012696D01*
X136865350Y-82012696D01*
X136865350Y-82260503D01*
X136865351Y-82260519D01*
X136880429Y-82375051D01*
X136897697Y-82506210D01*
X136934015Y-82641751D01*
X136961840Y-82745592D01*
X137056669Y-82974531D01*
X137056677Y-82974548D01*
X137180579Y-83189151D01*
X137180590Y-83189167D01*
X137331445Y-83385766D01*
X137331451Y-83385773D01*
X137506676Y-83560998D01*
X137506682Y-83561003D01*
X137703291Y-83711866D01*
X137703298Y-83711870D01*
X137917901Y-83835772D01*
X137917906Y-83835774D01*
X137917909Y-83835776D01*
X137917913Y-83835777D01*
X137917918Y-83835780D01*
X138146857Y-83930609D01*
X138146859Y-83930609D01*
X138146865Y-83930612D01*
X138386240Y-83994753D01*
X138631940Y-84027100D01*
X138631947Y-84027100D01*
X138879753Y-84027100D01*
X138879760Y-84027100D01*
X139125460Y-83994753D01*
X139364835Y-83930612D01*
X139593791Y-83835776D01*
X139808409Y-83711866D01*
X140005018Y-83561003D01*
X140180253Y-83385768D01*
X140331116Y-83189159D01*
X140348463Y-83159112D01*
X140399030Y-83110897D01*
X140467637Y-83097674D01*
X140532502Y-83123642D01*
X140563236Y-83159112D01*
X140580584Y-83189159D01*
X140580589Y-83189165D01*
X140580590Y-83189167D01*
X140731445Y-83385766D01*
X140731451Y-83385773D01*
X140906676Y-83560998D01*
X140906682Y-83561003D01*
X141103291Y-83711866D01*
X141103298Y-83711870D01*
X141317901Y-83835772D01*
X141317906Y-83835774D01*
X141317909Y-83835776D01*
X141317913Y-83835777D01*
X141317918Y-83835780D01*
X141546857Y-83930609D01*
X141546859Y-83930609D01*
X141546865Y-83930612D01*
X141786240Y-83994753D01*
X142031940Y-84027100D01*
X142031947Y-84027100D01*
X142279753Y-84027100D01*
X142279760Y-84027100D01*
X142525460Y-83994753D01*
X142764835Y-83930612D01*
X142993791Y-83835776D01*
X143208409Y-83711866D01*
X143405018Y-83561003D01*
X143580253Y-83385768D01*
X143731116Y-83189159D01*
X143855026Y-82974541D01*
X143949862Y-82745585D01*
X143977685Y-82641751D01*
X147257850Y-82641751D01*
X147257850Y-82915448D01*
X147257851Y-82915465D01*
X147293575Y-83186819D01*
X147364418Y-83451206D01*
X147469159Y-83704073D01*
X147469163Y-83704083D01*
X147606015Y-83941119D01*
X147772638Y-84158266D01*
X147772644Y-84158273D01*
X147966176Y-84351805D01*
X147966183Y-84351811D01*
X148183330Y-84518434D01*
X148420366Y-84655286D01*
X148420367Y-84655286D01*
X148420370Y-84655288D01*
X148673244Y-84760032D01*
X148937627Y-84830874D01*
X149208995Y-84866600D01*
X149209002Y-84866600D01*
X149482698Y-84866600D01*
X149482705Y-84866600D01*
X149754073Y-84830874D01*
X150018456Y-84760032D01*
X150271330Y-84655288D01*
X150508370Y-84518434D01*
X150725518Y-84351810D01*
X150919060Y-84158268D01*
X151085684Y-83941120D01*
X151222538Y-83704080D01*
X151327282Y-83451206D01*
X151398124Y-83186823D01*
X151433850Y-82915455D01*
X151433850Y-82641745D01*
X151398124Y-82370377D01*
X151327282Y-82105994D01*
X151222538Y-81853120D01*
X151200441Y-81814847D01*
X151085684Y-81616080D01*
X150919061Y-81398933D01*
X150919055Y-81398926D01*
X150725523Y-81205394D01*
X150725516Y-81205388D01*
X150508369Y-81038765D01*
X150271333Y-80901913D01*
X150271323Y-80901909D01*
X150018456Y-80797168D01*
X149754069Y-80726325D01*
X149482715Y-80690601D01*
X149482710Y-80690600D01*
X149482705Y-80690600D01*
X149208995Y-80690600D01*
X149208989Y-80690600D01*
X149208984Y-80690601D01*
X148937630Y-80726325D01*
X148673243Y-80797168D01*
X148420376Y-80901909D01*
X148420366Y-80901913D01*
X148183330Y-81038765D01*
X147966183Y-81205388D01*
X147966176Y-81205394D01*
X147772644Y-81398926D01*
X147772638Y-81398933D01*
X147606015Y-81616080D01*
X147469163Y-81853116D01*
X147469159Y-81853126D01*
X147364418Y-82105993D01*
X147293575Y-82370380D01*
X147257851Y-82641734D01*
X147257850Y-82641751D01*
X143977685Y-82641751D01*
X144014003Y-82506210D01*
X144046350Y-82260510D01*
X144046350Y-82012690D01*
X144014003Y-81766990D01*
X143949862Y-81527615D01*
X143930398Y-81480625D01*
X143855030Y-81298668D01*
X143855022Y-81298651D01*
X143731120Y-81084048D01*
X143731116Y-81084041D01*
X143580253Y-80887432D01*
X143580248Y-80887426D01*
X143405023Y-80712201D01*
X143405016Y-80712195D01*
X143208417Y-80561340D01*
X143208415Y-80561338D01*
X143208409Y-80561334D01*
X143208404Y-80561331D01*
X143208401Y-80561329D01*
X142993798Y-80437427D01*
X142993781Y-80437419D01*
X142764842Y-80342590D01*
X142525456Y-80278446D01*
X142279769Y-80246101D01*
X142279766Y-80246100D01*
X142279760Y-80246100D01*
X142031940Y-80246100D01*
X142031934Y-80246100D01*
X142031930Y-80246101D01*
X141786243Y-80278446D01*
X141546857Y-80342590D01*
X141317918Y-80437419D01*
X141317901Y-80437427D01*
X141103298Y-80561329D01*
X141103282Y-80561340D01*
X140906683Y-80712195D01*
X140906676Y-80712201D01*
X140731451Y-80887426D01*
X140731445Y-80887433D01*
X140580590Y-81084032D01*
X140580576Y-81084053D01*
X140563236Y-81114087D01*
X140512669Y-81162302D01*
X140444062Y-81175524D01*
X140379197Y-81149556D01*
X140348464Y-81114087D01*
X140331123Y-81084053D01*
X140331120Y-81084048D01*
X140331116Y-81084041D01*
X140180253Y-80887432D01*
X140180248Y-80887426D01*
X140005023Y-80712201D01*
X140005016Y-80712195D01*
X139808417Y-80561340D01*
X139808415Y-80561338D01*
X139808409Y-80561334D01*
X139808404Y-80561331D01*
X139808401Y-80561329D01*
X139593798Y-80437427D01*
X139593781Y-80437419D01*
X139364842Y-80342590D01*
X139125456Y-80278446D01*
X138879769Y-80246101D01*
X138879766Y-80246100D01*
X138879760Y-80246100D01*
X138631940Y-80246100D01*
X138631934Y-80246100D01*
X138631930Y-80246101D01*
X138386243Y-80278446D01*
X138146857Y-80342590D01*
X137917918Y-80437419D01*
X137917901Y-80437427D01*
X137703298Y-80561329D01*
X137703282Y-80561340D01*
X137506683Y-80712195D01*
X137506676Y-80712201D01*
X137331451Y-80887426D01*
X137331445Y-80887433D01*
X137180590Y-81084032D01*
X137180579Y-81084048D01*
X137056677Y-81298651D01*
X137056669Y-81298668D01*
X136961840Y-81527607D01*
X136897696Y-81766993D01*
X136865351Y-82012680D01*
X136865350Y-82012696D01*
X128355864Y-82012696D01*
X128489872Y-81944415D01*
X128539564Y-81908312D01*
X128539566Y-81908311D01*
X128668208Y-81814847D01*
X128668206Y-81814847D01*
X128668215Y-81814842D01*
X128824092Y-81658965D01*
X128953665Y-81480622D01*
X129053745Y-81284206D01*
X129121865Y-81074551D01*
X129156350Y-80856822D01*
X129156350Y-80636378D01*
X129121865Y-80418649D01*
X129065802Y-80246101D01*
X129053746Y-80208996D01*
X129053745Y-80208993D01*
X128973513Y-80051532D01*
X128953665Y-80012578D01*
X128839388Y-79855288D01*
X128824097Y-79834241D01*
X128824093Y-79834236D01*
X128668213Y-79678356D01*
X128668208Y-79678352D01*
X128489875Y-79548787D01*
X128489874Y-79548786D01*
X128489872Y-79548785D01*
X128372641Y-79489052D01*
X128293456Y-79448704D01*
X128293453Y-79448703D01*
X128083802Y-79380585D01*
X127974936Y-79363342D01*
X127866072Y-79346100D01*
X127645628Y-79346100D01*
X127573051Y-79357595D01*
X127427897Y-79380585D01*
X127218246Y-79448703D01*
X127218243Y-79448704D01*
X127021824Y-79548787D01*
X126843491Y-79678352D01*
X126843486Y-79678356D01*
X126793313Y-79728529D01*
X126731990Y-79762013D01*
X126662298Y-79757028D01*
X126606365Y-79715157D01*
X126589451Y-79684180D01*
X126559647Y-79604271D01*
X126559643Y-79604264D01*
X126473397Y-79489055D01*
X126473394Y-79489052D01*
X126358185Y-79402806D01*
X126358178Y-79402802D01*
X126223332Y-79352508D01*
X126223333Y-79352508D01*
X126163733Y-79346101D01*
X126163731Y-79346100D01*
X126163723Y-79346100D01*
X126163714Y-79346100D01*
X124267979Y-79346100D01*
X124267973Y-79346101D01*
X124208366Y-79352508D01*
X124073521Y-79402802D01*
X124073514Y-79402806D01*
X123958305Y-79489052D01*
X123958302Y-79489055D01*
X123872056Y-79604264D01*
X123872052Y-79604271D01*
X123821758Y-79739117D01*
X123815351Y-79798716D01*
X123815350Y-79798735D01*
X118369592Y-79798735D01*
X118249217Y-79678360D01*
X118249215Y-79678358D01*
X118138463Y-79597891D01*
X118095799Y-79542563D01*
X118087350Y-79497575D01*
X118087350Y-72747228D01*
X129598929Y-72747228D01*
X129598929Y-72795328D01*
X129598929Y-72997970D01*
X129614774Y-73098009D01*
X129638154Y-73245627D01*
X129715635Y-73484094D01*
X129715636Y-73484097D01*
X129779166Y-73608779D01*
X129828894Y-73706376D01*
X129829474Y-73707513D01*
X129976849Y-73910359D01*
X129976853Y-73910364D01*
X130154158Y-74087669D01*
X130154163Y-74087673D01*
X130273812Y-74174602D01*
X130357013Y-74235051D01*
X130502226Y-74309041D01*
X130580425Y-74348886D01*
X130580428Y-74348887D01*
X130699661Y-74387627D01*
X130818897Y-74426369D01*
X131066553Y-74465594D01*
X131066554Y-74465594D01*
X131317294Y-74465594D01*
X131317295Y-74465594D01*
X131564951Y-74426369D01*
X131803422Y-74348886D01*
X131978321Y-74259770D01*
X147258350Y-74259770D01*
X147258350Y-74533429D01*
X147294067Y-74804716D01*
X147294069Y-74804727D01*
X147364892Y-75069044D01*
X147364895Y-75069054D01*
X147469609Y-75321855D01*
X147469614Y-75321866D01*
X147606428Y-75558833D01*
X147606434Y-75558841D01*
X147703524Y-75685371D01*
X148563303Y-74825592D01*
X148655319Y-74963304D01*
X148779146Y-75087131D01*
X148916856Y-75179145D01*
X148057077Y-76038923D01*
X148057077Y-76038924D01*
X148183608Y-76136015D01*
X148183616Y-76136021D01*
X148420583Y-76272835D01*
X148420594Y-76272840D01*
X148673395Y-76377554D01*
X148673405Y-76377557D01*
X148937722Y-76448380D01*
X148937733Y-76448382D01*
X149209020Y-76484099D01*
X149209035Y-76484100D01*
X149482665Y-76484100D01*
X149482679Y-76484099D01*
X149753966Y-76448382D01*
X149753977Y-76448380D01*
X150018294Y-76377557D01*
X150018304Y-76377554D01*
X150271105Y-76272840D01*
X150271116Y-76272835D01*
X150508083Y-76136021D01*
X150508101Y-76136009D01*
X150634621Y-76038925D01*
X150634621Y-76038923D01*
X149774843Y-75179146D01*
X149912554Y-75087131D01*
X150036381Y-74963304D01*
X150128395Y-74825593D01*
X150988173Y-75685371D01*
X150988175Y-75685371D01*
X151085259Y-75558851D01*
X151085271Y-75558833D01*
X151222085Y-75321866D01*
X151222090Y-75321855D01*
X151326804Y-75069054D01*
X151326807Y-75069044D01*
X151397630Y-74804727D01*
X151397632Y-74804716D01*
X151433349Y-74533429D01*
X151433350Y-74533415D01*
X151433350Y-74259784D01*
X151433349Y-74259770D01*
X151397632Y-73988483D01*
X151397630Y-73988472D01*
X151326807Y-73724155D01*
X151326804Y-73724145D01*
X151222090Y-73471344D01*
X151222085Y-73471333D01*
X151085271Y-73234366D01*
X151085265Y-73234358D01*
X150988174Y-73107827D01*
X150988173Y-73107827D01*
X150128395Y-73967605D01*
X150036381Y-73829896D01*
X149912554Y-73706069D01*
X149774842Y-73614052D01*
X150634621Y-72754274D01*
X150508091Y-72657184D01*
X150508083Y-72657178D01*
X150271116Y-72520364D01*
X150271105Y-72520359D01*
X150018304Y-72415645D01*
X150018294Y-72415642D01*
X149753977Y-72344819D01*
X149753966Y-72344817D01*
X149482679Y-72309100D01*
X149209020Y-72309100D01*
X148937733Y-72344817D01*
X148937722Y-72344819D01*
X148673405Y-72415642D01*
X148673395Y-72415645D01*
X148420594Y-72520359D01*
X148420583Y-72520364D01*
X148183616Y-72657178D01*
X148183600Y-72657189D01*
X148057077Y-72754273D01*
X148057077Y-72754274D01*
X148916856Y-73614053D01*
X148779146Y-73706069D01*
X148655319Y-73829896D01*
X148563303Y-73967606D01*
X147703524Y-73107827D01*
X147703523Y-73107827D01*
X147606439Y-73234350D01*
X147606428Y-73234366D01*
X147469614Y-73471333D01*
X147469609Y-73471344D01*
X147364895Y-73724145D01*
X147364892Y-73724155D01*
X147294069Y-73988472D01*
X147294067Y-73988483D01*
X147258350Y-74259770D01*
X131978321Y-74259770D01*
X132026835Y-74235051D01*
X132110032Y-74174605D01*
X132136465Y-74155401D01*
X132229685Y-74087673D01*
X132229687Y-74087670D01*
X132229691Y-74087668D01*
X132406993Y-73910366D01*
X132554376Y-73707510D01*
X132668211Y-73484097D01*
X132745694Y-73245626D01*
X132784919Y-72997970D01*
X132784919Y-72747228D01*
X132745694Y-72499572D01*
X132668211Y-72261101D01*
X132668211Y-72261100D01*
X132604826Y-72136702D01*
X132554376Y-72037688D01*
X132413291Y-71843500D01*
X132406998Y-71834838D01*
X132406994Y-71834833D01*
X132229689Y-71657528D01*
X132229684Y-71657524D01*
X132026838Y-71510149D01*
X132026837Y-71510148D01*
X132026835Y-71510147D01*
X131955259Y-71473677D01*
X131803422Y-71396311D01*
X131803419Y-71396310D01*
X131564952Y-71318829D01*
X131441123Y-71299216D01*
X131317295Y-71279604D01*
X131066553Y-71279604D01*
X130984001Y-71292679D01*
X130818895Y-71318829D01*
X130580428Y-71396310D01*
X130580425Y-71396311D01*
X130357009Y-71510149D01*
X130154163Y-71657524D01*
X130154158Y-71657528D01*
X129976853Y-71834833D01*
X129976849Y-71834838D01*
X129829474Y-72037684D01*
X129715636Y-72261100D01*
X129715635Y-72261103D01*
X129638154Y-72499570D01*
X129613191Y-72657184D01*
X129598929Y-72747228D01*
X118087350Y-72747228D01*
X118087350Y-45317042D01*
X118107035Y-45250003D01*
X118123669Y-45229361D01*
X122094611Y-41258419D01*
X122155934Y-41224934D01*
X122182292Y-41222100D01*
X129004024Y-41222100D01*
X129071063Y-41241785D01*
X129116818Y-41294589D01*
X129118012Y-41297287D01*
X129123569Y-41310265D01*
X129128249Y-41321192D01*
X129243000Y-41490736D01*
X129387764Y-41635500D01*
X129557308Y-41750251D01*
X129557313Y-41750253D01*
X129745502Y-41830841D01*
X129745510Y-41830843D01*
X129845474Y-41852589D01*
X129906798Y-41886073D01*
X129940283Y-41947396D01*
X129935299Y-42017088D01*
X129893428Y-42073022D01*
X129845476Y-42094921D01*
X129745660Y-42116635D01*
X129745655Y-42116636D01*
X129557554Y-42197186D01*
X129557550Y-42197189D01*
X129388085Y-42311885D01*
X129388080Y-42311889D01*
X129243389Y-42456580D01*
X129243385Y-42456585D01*
X129128689Y-42626050D01*
X129128686Y-42626054D01*
X129048136Y-42814155D01*
X129048134Y-42814162D01*
X129004638Y-43014108D01*
X129001900Y-43060089D01*
X129001900Y-44138161D01*
X128982215Y-44205200D01*
X128929411Y-44250955D01*
X128860253Y-44260899D01*
X128796697Y-44231874D01*
X128768509Y-44196553D01*
X128740032Y-44143205D01*
X128567364Y-43900022D01*
X128365255Y-43680686D01*
X128136979Y-43488749D01*
X128136974Y-43488745D01*
X127886215Y-43327302D01*
X127886206Y-43327296D01*
X127616989Y-43198937D01*
X127333674Y-43105744D01*
X127040831Y-43049219D01*
X126743180Y-43030276D01*
X126445528Y-43049219D01*
X126152685Y-43105744D01*
X125869370Y-43198937D01*
X125600152Y-43327297D01*
X125600144Y-43327302D01*
X125349385Y-43488745D01*
X125349380Y-43488749D01*
X125121104Y-43680686D01*
X124918995Y-43900022D01*
X124746327Y-44143205D01*
X124655347Y-44313648D01*
X124605881Y-44406317D01*
X124559533Y-44528268D01*
X124499925Y-44685106D01*
X124499919Y-44685124D01*
X124430163Y-44975084D01*
X124430161Y-44975096D01*
X124419189Y-45075909D01*
X124419186Y-45075936D01*
X124418153Y-45085402D01*
X124411060Y-45111879D01*
X124411060Y-45150442D01*
X124410329Y-45157145D01*
X124410326Y-45157150D01*
X124410325Y-45157184D01*
X124406862Y-45188840D01*
X124409615Y-45206711D01*
X124411060Y-45225588D01*
X124411060Y-61531275D01*
X124406862Y-61558529D01*
X124411060Y-61596900D01*
X124411060Y-61635493D01*
X124415694Y-61652789D01*
X124419190Y-61671462D01*
X124430162Y-61772277D01*
X124499919Y-62062243D01*
X124499921Y-62062249D01*
X124499923Y-62062257D01*
X124605881Y-62341051D01*
X124657549Y-62437845D01*
X124746327Y-62604162D01*
X124918995Y-62847345D01*
X125121104Y-63066681D01*
X125349380Y-63258618D01*
X125349385Y-63258622D01*
X125478787Y-63341933D01*
X125600154Y-63420072D01*
X125869371Y-63548431D01*
X126152687Y-63641624D01*
X126445532Y-63698149D01*
X126743180Y-63717092D01*
X127040828Y-63698149D01*
X127333673Y-63641624D01*
X127616989Y-63548431D01*
X127886206Y-63420072D01*
X128136977Y-63258620D01*
X128365257Y-63066679D01*
X128567363Y-62847347D01*
X128738694Y-62606046D01*
X128793556Y-62562782D01*
X128863100Y-62556045D01*
X128925247Y-62587976D01*
X128960264Y-62648437D01*
X128963800Y-62677836D01*
X128963800Y-63823110D01*
X128966538Y-63869091D01*
X129010034Y-64069037D01*
X129010036Y-64069044D01*
X129090586Y-64257145D01*
X129090589Y-64257149D01*
X129205285Y-64426614D01*
X129205289Y-64426619D01*
X129349980Y-64571310D01*
X129349985Y-64571314D01*
X129519450Y-64686010D01*
X129519454Y-64686013D01*
X129707555Y-64766563D01*
X129707562Y-64766565D01*
X129807375Y-64788278D01*
X129868698Y-64821763D01*
X129902183Y-64883086D01*
X129897199Y-64952777D01*
X129855328Y-65008711D01*
X129807376Y-65030610D01*
X129707407Y-65052357D01*
X129707402Y-65052358D01*
X129519213Y-65132946D01*
X129519209Y-65132948D01*
X129519208Y-65132949D01*
X129456014Y-65175719D01*
X129349666Y-65247698D01*
X129349661Y-65247702D01*
X129204902Y-65392461D01*
X129204898Y-65392466D01*
X129090146Y-65562013D01*
X129009558Y-65750202D01*
X129009556Y-65750209D01*
X128966041Y-65950248D01*
X128966040Y-65950254D01*
X128963300Y-65996249D01*
X128963300Y-65996259D01*
X128963300Y-65996261D01*
X128963300Y-68826937D01*
X128963300Y-68826939D01*
X128963301Y-68826950D01*
X128966040Y-68872946D01*
X128966041Y-68872950D01*
X129009556Y-69072990D01*
X129009558Y-69072997D01*
X129090146Y-69261186D01*
X129090149Y-69261192D01*
X129204900Y-69430736D01*
X129349664Y-69575500D01*
X129519208Y-69690251D01*
X129519213Y-69690253D01*
X129707402Y-69770841D01*
X129707409Y-69770843D01*
X129774088Y-69785348D01*
X129907454Y-69814360D01*
X129953449Y-69817100D01*
X135324150Y-69817099D01*
X135370146Y-69814360D01*
X135549570Y-69775328D01*
X135570190Y-69770843D01*
X135570197Y-69770841D01*
X135632926Y-69743978D01*
X135758392Y-69690251D01*
X135927936Y-69575500D01*
X136072700Y-69430736D01*
X136187451Y-69261192D01*
X136268042Y-69072994D01*
X136311560Y-68872946D01*
X136314300Y-68826951D01*
X136314299Y-66131751D01*
X147257850Y-66131751D01*
X147257850Y-66405448D01*
X147257851Y-66405465D01*
X147293575Y-66676819D01*
X147364418Y-66941206D01*
X147469159Y-67194073D01*
X147469163Y-67194083D01*
X147606015Y-67431119D01*
X147772638Y-67648266D01*
X147772644Y-67648273D01*
X147966176Y-67841805D01*
X147966183Y-67841811D01*
X148183330Y-68008434D01*
X148420366Y-68145286D01*
X148420367Y-68145286D01*
X148420370Y-68145288D01*
X148673244Y-68250032D01*
X148937627Y-68320874D01*
X149208995Y-68356600D01*
X149209002Y-68356600D01*
X149482698Y-68356600D01*
X149482705Y-68356600D01*
X149754073Y-68320874D01*
X150018456Y-68250032D01*
X150271330Y-68145288D01*
X150508370Y-68008434D01*
X150725518Y-67841810D01*
X150919060Y-67648268D01*
X151085684Y-67431120D01*
X151222538Y-67194080D01*
X151327282Y-66941206D01*
X151398124Y-66676823D01*
X151433850Y-66405455D01*
X151433850Y-66131745D01*
X151398124Y-65860377D01*
X151327282Y-65595994D01*
X151222538Y-65343120D01*
X151085684Y-65106080D01*
X151008967Y-65006101D01*
X150919061Y-64888933D01*
X150919055Y-64888926D01*
X150725523Y-64695394D01*
X150725516Y-64695388D01*
X150508369Y-64528765D01*
X150271333Y-64391913D01*
X150271323Y-64391909D01*
X150018456Y-64287168D01*
X149906410Y-64257145D01*
X149754073Y-64216326D01*
X149754072Y-64216325D01*
X149754069Y-64216325D01*
X149482715Y-64180601D01*
X149482710Y-64180600D01*
X149482705Y-64180600D01*
X149208995Y-64180600D01*
X149208989Y-64180600D01*
X149208984Y-64180601D01*
X148937630Y-64216325D01*
X148673243Y-64287168D01*
X148420376Y-64391909D01*
X148420366Y-64391913D01*
X148183330Y-64528765D01*
X147966183Y-64695388D01*
X147966176Y-64695394D01*
X147772644Y-64888926D01*
X147772638Y-64888933D01*
X147606015Y-65106080D01*
X147469163Y-65343116D01*
X147469159Y-65343126D01*
X147364418Y-65595993D01*
X147293575Y-65860380D01*
X147257851Y-66131734D01*
X147257850Y-66131751D01*
X136314299Y-66131751D01*
X136314299Y-65996250D01*
X136311560Y-65950254D01*
X136268042Y-65750206D01*
X136268041Y-65750202D01*
X136187453Y-65562013D01*
X136187451Y-65562008D01*
X136072700Y-65392464D01*
X135927936Y-65247700D01*
X135758392Y-65132949D01*
X135758387Y-65132947D01*
X135758386Y-65132946D01*
X135570197Y-65052358D01*
X135570190Y-65052356D01*
X135470224Y-65030610D01*
X135408901Y-64997125D01*
X135375416Y-64935802D01*
X135380400Y-64866110D01*
X135422272Y-64810177D01*
X135470224Y-64788278D01*
X135570038Y-64766565D01*
X135570044Y-64766563D01*
X135758145Y-64686013D01*
X135758149Y-64686010D01*
X135927614Y-64571314D01*
X135927619Y-64571310D01*
X136072310Y-64426619D01*
X136072314Y-64426614D01*
X136187010Y-64257149D01*
X136187013Y-64257145D01*
X136267563Y-64069044D01*
X136267565Y-64069037D01*
X136311061Y-63869091D01*
X136313800Y-63823110D01*
X136313800Y-60992489D01*
X136311061Y-60946508D01*
X136267565Y-60746562D01*
X136267563Y-60746555D01*
X136187013Y-60558454D01*
X136187010Y-60558450D01*
X136072314Y-60388985D01*
X136072310Y-60388980D01*
X135927619Y-60244289D01*
X135927614Y-60244285D01*
X135758149Y-60129589D01*
X135758145Y-60129586D01*
X135570044Y-60049036D01*
X135570037Y-60049034D01*
X135370091Y-60005538D01*
X135324111Y-60002800D01*
X135303800Y-60002800D01*
X135295789Y-60022138D01*
X135296379Y-60023218D01*
X135291395Y-60092910D01*
X135262894Y-60137257D01*
X134029674Y-61370476D01*
X133968351Y-61403961D01*
X133898659Y-61398977D01*
X133854312Y-61370476D01*
X133676122Y-61192286D01*
X133642637Y-61130963D01*
X133647621Y-61061271D01*
X133676122Y-61016924D01*
X134690248Y-60002800D01*
X130587351Y-60002800D01*
X131601476Y-61016925D01*
X131634961Y-61078248D01*
X131629977Y-61147940D01*
X131601476Y-61192287D01*
X131423287Y-61370477D01*
X131361964Y-61403962D01*
X131292273Y-61398978D01*
X131247925Y-61370477D01*
X130014705Y-60137257D01*
X129981220Y-60075934D01*
X129984587Y-60028844D01*
X129973800Y-60002800D01*
X129953489Y-60002800D01*
X129907508Y-60005538D01*
X129707562Y-60049034D01*
X129707555Y-60049036D01*
X129519454Y-60129586D01*
X129519450Y-60129589D01*
X129349985Y-60244285D01*
X129349980Y-60244289D01*
X129286981Y-60307289D01*
X129225658Y-60340774D01*
X129155966Y-60335790D01*
X129100033Y-60293918D01*
X129075616Y-60228454D01*
X129075300Y-60219608D01*
X129075300Y-58003751D01*
X147257850Y-58003751D01*
X147257850Y-58277448D01*
X147257851Y-58277465D01*
X147293575Y-58548819D01*
X147364418Y-58813206D01*
X147469159Y-59066073D01*
X147469163Y-59066083D01*
X147606015Y-59303119D01*
X147772638Y-59520266D01*
X147772644Y-59520273D01*
X147966176Y-59713805D01*
X147966183Y-59713811D01*
X148183330Y-59880434D01*
X148420366Y-60017286D01*
X148420367Y-60017286D01*
X148420370Y-60017288D01*
X148673244Y-60122032D01*
X148937627Y-60192874D01*
X149208995Y-60228600D01*
X149209002Y-60228600D01*
X149482698Y-60228600D01*
X149482705Y-60228600D01*
X149754073Y-60192874D01*
X150018456Y-60122032D01*
X150271330Y-60017288D01*
X150508370Y-59880434D01*
X150725518Y-59713810D01*
X150919060Y-59520268D01*
X151085684Y-59303120D01*
X151222538Y-59066080D01*
X151327282Y-58813206D01*
X151398124Y-58548823D01*
X151433850Y-58277455D01*
X151433850Y-58003745D01*
X151398124Y-57732377D01*
X151327282Y-57467994D01*
X151222538Y-57215120D01*
X151166855Y-57118674D01*
X151085684Y-56978080D01*
X150919061Y-56760933D01*
X150919055Y-56760926D01*
X150725523Y-56567394D01*
X150725516Y-56567388D01*
X150508369Y-56400765D01*
X150271333Y-56263913D01*
X150271323Y-56263909D01*
X150018456Y-56159168D01*
X149860693Y-56116895D01*
X149754073Y-56088326D01*
X149754072Y-56088325D01*
X149754069Y-56088325D01*
X149482715Y-56052601D01*
X149482710Y-56052600D01*
X149482705Y-56052600D01*
X149208995Y-56052600D01*
X149208989Y-56052600D01*
X149208984Y-56052601D01*
X148937630Y-56088325D01*
X148673243Y-56159168D01*
X148420376Y-56263909D01*
X148420366Y-56263913D01*
X148183330Y-56400765D01*
X147966183Y-56567388D01*
X147966176Y-56567394D01*
X147772644Y-56760926D01*
X147772638Y-56760933D01*
X147606015Y-56978080D01*
X147469163Y-57215116D01*
X147469159Y-57215126D01*
X147364418Y-57467993D01*
X147293575Y-57732380D01*
X147257851Y-58003734D01*
X147257850Y-58003751D01*
X129075300Y-58003751D01*
X129075300Y-49621751D01*
X147257850Y-49621751D01*
X147257850Y-49895448D01*
X147257851Y-49895465D01*
X147293575Y-50166819D01*
X147364418Y-50431206D01*
X147469159Y-50684073D01*
X147469163Y-50684083D01*
X147606015Y-50921119D01*
X147772638Y-51138266D01*
X147772644Y-51138273D01*
X147966176Y-51331805D01*
X147966183Y-51331811D01*
X148183330Y-51498434D01*
X148420366Y-51635286D01*
X148420367Y-51635286D01*
X148420370Y-51635288D01*
X148673244Y-51740032D01*
X148937627Y-51810874D01*
X149208995Y-51846600D01*
X149209002Y-51846600D01*
X149482698Y-51846600D01*
X149482705Y-51846600D01*
X149754073Y-51810874D01*
X150018456Y-51740032D01*
X150271330Y-51635288D01*
X150508370Y-51498434D01*
X150725518Y-51331810D01*
X150919060Y-51138268D01*
X151085684Y-50921120D01*
X151222538Y-50684080D01*
X151327282Y-50431206D01*
X151398124Y-50166823D01*
X151433850Y-49895455D01*
X151433850Y-49621745D01*
X151398124Y-49350377D01*
X151327282Y-49085994D01*
X151222538Y-48833120D01*
X151085684Y-48596080D01*
X150919061Y-48378933D01*
X150919055Y-48378926D01*
X150725523Y-48185394D01*
X150725516Y-48185388D01*
X150508369Y-48018765D01*
X150271333Y-47881913D01*
X150271323Y-47881909D01*
X150018456Y-47777168D01*
X149781399Y-47713648D01*
X149754073Y-47706326D01*
X149754072Y-47706325D01*
X149754069Y-47706325D01*
X149482715Y-47670601D01*
X149482710Y-47670600D01*
X149482705Y-47670600D01*
X149208995Y-47670600D01*
X149208989Y-47670600D01*
X149208984Y-47670601D01*
X148937630Y-47706325D01*
X148673243Y-47777168D01*
X148420376Y-47881909D01*
X148420366Y-47881913D01*
X148183330Y-48018765D01*
X147966183Y-48185388D01*
X147966176Y-48185394D01*
X147772644Y-48378926D01*
X147772638Y-48378933D01*
X147606015Y-48596080D01*
X147469163Y-48833116D01*
X147469159Y-48833126D01*
X147364418Y-49085993D01*
X147293575Y-49350380D01*
X147257851Y-49621734D01*
X147257850Y-49621751D01*
X129075300Y-49621751D01*
X129075300Y-46625492D01*
X129094985Y-46558453D01*
X129147789Y-46512698D01*
X129216947Y-46502754D01*
X129280503Y-46531779D01*
X129286981Y-46537811D01*
X129388080Y-46638910D01*
X129388085Y-46638914D01*
X129557550Y-46753610D01*
X129557554Y-46753613D01*
X129745655Y-46834163D01*
X129745662Y-46834165D01*
X129945608Y-46877661D01*
X129991589Y-46880400D01*
X130011900Y-46880400D01*
X130019910Y-46861061D01*
X130019320Y-46859981D01*
X130024304Y-46790289D01*
X130052805Y-46745942D01*
X131286024Y-45512722D01*
X131347347Y-45479237D01*
X131417039Y-45484221D01*
X131461386Y-45512722D01*
X131639576Y-45690912D01*
X131673061Y-45752235D01*
X131668077Y-45821927D01*
X131639576Y-45866274D01*
X130625451Y-46880399D01*
X130625452Y-46880400D01*
X134728348Y-46880400D01*
X134728348Y-46880399D01*
X133714223Y-45866274D01*
X133680738Y-45804951D01*
X133685722Y-45735259D01*
X133714223Y-45690912D01*
X133714663Y-45690471D01*
X133714667Y-45690469D01*
X133891969Y-45513167D01*
X133891969Y-45513166D01*
X133892413Y-45512723D01*
X133953736Y-45479238D01*
X134023428Y-45484222D01*
X134067775Y-45512723D01*
X135300994Y-46745942D01*
X135334479Y-46807265D01*
X135331111Y-46854353D01*
X135341900Y-46880400D01*
X135362211Y-46880400D01*
X135408191Y-46877661D01*
X135608137Y-46834165D01*
X135608144Y-46834163D01*
X135796245Y-46753613D01*
X135796249Y-46753610D01*
X135965714Y-46638914D01*
X135965719Y-46638910D01*
X136110410Y-46494219D01*
X136110414Y-46494214D01*
X136225110Y-46324749D01*
X136225113Y-46324745D01*
X136305663Y-46136644D01*
X136305665Y-46136637D01*
X136349161Y-45936691D01*
X136351900Y-45890710D01*
X136351900Y-43060089D01*
X136349161Y-43014108D01*
X136305665Y-42814162D01*
X136305663Y-42814155D01*
X136225113Y-42626054D01*
X136225110Y-42626050D01*
X136110414Y-42456585D01*
X136110410Y-42456580D01*
X135965719Y-42311889D01*
X135965714Y-42311885D01*
X135796249Y-42197189D01*
X135796245Y-42197186D01*
X135608144Y-42116636D01*
X135608139Y-42116635D01*
X135508323Y-42094921D01*
X135447000Y-42061436D01*
X135413516Y-42000113D01*
X135418500Y-41930421D01*
X135460372Y-41874488D01*
X135508325Y-41852589D01*
X135608294Y-41830842D01*
X135608295Y-41830841D01*
X135608297Y-41830841D01*
X135671026Y-41803978D01*
X135796492Y-41750251D01*
X135966036Y-41635500D01*
X136110800Y-41490736D01*
X136225551Y-41321192D01*
X136233234Y-41303251D01*
X147257850Y-41303251D01*
X147257850Y-41576948D01*
X147257851Y-41576965D01*
X147293575Y-41848319D01*
X147364418Y-42112706D01*
X147469159Y-42365573D01*
X147469163Y-42365583D01*
X147606015Y-42602619D01*
X147772638Y-42819766D01*
X147772644Y-42819773D01*
X147966176Y-43013305D01*
X147966183Y-43013311D01*
X148183330Y-43179934D01*
X148420366Y-43316786D01*
X148420367Y-43316786D01*
X148420370Y-43316788D01*
X148673244Y-43421532D01*
X148937627Y-43492374D01*
X149208995Y-43528100D01*
X149209002Y-43528100D01*
X149482698Y-43528100D01*
X149482705Y-43528100D01*
X149754073Y-43492374D01*
X150018456Y-43421532D01*
X150271330Y-43316788D01*
X150508370Y-43179934D01*
X150725518Y-43013310D01*
X150919060Y-42819768D01*
X151085684Y-42602620D01*
X151222538Y-42365580D01*
X151327282Y-42112706D01*
X151398124Y-41848323D01*
X151433850Y-41576955D01*
X151433850Y-41303245D01*
X151398124Y-41031877D01*
X151327282Y-40767494D01*
X151222538Y-40514620D01*
X151205603Y-40485288D01*
X151085684Y-40277580D01*
X150919061Y-40060433D01*
X150919055Y-40060426D01*
X150725523Y-39866894D01*
X150725516Y-39866888D01*
X150508369Y-39700265D01*
X150271333Y-39563413D01*
X150271323Y-39563409D01*
X150018456Y-39458668D01*
X149754069Y-39387825D01*
X149482715Y-39352101D01*
X149482710Y-39352100D01*
X149482705Y-39352100D01*
X149208995Y-39352100D01*
X149208989Y-39352100D01*
X149208984Y-39352101D01*
X148937630Y-39387825D01*
X148673243Y-39458668D01*
X148420376Y-39563409D01*
X148420366Y-39563413D01*
X148183330Y-39700265D01*
X147966183Y-39866888D01*
X147966176Y-39866894D01*
X147772644Y-40060426D01*
X147772638Y-40060433D01*
X147606015Y-40277580D01*
X147469163Y-40514616D01*
X147469159Y-40514626D01*
X147364418Y-40767493D01*
X147293575Y-41031880D01*
X147257851Y-41303234D01*
X147257850Y-41303251D01*
X136233234Y-41303251D01*
X136252432Y-41258419D01*
X136255878Y-41250373D01*
X136306141Y-41132997D01*
X136306143Y-41132990D01*
X136327123Y-41036545D01*
X136349660Y-40932946D01*
X136352400Y-40886951D01*
X136352399Y-38056250D01*
X136349660Y-38010254D01*
X136306377Y-37811286D01*
X136306142Y-37810204D01*
X136306141Y-37810202D01*
X136225553Y-37622013D01*
X136225551Y-37622008D01*
X136110800Y-37452464D01*
X135966036Y-37307700D01*
X135796492Y-37192949D01*
X135796487Y-37192947D01*
X135796486Y-37192946D01*
X135608297Y-37112358D01*
X135608290Y-37112356D01*
X135408251Y-37068841D01*
X135408250Y-37068840D01*
X135408246Y-37068840D01*
X135362251Y-37066100D01*
X135362238Y-37066100D01*
X129991562Y-37066100D01*
X129991559Y-37066100D01*
X129991550Y-37066101D01*
X129945554Y-37068840D01*
X129945549Y-37068840D01*
X129945549Y-37068841D01*
X129745509Y-37112356D01*
X129745502Y-37112358D01*
X129557313Y-37192946D01*
X129557309Y-37192948D01*
X129557308Y-37192949D01*
X129494114Y-37235719D01*
X129387766Y-37307698D01*
X129387761Y-37307702D01*
X129243002Y-37452461D01*
X129242998Y-37452466D01*
X129128246Y-37622013D01*
X129118012Y-37645913D01*
X129073527Y-37699791D01*
X129006975Y-37721065D01*
X129004024Y-37721100D01*
X121291116Y-37721100D01*
X121291110Y-37721100D01*
X121291105Y-37721101D01*
X121090078Y-37747566D01*
X121090078Y-37747567D01*
X121086065Y-37748095D01*
X121063613Y-37751051D01*
X120842851Y-37810204D01*
X120842846Y-37810205D01*
X120841971Y-37810439D01*
X120841962Y-37810442D01*
X120629968Y-37898253D01*
X120629958Y-37898257D01*
X120431244Y-38012985D01*
X120431229Y-38012995D01*
X120383593Y-38049547D01*
X120383594Y-38049548D01*
X120249183Y-38152685D01*
X111422488Y-46979381D01*
X111361165Y-47012866D01*
X111334807Y-47015700D01*
X93904959Y-47015700D01*
X93837920Y-46996015D01*
X93792165Y-46943211D01*
X93782221Y-46874053D01*
X93811246Y-46810497D01*
X93829470Y-46793326D01*
X93830920Y-46792212D01*
X93833018Y-46790603D01*
X94008253Y-46615368D01*
X94159116Y-46418759D01*
X94283026Y-46204141D01*
X94377862Y-45975185D01*
X94442003Y-45735810D01*
X94474350Y-45490110D01*
X94474350Y-45242290D01*
X94442003Y-44996590D01*
X94377862Y-44757215D01*
X94354969Y-44701947D01*
X94283030Y-44528268D01*
X94283022Y-44528251D01*
X94159120Y-44313648D01*
X94159116Y-44313641D01*
X94075907Y-44205200D01*
X94008254Y-44117033D01*
X94008248Y-44117026D01*
X93833023Y-43941801D01*
X93833016Y-43941795D01*
X93633189Y-43788463D01*
X93634356Y-43786941D01*
X93594566Y-43739156D01*
X93584350Y-43689869D01*
X93584350Y-37856056D01*
X93545902Y-37662770D01*
X93545901Y-37662769D01*
X93545901Y-37662765D01*
X93515637Y-37589700D01*
X93470485Y-37480692D01*
X93470478Y-37480679D01*
X93360989Y-37316818D01*
X93360986Y-37316814D01*
X93218536Y-37174364D01*
X93218505Y-37174335D01*
X92616042Y-36571872D01*
X95440550Y-36571872D01*
X95440550Y-36834127D01*
X95467173Y-37036339D01*
X95474780Y-37094116D01*
X95534453Y-37316818D01*
X95542652Y-37347418D01*
X95542655Y-37347428D01*
X95643003Y-37589690D01*
X95643008Y-37589700D01*
X95774125Y-37816803D01*
X95933768Y-38024851D01*
X95933776Y-38024860D01*
X96119190Y-38210274D01*
X96119198Y-38210281D01*
X96327246Y-38369924D01*
X96554349Y-38501041D01*
X96554359Y-38501046D01*
X96796621Y-38601394D01*
X96796631Y-38601398D01*
X97049934Y-38669270D01*
X97309930Y-38703500D01*
X97309937Y-38703500D01*
X97572163Y-38703500D01*
X97572170Y-38703500D01*
X97832166Y-38669270D01*
X98085469Y-38601398D01*
X98327747Y-38501043D01*
X98554853Y-38369924D01*
X98762901Y-38210282D01*
X98762905Y-38210277D01*
X98762910Y-38210274D01*
X98948324Y-38024860D01*
X98948327Y-38024855D01*
X98948332Y-38024851D01*
X99107974Y-37816803D01*
X99239093Y-37589697D01*
X99339448Y-37347419D01*
X99407320Y-37094116D01*
X99441550Y-36834120D01*
X99441550Y-36571880D01*
X99407320Y-36311884D01*
X99339448Y-36058581D01*
X99290936Y-35941462D01*
X99239096Y-35816309D01*
X99239091Y-35816299D01*
X99107974Y-35589196D01*
X98948331Y-35381148D01*
X98948324Y-35381140D01*
X98762910Y-35195726D01*
X98762901Y-35195718D01*
X98554853Y-35036075D01*
X98327750Y-34904958D01*
X98327740Y-34904953D01*
X98085478Y-34804605D01*
X98085471Y-34804603D01*
X98085469Y-34804602D01*
X97832166Y-34736730D01*
X97774389Y-34729123D01*
X97572177Y-34702500D01*
X97572170Y-34702500D01*
X97309930Y-34702500D01*
X97309922Y-34702500D01*
X97078822Y-34732926D01*
X97049934Y-34736730D01*
X96905757Y-34775362D01*
X96796631Y-34804602D01*
X96796621Y-34804605D01*
X96554359Y-34904953D01*
X96554349Y-34904958D01*
X96327246Y-35036075D01*
X96119198Y-35195718D01*
X95933768Y-35381148D01*
X95774125Y-35589196D01*
X95643008Y-35816299D01*
X95643003Y-35816309D01*
X95542655Y-36058571D01*
X95542652Y-36058581D01*
X95474780Y-36311885D01*
X95440550Y-36571872D01*
X92616042Y-36571872D01*
X89929399Y-33885229D01*
X104196911Y-33885229D01*
X104196911Y-34135970D01*
X104236136Y-34383628D01*
X104313617Y-34622095D01*
X104313618Y-34622098D01*
X104427456Y-34845514D01*
X104574831Y-35048360D01*
X104574835Y-35048365D01*
X104752140Y-35225670D01*
X104752145Y-35225674D01*
X104820106Y-35275050D01*
X104954995Y-35373052D01*
X105101041Y-35447466D01*
X105178407Y-35486887D01*
X105178410Y-35486888D01*
X105297643Y-35525628D01*
X105416879Y-35564370D01*
X105664535Y-35603595D01*
X105664536Y-35603595D01*
X105915276Y-35603595D01*
X105915277Y-35603595D01*
X106162933Y-35564370D01*
X106401404Y-35486887D01*
X106624817Y-35373052D01*
X106827673Y-35225669D01*
X107004975Y-35048367D01*
X107152358Y-34845511D01*
X107266193Y-34622098D01*
X107343676Y-34383627D01*
X107382901Y-34135971D01*
X107382901Y-33885229D01*
X129598300Y-33885229D01*
X129598300Y-34135970D01*
X129637525Y-34383628D01*
X129715006Y-34622095D01*
X129715007Y-34622098D01*
X129828845Y-34845514D01*
X129976220Y-35048360D01*
X129976224Y-35048365D01*
X130153529Y-35225670D01*
X130153534Y-35225674D01*
X130221495Y-35275050D01*
X130356384Y-35373052D01*
X130502430Y-35447466D01*
X130579796Y-35486887D01*
X130579799Y-35486888D01*
X130699032Y-35525628D01*
X130818268Y-35564370D01*
X131065924Y-35603595D01*
X131065925Y-35603595D01*
X131316665Y-35603595D01*
X131316666Y-35603595D01*
X131564322Y-35564370D01*
X131802793Y-35486887D01*
X132026206Y-35373052D01*
X132229062Y-35225669D01*
X132406364Y-35048367D01*
X132553747Y-34845511D01*
X132667582Y-34622098D01*
X132745065Y-34383627D01*
X132784290Y-34135971D01*
X132784290Y-33885229D01*
X132745065Y-33637573D01*
X132667582Y-33399102D01*
X132667582Y-33399101D01*
X132553746Y-33175688D01*
X132553744Y-33175685D01*
X132500947Y-33103016D01*
X132460360Y-33047152D01*
X150766193Y-33047152D01*
X150766193Y-33315431D01*
X150796228Y-33581996D01*
X150796230Y-33582008D01*
X150855926Y-33843555D01*
X150944529Y-34096769D01*
X151060925Y-34338467D01*
X151060927Y-34338470D01*
X151203655Y-34565621D01*
X151370919Y-34775362D01*
X151560614Y-34965057D01*
X151770355Y-35132321D01*
X151997506Y-35275049D01*
X152239208Y-35391447D01*
X152492420Y-35480049D01*
X152492422Y-35480049D01*
X152492423Y-35480050D01*
X152753967Y-35539746D01*
X153020544Y-35569782D01*
X153020545Y-35569783D01*
X153020549Y-35569783D01*
X153288823Y-35569783D01*
X153288823Y-35569782D01*
X153555401Y-35539746D01*
X153816945Y-35480050D01*
X154070160Y-35391447D01*
X154311862Y-35275049D01*
X154539013Y-35132321D01*
X154748754Y-34965057D01*
X154938449Y-34775362D01*
X155105713Y-34565621D01*
X155248441Y-34338470D01*
X155364839Y-34096768D01*
X155453442Y-33843553D01*
X155513138Y-33582009D01*
X155543175Y-33315427D01*
X155543175Y-33047157D01*
X155513138Y-32780575D01*
X155453442Y-32519031D01*
X155364839Y-32265816D01*
X155248441Y-32024114D01*
X155105713Y-31796963D01*
X154938449Y-31587222D01*
X154748754Y-31397527D01*
X154539013Y-31230263D01*
X154311862Y-31087535D01*
X154311859Y-31087533D01*
X154070161Y-30971137D01*
X153816946Y-30882534D01*
X153816948Y-30882534D01*
X153620787Y-30837762D01*
X153555401Y-30822838D01*
X153555397Y-30822837D01*
X153555388Y-30822836D01*
X153288823Y-30792801D01*
X153288819Y-30792801D01*
X153020549Y-30792801D01*
X153020545Y-30792801D01*
X152753979Y-30822836D01*
X152753967Y-30822838D01*
X152492420Y-30882534D01*
X152239206Y-30971137D01*
X151997508Y-31087533D01*
X151770356Y-31230262D01*
X151560614Y-31397526D01*
X151370918Y-31587222D01*
X151203654Y-31796964D01*
X151060925Y-32024116D01*
X150944529Y-32265814D01*
X150855926Y-32519028D01*
X150796230Y-32780575D01*
X150796228Y-32780587D01*
X150766193Y-33047152D01*
X132460360Y-33047152D01*
X132406369Y-32972838D01*
X132229060Y-32795529D01*
X132229055Y-32795525D01*
X132026209Y-32648150D01*
X132026208Y-32648149D01*
X132026206Y-32648148D01*
X131954630Y-32611678D01*
X131802793Y-32534312D01*
X131802790Y-32534311D01*
X131564323Y-32456830D01*
X131440494Y-32437217D01*
X131316666Y-32417605D01*
X131065924Y-32417605D01*
X130983372Y-32430680D01*
X130818266Y-32456830D01*
X130579799Y-32534311D01*
X130579796Y-32534312D01*
X130356380Y-32648150D01*
X130153534Y-32795525D01*
X130153529Y-32795529D01*
X129976224Y-32972834D01*
X129976220Y-32972839D01*
X129828845Y-33175685D01*
X129715007Y-33399101D01*
X129715006Y-33399104D01*
X129637525Y-33637571D01*
X129598300Y-33885229D01*
X107382901Y-33885229D01*
X107343676Y-33637573D01*
X107266193Y-33399102D01*
X107266193Y-33399101D01*
X107215567Y-33299744D01*
X107152358Y-33175689D01*
X107099558Y-33103016D01*
X107004980Y-32972839D01*
X107004976Y-32972834D01*
X106827671Y-32795529D01*
X106827666Y-32795525D01*
X106624820Y-32648150D01*
X106624819Y-32648149D01*
X106624817Y-32648148D01*
X106553241Y-32611678D01*
X106401404Y-32534312D01*
X106401401Y-32534311D01*
X106162934Y-32456830D01*
X106039105Y-32437217D01*
X105915277Y-32417605D01*
X105664535Y-32417605D01*
X105581983Y-32430680D01*
X105416877Y-32456830D01*
X105178410Y-32534311D01*
X105178407Y-32534312D01*
X104954991Y-32648150D01*
X104752145Y-32795525D01*
X104752140Y-32795529D01*
X104574835Y-32972834D01*
X104574831Y-32972839D01*
X104427456Y-33175685D01*
X104313618Y-33399101D01*
X104313617Y-33399104D01*
X104236136Y-33637571D01*
X104196911Y-33885229D01*
X89929399Y-33885229D01*
X84722329Y-28678159D01*
X84722309Y-28678137D01*
X84578635Y-28534463D01*
X84578631Y-28534460D01*
X84414770Y-28424971D01*
X84414761Y-28424966D01*
X84342165Y-28394896D01*
X84286015Y-28371638D01*
X84232686Y-28349549D01*
X84232682Y-28349548D01*
X84232678Y-28349546D01*
X84136038Y-28330324D01*
X84039394Y-28311100D01*
X84039391Y-28311100D01*
X79326632Y-28311100D01*
X79259593Y-28291415D01*
X79238951Y-28274781D01*
X78085169Y-27120999D01*
X78070465Y-27094071D01*
X78053873Y-27068253D01*
X78052981Y-27062052D01*
X78051684Y-27059676D01*
X78048850Y-27033318D01*
X78048850Y-26818849D01*
X78068535Y-26751810D01*
X78098540Y-26719582D01*
X78155896Y-26676646D01*
X78242146Y-26561431D01*
X78292441Y-26426583D01*
X78298850Y-26366973D01*
X78298849Y-26302513D01*
X78318533Y-26235477D01*
X78371336Y-26189721D01*
X78440494Y-26179777D01*
X78504050Y-26208801D01*
X78523167Y-26229629D01*
X78634905Y-26383421D01*
X78774028Y-26522544D01*
X78933206Y-26638195D01*
X79108512Y-26727518D01*
X79295633Y-26788318D01*
X79338350Y-26795084D01*
X79338350Y-25602112D01*
X79395357Y-25635025D01*
X79522524Y-25669100D01*
X79654176Y-25669100D01*
X79781343Y-25635025D01*
X79838350Y-25602112D01*
X79838350Y-26795083D01*
X79881066Y-26788318D01*
X80068187Y-26727518D01*
X80243493Y-26638195D01*
X80402671Y-26522544D01*
X80541794Y-26383421D01*
X80657447Y-26224241D01*
X80747584Y-26047336D01*
X80795558Y-25996539D01*
X80863379Y-25979744D01*
X80929514Y-26002281D01*
X80968554Y-26047335D01*
X80969465Y-26049124D01*
X80969466Y-26049125D01*
X81058826Y-26224505D01*
X81174522Y-26383746D01*
X81313704Y-26522928D01*
X81472945Y-26638624D01*
X81508459Y-26656719D01*
X81648320Y-26727982D01*
X81648322Y-26727982D01*
X81648325Y-26727984D01*
X81748667Y-26760587D01*
X81835523Y-26788809D01*
X82029928Y-26819600D01*
X82029933Y-26819600D01*
X82226772Y-26819600D01*
X82421176Y-26788809D01*
X82462090Y-26775515D01*
X82608375Y-26727984D01*
X82783755Y-26638624D01*
X82942996Y-26522928D01*
X83082178Y-26383746D01*
X83197874Y-26224505D01*
X83278443Y-26066378D01*
X97632850Y-26066378D01*
X97632850Y-26286821D01*
X97667335Y-26504552D01*
X97735453Y-26714203D01*
X97735454Y-26714206D01*
X97835537Y-26910625D01*
X97965102Y-27088958D01*
X97965106Y-27088963D01*
X98120986Y-27244843D01*
X98120991Y-27244847D01*
X98244268Y-27334412D01*
X98299328Y-27374415D01*
X98427725Y-27439837D01*
X98495743Y-27474495D01*
X98495746Y-27474496D01*
X98582287Y-27502614D01*
X98705399Y-27542615D01*
X98923128Y-27577100D01*
X98923129Y-27577100D01*
X99143571Y-27577100D01*
X99143572Y-27577100D01*
X99361301Y-27542615D01*
X99570956Y-27474495D01*
X99767372Y-27374415D01*
X99945715Y-27244842D01*
X100101592Y-27088965D01*
X100183032Y-26976870D01*
X100238361Y-26934206D01*
X100307974Y-26928227D01*
X100369770Y-26960832D01*
X100383663Y-26976865D01*
X100445555Y-27062052D01*
X100465108Y-27088965D01*
X100620986Y-27244843D01*
X100620991Y-27244847D01*
X100744268Y-27334412D01*
X100799328Y-27374415D01*
X100927725Y-27439837D01*
X100995743Y-27474495D01*
X100995746Y-27474496D01*
X101082287Y-27502614D01*
X101205399Y-27542615D01*
X101423128Y-27577100D01*
X101423129Y-27577100D01*
X101643571Y-27577100D01*
X101643572Y-27577100D01*
X101861301Y-27542615D01*
X102070956Y-27474495D01*
X102267372Y-27374415D01*
X102445715Y-27244842D01*
X102601592Y-27088965D01*
X102683032Y-26976870D01*
X102738361Y-26934206D01*
X102807974Y-26928227D01*
X102869770Y-26960832D01*
X102883663Y-26976865D01*
X102945555Y-27062052D01*
X102965108Y-27088965D01*
X103120986Y-27244843D01*
X103120991Y-27244847D01*
X103244268Y-27334412D01*
X103299328Y-27374415D01*
X103427725Y-27439837D01*
X103495743Y-27474495D01*
X103495746Y-27474496D01*
X103582287Y-27502614D01*
X103705399Y-27542615D01*
X103923128Y-27577100D01*
X103923129Y-27577100D01*
X104143571Y-27577100D01*
X104143572Y-27577100D01*
X104361301Y-27542615D01*
X104570956Y-27474495D01*
X104767372Y-27374415D01*
X104945715Y-27244842D01*
X105101592Y-27088965D01*
X105183032Y-26976870D01*
X105238361Y-26934206D01*
X105307974Y-26928227D01*
X105369770Y-26960832D01*
X105383663Y-26976865D01*
X105445555Y-27062052D01*
X105465108Y-27088965D01*
X105620986Y-27244843D01*
X105620991Y-27244847D01*
X105744268Y-27334412D01*
X105799328Y-27374415D01*
X105927725Y-27439837D01*
X105995743Y-27474495D01*
X105995746Y-27474496D01*
X106082287Y-27502614D01*
X106205399Y-27542615D01*
X106423128Y-27577100D01*
X106423129Y-27577100D01*
X106643571Y-27577100D01*
X106643572Y-27577100D01*
X106861301Y-27542615D01*
X107070956Y-27474495D01*
X107267372Y-27374415D01*
X107445715Y-27244842D01*
X107601592Y-27088965D01*
X107683032Y-26976870D01*
X107738361Y-26934206D01*
X107807974Y-26928227D01*
X107869770Y-26960832D01*
X107883663Y-26976865D01*
X107945555Y-27062052D01*
X107965108Y-27088965D01*
X108120986Y-27244843D01*
X108120991Y-27244847D01*
X108244268Y-27334412D01*
X108299328Y-27374415D01*
X108427725Y-27439837D01*
X108495743Y-27474495D01*
X108495746Y-27474496D01*
X108582287Y-27502614D01*
X108705399Y-27542615D01*
X108923128Y-27577100D01*
X108923129Y-27577100D01*
X109143571Y-27577100D01*
X109143572Y-27577100D01*
X109361301Y-27542615D01*
X109570956Y-27474495D01*
X109767372Y-27374415D01*
X109945715Y-27244842D01*
X110101592Y-27088965D01*
X110183032Y-26976870D01*
X110238361Y-26934206D01*
X110307974Y-26928227D01*
X110369770Y-26960832D01*
X110383663Y-26976865D01*
X110445555Y-27062052D01*
X110465108Y-27088965D01*
X110620986Y-27244843D01*
X110620991Y-27244847D01*
X110744268Y-27334412D01*
X110799328Y-27374415D01*
X110927725Y-27439837D01*
X110995743Y-27474495D01*
X110995746Y-27474496D01*
X111082287Y-27502614D01*
X111205399Y-27542615D01*
X111423128Y-27577100D01*
X111423129Y-27577100D01*
X111643571Y-27577100D01*
X111643572Y-27577100D01*
X111861301Y-27542615D01*
X112070956Y-27474495D01*
X112267372Y-27374415D01*
X112445715Y-27244842D01*
X112601592Y-27088965D01*
X112683032Y-26976870D01*
X112738361Y-26934206D01*
X112807974Y-26928227D01*
X112869770Y-26960832D01*
X112883663Y-26976865D01*
X112945555Y-27062052D01*
X112965108Y-27088965D01*
X113120986Y-27244843D01*
X113120991Y-27244847D01*
X113244268Y-27334412D01*
X113299328Y-27374415D01*
X113427725Y-27439837D01*
X113495743Y-27474495D01*
X113495746Y-27474496D01*
X113582287Y-27502614D01*
X113705399Y-27542615D01*
X113923128Y-27577100D01*
X113923129Y-27577100D01*
X114143571Y-27577100D01*
X114143572Y-27577100D01*
X114361301Y-27542615D01*
X114570956Y-27474495D01*
X114767372Y-27374415D01*
X114945715Y-27244842D01*
X114967140Y-27223416D01*
X115028460Y-27189931D01*
X115098152Y-27194914D01*
X115154087Y-27236785D01*
X115171003Y-27267764D01*
X115189995Y-27318686D01*
X115189999Y-27318693D01*
X115276159Y-27433787D01*
X115276162Y-27433790D01*
X115391256Y-27519950D01*
X115391263Y-27519954D01*
X115525970Y-27570196D01*
X115525977Y-27570198D01*
X115585505Y-27576599D01*
X115585522Y-27576600D01*
X116283350Y-27576600D01*
X116283350Y-26725082D01*
X116301759Y-26735711D01*
X116454359Y-26776600D01*
X116612341Y-26776600D01*
X116764941Y-26735711D01*
X116783350Y-26725082D01*
X116783350Y-27576600D01*
X117481178Y-27576600D01*
X117481194Y-27576599D01*
X117540722Y-27570198D01*
X117540729Y-27570196D01*
X117675436Y-27519954D01*
X117675443Y-27519950D01*
X117790537Y-27433790D01*
X117790540Y-27433787D01*
X117876700Y-27318693D01*
X117876704Y-27318686D01*
X117926946Y-27183979D01*
X117926948Y-27183972D01*
X117933349Y-27124444D01*
X117933350Y-27124427D01*
X117933350Y-26426600D01*
X117081832Y-26426600D01*
X117092461Y-26408191D01*
X117133350Y-26255591D01*
X117133350Y-26097609D01*
X117124982Y-26066378D01*
X121087850Y-26066378D01*
X121087850Y-26286821D01*
X121122335Y-26504552D01*
X121190453Y-26714203D01*
X121190454Y-26714206D01*
X121290537Y-26910625D01*
X121420102Y-27088958D01*
X121420106Y-27088963D01*
X121575986Y-27244843D01*
X121575991Y-27244847D01*
X121699268Y-27334412D01*
X121754328Y-27374415D01*
X121882725Y-27439837D01*
X121950743Y-27474495D01*
X121950746Y-27474496D01*
X122037287Y-27502614D01*
X122160399Y-27542615D01*
X122378128Y-27577100D01*
X122378129Y-27577100D01*
X122598571Y-27577100D01*
X122598572Y-27577100D01*
X122816301Y-27542615D01*
X123025956Y-27474495D01*
X123222372Y-27374415D01*
X123400715Y-27244842D01*
X123556592Y-27088965D01*
X123638032Y-26976870D01*
X123693361Y-26934206D01*
X123762974Y-26928227D01*
X123824770Y-26960832D01*
X123838663Y-26976865D01*
X123900555Y-27062052D01*
X123920108Y-27088965D01*
X124075986Y-27244843D01*
X124075991Y-27244847D01*
X124199268Y-27334412D01*
X124254328Y-27374415D01*
X124382725Y-27439837D01*
X124450743Y-27474495D01*
X124450746Y-27474496D01*
X124537287Y-27502614D01*
X124660399Y-27542615D01*
X124878128Y-27577100D01*
X124878129Y-27577100D01*
X125098571Y-27577100D01*
X125098572Y-27577100D01*
X125316301Y-27542615D01*
X125525956Y-27474495D01*
X125722372Y-27374415D01*
X125900715Y-27244842D01*
X126056592Y-27088965D01*
X126138032Y-26976870D01*
X126193361Y-26934206D01*
X126262974Y-26928227D01*
X126324770Y-26960832D01*
X126338663Y-26976865D01*
X126400555Y-27062052D01*
X126420108Y-27088965D01*
X126575986Y-27244843D01*
X126575991Y-27244847D01*
X126699268Y-27334412D01*
X126754328Y-27374415D01*
X126882725Y-27439837D01*
X126950743Y-27474495D01*
X126950746Y-27474496D01*
X127037287Y-27502614D01*
X127160399Y-27542615D01*
X127378128Y-27577100D01*
X127378129Y-27577100D01*
X127598571Y-27577100D01*
X127598572Y-27577100D01*
X127816301Y-27542615D01*
X128025956Y-27474495D01*
X128222372Y-27374415D01*
X128400715Y-27244842D01*
X128556592Y-27088965D01*
X128638032Y-26976870D01*
X128693361Y-26934206D01*
X128762974Y-26928227D01*
X128824770Y-26960832D01*
X128838663Y-26976865D01*
X128900555Y-27062052D01*
X128920108Y-27088965D01*
X129075986Y-27244843D01*
X129075991Y-27244847D01*
X129199268Y-27334412D01*
X129254328Y-27374415D01*
X129382725Y-27439837D01*
X129450743Y-27474495D01*
X129450746Y-27474496D01*
X129537287Y-27502614D01*
X129660399Y-27542615D01*
X129878128Y-27577100D01*
X129878129Y-27577100D01*
X130098571Y-27577100D01*
X130098572Y-27577100D01*
X130316301Y-27542615D01*
X130525956Y-27474495D01*
X130722372Y-27374415D01*
X130900715Y-27244842D01*
X131056592Y-27088965D01*
X131138032Y-26976870D01*
X131193361Y-26934206D01*
X131262974Y-26928227D01*
X131324770Y-26960832D01*
X131338663Y-26976865D01*
X131400555Y-27062052D01*
X131420108Y-27088965D01*
X131575986Y-27244843D01*
X131575991Y-27244847D01*
X131699268Y-27334412D01*
X131754328Y-27374415D01*
X131882725Y-27439837D01*
X131950743Y-27474495D01*
X131950746Y-27474496D01*
X132037287Y-27502614D01*
X132160399Y-27542615D01*
X132378128Y-27577100D01*
X132378129Y-27577100D01*
X132598571Y-27577100D01*
X132598572Y-27577100D01*
X132816301Y-27542615D01*
X133025956Y-27474495D01*
X133222372Y-27374415D01*
X133400715Y-27244842D01*
X133556592Y-27088965D01*
X133638032Y-26976870D01*
X133693361Y-26934206D01*
X133762974Y-26928227D01*
X133824770Y-26960832D01*
X133838663Y-26976865D01*
X133900555Y-27062052D01*
X133920108Y-27088965D01*
X134075986Y-27244843D01*
X134075991Y-27244847D01*
X134199268Y-27334412D01*
X134254328Y-27374415D01*
X134382725Y-27439837D01*
X134450743Y-27474495D01*
X134450746Y-27474496D01*
X134537287Y-27502614D01*
X134660399Y-27542615D01*
X134878128Y-27577100D01*
X134878129Y-27577100D01*
X135098571Y-27577100D01*
X135098572Y-27577100D01*
X135316301Y-27542615D01*
X135525956Y-27474495D01*
X135722372Y-27374415D01*
X135900715Y-27244842D01*
X136056592Y-27088965D01*
X136138032Y-26976870D01*
X136193361Y-26934206D01*
X136262974Y-26928227D01*
X136324770Y-26960832D01*
X136338663Y-26976865D01*
X136400555Y-27062052D01*
X136420108Y-27088965D01*
X136575986Y-27244843D01*
X136575991Y-27244847D01*
X136699268Y-27334412D01*
X136754328Y-27374415D01*
X136882725Y-27439837D01*
X136950743Y-27474495D01*
X136950746Y-27474496D01*
X137037287Y-27502614D01*
X137160399Y-27542615D01*
X137378128Y-27577100D01*
X137378129Y-27577100D01*
X137598571Y-27577100D01*
X137598572Y-27577100D01*
X137816301Y-27542615D01*
X138025956Y-27474495D01*
X138222372Y-27374415D01*
X138400715Y-27244842D01*
X138422140Y-27223416D01*
X138483460Y-27189931D01*
X138553152Y-27194914D01*
X138609087Y-27236785D01*
X138626003Y-27267764D01*
X138644995Y-27318686D01*
X138644999Y-27318693D01*
X138731159Y-27433787D01*
X138731162Y-27433790D01*
X138846256Y-27519950D01*
X138846263Y-27519954D01*
X138980970Y-27570196D01*
X138980977Y-27570198D01*
X139040505Y-27576599D01*
X139040522Y-27576600D01*
X139738350Y-27576600D01*
X139738350Y-26725082D01*
X139756759Y-26735711D01*
X139909359Y-26776600D01*
X140067341Y-26776600D01*
X140219941Y-26735711D01*
X140238350Y-26725082D01*
X140238350Y-27576600D01*
X140936178Y-27576600D01*
X140936194Y-27576599D01*
X140995722Y-27570198D01*
X140995729Y-27570196D01*
X141130436Y-27519954D01*
X141130443Y-27519950D01*
X141245537Y-27433790D01*
X141245540Y-27433787D01*
X141331700Y-27318693D01*
X141331704Y-27318686D01*
X141381946Y-27183979D01*
X141381948Y-27183972D01*
X141388349Y-27124444D01*
X141388350Y-27124427D01*
X141388350Y-26426600D01*
X140536832Y-26426600D01*
X140547461Y-26408191D01*
X140588350Y-26255591D01*
X140588350Y-26097609D01*
X140547461Y-25945009D01*
X140536832Y-25926600D01*
X141388350Y-25926600D01*
X141388350Y-25228772D01*
X141388349Y-25228755D01*
X141381948Y-25169227D01*
X141381946Y-25169220D01*
X141331704Y-25034513D01*
X141331700Y-25034506D01*
X141245540Y-24919412D01*
X141245537Y-24919409D01*
X141130443Y-24833249D01*
X141130436Y-24833245D01*
X140995729Y-24783003D01*
X140995722Y-24783001D01*
X140936194Y-24776600D01*
X140238350Y-24776600D01*
X140238350Y-25628117D01*
X140219941Y-25617489D01*
X140067341Y-25576600D01*
X139909359Y-25576600D01*
X139756759Y-25617489D01*
X139738350Y-25628117D01*
X139738350Y-24776600D01*
X139040505Y-24776600D01*
X138980977Y-24783001D01*
X138980970Y-24783003D01*
X138846263Y-24833245D01*
X138846256Y-24833249D01*
X138731162Y-24919409D01*
X138731159Y-24919412D01*
X138644999Y-25034506D01*
X138644995Y-25034513D01*
X138626003Y-25085435D01*
X138584132Y-25141369D01*
X138518667Y-25165786D01*
X138450394Y-25150934D01*
X138422140Y-25129783D01*
X138400713Y-25108356D01*
X138400708Y-25108352D01*
X138222375Y-24978787D01*
X138222374Y-24978786D01*
X138222372Y-24978785D01*
X138147024Y-24940393D01*
X138025956Y-24878704D01*
X138025953Y-24878703D01*
X137816302Y-24810585D01*
X137707436Y-24793342D01*
X137598572Y-24776100D01*
X137378128Y-24776100D01*
X137305551Y-24787595D01*
X137160397Y-24810585D01*
X136950746Y-24878703D01*
X136950743Y-24878704D01*
X136754324Y-24978787D01*
X136575991Y-25108352D01*
X136575986Y-25108356D01*
X136420106Y-25264236D01*
X136420102Y-25264241D01*
X136338668Y-25376327D01*
X136283339Y-25418993D01*
X136213725Y-25424972D01*
X136151930Y-25392367D01*
X136138032Y-25376327D01*
X136056597Y-25264241D01*
X136056593Y-25264236D01*
X135900713Y-25108356D01*
X135900708Y-25108352D01*
X135722375Y-24978787D01*
X135722374Y-24978786D01*
X135722372Y-24978785D01*
X135647024Y-24940393D01*
X135525956Y-24878704D01*
X135525953Y-24878703D01*
X135316302Y-24810585D01*
X135207436Y-24793342D01*
X135098572Y-24776100D01*
X134878128Y-24776100D01*
X134805551Y-24787595D01*
X134660397Y-24810585D01*
X134450746Y-24878703D01*
X134450743Y-24878704D01*
X134254324Y-24978787D01*
X134075991Y-25108352D01*
X134075986Y-25108356D01*
X133920106Y-25264236D01*
X133920102Y-25264241D01*
X133838668Y-25376327D01*
X133783339Y-25418993D01*
X133713725Y-25424972D01*
X133651930Y-25392367D01*
X133638032Y-25376327D01*
X133556597Y-25264241D01*
X133556593Y-25264236D01*
X133400713Y-25108356D01*
X133400708Y-25108352D01*
X133222375Y-24978787D01*
X133222374Y-24978786D01*
X133222372Y-24978785D01*
X133147024Y-24940393D01*
X133025956Y-24878704D01*
X133025953Y-24878703D01*
X132816302Y-24810585D01*
X132707436Y-24793342D01*
X132598572Y-24776100D01*
X132378128Y-24776100D01*
X132305551Y-24787595D01*
X132160397Y-24810585D01*
X131950746Y-24878703D01*
X131950743Y-24878704D01*
X131754324Y-24978787D01*
X131575991Y-25108352D01*
X131575986Y-25108356D01*
X131420106Y-25264236D01*
X131420102Y-25264241D01*
X131338668Y-25376327D01*
X131283339Y-25418993D01*
X131213725Y-25424972D01*
X131151930Y-25392367D01*
X131138032Y-25376327D01*
X131056597Y-25264241D01*
X131056593Y-25264236D01*
X130900713Y-25108356D01*
X130900708Y-25108352D01*
X130722375Y-24978787D01*
X130722374Y-24978786D01*
X130722372Y-24978785D01*
X130647024Y-24940393D01*
X130525956Y-24878704D01*
X130525953Y-24878703D01*
X130316302Y-24810585D01*
X130207436Y-24793342D01*
X130098572Y-24776100D01*
X129878128Y-24776100D01*
X129805551Y-24787595D01*
X129660397Y-24810585D01*
X129450746Y-24878703D01*
X129450743Y-24878704D01*
X129254324Y-24978787D01*
X129075991Y-25108352D01*
X129075986Y-25108356D01*
X128920106Y-25264236D01*
X128920102Y-25264241D01*
X128838668Y-25376327D01*
X128783339Y-25418993D01*
X128713725Y-25424972D01*
X128651930Y-25392367D01*
X128638032Y-25376327D01*
X128556597Y-25264241D01*
X128556593Y-25264236D01*
X128400713Y-25108356D01*
X128400708Y-25108352D01*
X128222375Y-24978787D01*
X128222374Y-24978786D01*
X128222372Y-24978785D01*
X128147024Y-24940393D01*
X128025956Y-24878704D01*
X128025953Y-24878703D01*
X127816302Y-24810585D01*
X127707436Y-24793342D01*
X127598572Y-24776100D01*
X127378128Y-24776100D01*
X127305551Y-24787595D01*
X127160397Y-24810585D01*
X126950746Y-24878703D01*
X126950743Y-24878704D01*
X126754324Y-24978787D01*
X126575991Y-25108352D01*
X126575986Y-25108356D01*
X126420106Y-25264236D01*
X126420102Y-25264241D01*
X126338668Y-25376327D01*
X126283339Y-25418993D01*
X126213725Y-25424972D01*
X126151930Y-25392367D01*
X126138032Y-25376327D01*
X126056597Y-25264241D01*
X126056593Y-25264236D01*
X125900713Y-25108356D01*
X125900708Y-25108352D01*
X125722375Y-24978787D01*
X125722374Y-24978786D01*
X125722372Y-24978785D01*
X125647024Y-24940393D01*
X125525956Y-24878704D01*
X125525953Y-24878703D01*
X125316302Y-24810585D01*
X125207436Y-24793342D01*
X125098572Y-24776100D01*
X124878128Y-24776100D01*
X124805551Y-24787595D01*
X124660397Y-24810585D01*
X124450746Y-24878703D01*
X124450743Y-24878704D01*
X124254324Y-24978787D01*
X124075991Y-25108352D01*
X124075986Y-25108356D01*
X123920106Y-25264236D01*
X123920102Y-25264241D01*
X123838668Y-25376327D01*
X123783339Y-25418993D01*
X123713725Y-25424972D01*
X123651930Y-25392367D01*
X123638032Y-25376327D01*
X123556597Y-25264241D01*
X123556593Y-25264236D01*
X123400713Y-25108356D01*
X123400708Y-25108352D01*
X123222375Y-24978787D01*
X123222374Y-24978786D01*
X123222372Y-24978785D01*
X123147024Y-24940393D01*
X123025956Y-24878704D01*
X123025953Y-24878703D01*
X122816302Y-24810585D01*
X122707436Y-24793342D01*
X122598572Y-24776100D01*
X122378128Y-24776100D01*
X122305551Y-24787595D01*
X122160397Y-24810585D01*
X121950746Y-24878703D01*
X121950743Y-24878704D01*
X121754324Y-24978787D01*
X121575991Y-25108352D01*
X121575986Y-25108356D01*
X121420106Y-25264236D01*
X121420102Y-25264241D01*
X121290537Y-25442574D01*
X121190454Y-25638993D01*
X121190453Y-25638996D01*
X121122335Y-25848647D01*
X121087850Y-26066378D01*
X117124982Y-26066378D01*
X117092461Y-25945009D01*
X117081832Y-25926600D01*
X117933350Y-25926600D01*
X117933350Y-25228772D01*
X117933349Y-25228755D01*
X117926948Y-25169227D01*
X117926946Y-25169220D01*
X117876704Y-25034513D01*
X117876700Y-25034506D01*
X117790540Y-24919412D01*
X117790537Y-24919409D01*
X117675443Y-24833249D01*
X117675436Y-24833245D01*
X117540729Y-24783003D01*
X117540722Y-24783001D01*
X117481194Y-24776600D01*
X116783350Y-24776600D01*
X116783350Y-25628117D01*
X116764941Y-25617489D01*
X116612341Y-25576600D01*
X116454359Y-25576600D01*
X116301759Y-25617489D01*
X116283350Y-25628117D01*
X116283350Y-24776600D01*
X115585505Y-24776600D01*
X115525977Y-24783001D01*
X115525970Y-24783003D01*
X115391263Y-24833245D01*
X115391256Y-24833249D01*
X115276162Y-24919409D01*
X115276159Y-24919412D01*
X115189999Y-25034506D01*
X115189995Y-25034513D01*
X115171003Y-25085435D01*
X115129132Y-25141369D01*
X115063667Y-25165786D01*
X114995394Y-25150934D01*
X114967140Y-25129783D01*
X114945713Y-25108356D01*
X114945708Y-25108352D01*
X114767375Y-24978787D01*
X114767374Y-24978786D01*
X114767372Y-24978785D01*
X114692024Y-24940393D01*
X114570956Y-24878704D01*
X114570953Y-24878703D01*
X114361302Y-24810585D01*
X114252436Y-24793342D01*
X114143572Y-24776100D01*
X113923128Y-24776100D01*
X113850551Y-24787595D01*
X113705397Y-24810585D01*
X113495746Y-24878703D01*
X113495743Y-24878704D01*
X113299324Y-24978787D01*
X113120991Y-25108352D01*
X113120986Y-25108356D01*
X112965106Y-25264236D01*
X112965102Y-25264241D01*
X112883668Y-25376327D01*
X112828339Y-25418993D01*
X112758725Y-25424972D01*
X112696930Y-25392367D01*
X112683032Y-25376327D01*
X112601597Y-25264241D01*
X112601593Y-25264236D01*
X112445713Y-25108356D01*
X112445708Y-25108352D01*
X112267375Y-24978787D01*
X112267374Y-24978786D01*
X112267372Y-24978785D01*
X112192024Y-24940393D01*
X112070956Y-24878704D01*
X112070953Y-24878703D01*
X111861302Y-24810585D01*
X111752436Y-24793342D01*
X111643572Y-24776100D01*
X111423128Y-24776100D01*
X111350551Y-24787595D01*
X111205397Y-24810585D01*
X110995746Y-24878703D01*
X110995743Y-24878704D01*
X110799324Y-24978787D01*
X110620991Y-25108352D01*
X110620986Y-25108356D01*
X110465106Y-25264236D01*
X110465102Y-25264241D01*
X110383668Y-25376327D01*
X110328339Y-25418993D01*
X110258725Y-25424972D01*
X110196930Y-25392367D01*
X110183032Y-25376327D01*
X110101597Y-25264241D01*
X110101593Y-25264236D01*
X109945713Y-25108356D01*
X109945708Y-25108352D01*
X109767375Y-24978787D01*
X109767374Y-24978786D01*
X109767372Y-24978785D01*
X109692024Y-24940393D01*
X109570956Y-24878704D01*
X109570953Y-24878703D01*
X109361302Y-24810585D01*
X109252436Y-24793342D01*
X109143572Y-24776100D01*
X108923128Y-24776100D01*
X108850551Y-24787595D01*
X108705397Y-24810585D01*
X108495746Y-24878703D01*
X108495743Y-24878704D01*
X108299324Y-24978787D01*
X108120991Y-25108352D01*
X108120986Y-25108356D01*
X107965106Y-25264236D01*
X107965102Y-25264241D01*
X107883668Y-25376327D01*
X107828339Y-25418993D01*
X107758725Y-25424972D01*
X107696930Y-25392367D01*
X107683032Y-25376327D01*
X107601597Y-25264241D01*
X107601593Y-25264236D01*
X107445713Y-25108356D01*
X107445708Y-25108352D01*
X107267375Y-24978787D01*
X107267374Y-24978786D01*
X107267372Y-24978785D01*
X107192024Y-24940393D01*
X107070956Y-24878704D01*
X107070953Y-24878703D01*
X106861302Y-24810585D01*
X106752436Y-24793342D01*
X106643572Y-24776100D01*
X106423128Y-24776100D01*
X106350551Y-24787595D01*
X106205397Y-24810585D01*
X105995746Y-24878703D01*
X105995743Y-24878704D01*
X105799324Y-24978787D01*
X105620991Y-25108352D01*
X105620986Y-25108356D01*
X105465106Y-25264236D01*
X105465102Y-25264241D01*
X105383668Y-25376327D01*
X105328339Y-25418993D01*
X105258725Y-25424972D01*
X105196930Y-25392367D01*
X105183032Y-25376327D01*
X105101597Y-25264241D01*
X105101593Y-25264236D01*
X104945713Y-25108356D01*
X104945708Y-25108352D01*
X104767375Y-24978787D01*
X104767374Y-24978786D01*
X104767372Y-24978785D01*
X104692024Y-24940393D01*
X104570956Y-24878704D01*
X104570953Y-24878703D01*
X104361302Y-24810585D01*
X104252436Y-24793342D01*
X104143572Y-24776100D01*
X103923128Y-24776100D01*
X103850551Y-24787595D01*
X103705397Y-24810585D01*
X103495746Y-24878703D01*
X103495743Y-24878704D01*
X103299324Y-24978787D01*
X103120991Y-25108352D01*
X103120986Y-25108356D01*
X102965106Y-25264236D01*
X102965102Y-25264241D01*
X102883668Y-25376327D01*
X102828339Y-25418993D01*
X102758725Y-25424972D01*
X102696930Y-25392367D01*
X102683032Y-25376327D01*
X102601597Y-25264241D01*
X102601593Y-25264236D01*
X102445713Y-25108356D01*
X102445708Y-25108352D01*
X102267375Y-24978787D01*
X102267374Y-24978786D01*
X102267372Y-24978785D01*
X102192024Y-24940393D01*
X102070956Y-24878704D01*
X102070953Y-24878703D01*
X101861302Y-24810585D01*
X101752436Y-24793342D01*
X101643572Y-24776100D01*
X101423128Y-24776100D01*
X101350551Y-24787595D01*
X101205397Y-24810585D01*
X100995746Y-24878703D01*
X100995743Y-24878704D01*
X100799324Y-24978787D01*
X100620991Y-25108352D01*
X100620986Y-25108356D01*
X100465106Y-25264236D01*
X100465102Y-25264241D01*
X100383668Y-25376327D01*
X100328339Y-25418993D01*
X100258725Y-25424972D01*
X100196930Y-25392367D01*
X100183032Y-25376327D01*
X100101597Y-25264241D01*
X100101593Y-25264236D01*
X99945713Y-25108356D01*
X99945708Y-25108352D01*
X99767375Y-24978787D01*
X99767374Y-24978786D01*
X99767372Y-24978785D01*
X99692024Y-24940393D01*
X99570956Y-24878704D01*
X99570953Y-24878703D01*
X99361302Y-24810585D01*
X99252436Y-24793342D01*
X99143572Y-24776100D01*
X98923128Y-24776100D01*
X98850551Y-24787595D01*
X98705397Y-24810585D01*
X98495746Y-24878703D01*
X98495743Y-24878704D01*
X98299324Y-24978787D01*
X98120991Y-25108352D01*
X98120986Y-25108356D01*
X97965106Y-25264236D01*
X97965102Y-25264241D01*
X97835537Y-25442574D01*
X97735454Y-25638993D01*
X97735453Y-25638996D01*
X97667335Y-25848647D01*
X97632850Y-26066378D01*
X83278443Y-26066378D01*
X83287234Y-26049125D01*
X83348059Y-25861926D01*
X83356497Y-25808649D01*
X83378850Y-25667522D01*
X83378850Y-24670677D01*
X83348059Y-24476273D01*
X83287232Y-24289070D01*
X83217002Y-24151237D01*
X83197874Y-24113695D01*
X83082178Y-23954454D01*
X82942996Y-23815272D01*
X82783755Y-23699576D01*
X82608379Y-23610217D01*
X82421176Y-23549390D01*
X82226772Y-23518600D01*
X82226767Y-23518600D01*
X82029933Y-23518600D01*
X82029928Y-23518600D01*
X81835523Y-23549390D01*
X81648320Y-23610217D01*
X81472944Y-23699576D01*
X81382091Y-23765585D01*
X81313704Y-23815272D01*
X81313702Y-23815274D01*
X81313701Y-23815274D01*
X81174524Y-23954451D01*
X81174524Y-23954452D01*
X81174522Y-23954454D01*
X81162330Y-23971235D01*
X81058826Y-24113694D01*
X80968554Y-24290864D01*
X80920579Y-24341660D01*
X80852758Y-24358455D01*
X80786624Y-24335918D01*
X80747584Y-24290864D01*
X80657445Y-24113956D01*
X80541794Y-23954778D01*
X80402671Y-23815655D01*
X80243493Y-23700004D01*
X80068185Y-23610681D01*
X79881055Y-23549878D01*
X79838350Y-23543114D01*
X79838350Y-24736088D01*
X79781343Y-24703175D01*
X79654176Y-24669100D01*
X79522524Y-24669100D01*
X79395357Y-24703175D01*
X79338350Y-24736088D01*
X79338350Y-23543114D01*
X79338349Y-23543114D01*
X79295644Y-23549878D01*
X79108514Y-23610681D01*
X78933206Y-23700004D01*
X78774028Y-23815655D01*
X78634905Y-23954778D01*
X78523167Y-24108571D01*
X78467836Y-24151237D01*
X78398223Y-24157215D01*
X78336428Y-24124609D01*
X78302071Y-24063770D01*
X78298849Y-24035685D01*
X78298849Y-23971229D01*
X78298848Y-23971223D01*
X78298847Y-23971216D01*
X78292441Y-23911617D01*
X78256507Y-23815274D01*
X78242147Y-23776771D01*
X78242143Y-23776764D01*
X78155897Y-23661555D01*
X78155894Y-23661552D01*
X78040685Y-23575306D01*
X78040678Y-23575302D01*
X77905832Y-23525008D01*
X77905833Y-23525008D01*
X77846233Y-23518601D01*
X77846231Y-23518600D01*
X77846223Y-23518600D01*
X77846214Y-23518600D01*
X76250479Y-23518600D01*
X76250473Y-23518601D01*
X76190866Y-23525008D01*
X76056021Y-23575302D01*
X76056014Y-23575306D01*
X75940805Y-23661552D01*
X75940802Y-23661555D01*
X75854556Y-23776764D01*
X75854552Y-23776771D01*
X75804258Y-23911617D01*
X75797851Y-23971216D01*
X75797851Y-23971223D01*
X75797850Y-23971235D01*
X59168350Y-23971235D01*
X59168350Y-22648735D01*
X146675350Y-22648735D01*
X146675350Y-24544470D01*
X146675351Y-24544476D01*
X146681758Y-24604083D01*
X146732052Y-24738928D01*
X146732056Y-24738935D01*
X146818302Y-24854144D01*
X146818305Y-24854147D01*
X146933514Y-24940393D01*
X146933521Y-24940397D01*
X147013430Y-24970201D01*
X147069364Y-25012072D01*
X147093781Y-25077536D01*
X147078930Y-25145809D01*
X147057779Y-25174063D01*
X147007606Y-25224236D01*
X147007602Y-25224241D01*
X146878037Y-25402574D01*
X146777954Y-25598993D01*
X146777953Y-25598996D01*
X146709835Y-25808647D01*
X146675350Y-26026378D01*
X146675350Y-26246821D01*
X146709835Y-26464552D01*
X146777953Y-26674203D01*
X146777954Y-26674206D01*
X146878037Y-26870625D01*
X147007602Y-27048958D01*
X147007606Y-27048963D01*
X147163486Y-27204843D01*
X147163491Y-27204847D01*
X147218543Y-27244844D01*
X147341828Y-27334415D01*
X147420326Y-27374412D01*
X147538243Y-27434495D01*
X147538246Y-27434496D01*
X147643071Y-27468555D01*
X147747899Y-27502615D01*
X147965628Y-27537100D01*
X147965629Y-27537100D01*
X148186071Y-27537100D01*
X148186072Y-27537100D01*
X148403801Y-27502615D01*
X148613456Y-27434495D01*
X148809872Y-27334415D01*
X148988215Y-27204842D01*
X149144092Y-27048965D01*
X149273665Y-26870622D01*
X149373745Y-26674206D01*
X149441865Y-26464551D01*
X149476350Y-26246822D01*
X149476350Y-26026378D01*
X149441865Y-25808649D01*
X149405420Y-25696481D01*
X149373746Y-25598996D01*
X149373745Y-25598993D01*
X149285075Y-25424972D01*
X149273665Y-25402578D01*
X149173158Y-25264241D01*
X149144097Y-25224241D01*
X149144093Y-25224236D01*
X149093921Y-25174064D01*
X149060436Y-25112741D01*
X149065420Y-25043049D01*
X149107292Y-24987116D01*
X149138270Y-24970201D01*
X149218176Y-24940398D01*
X149218176Y-24940397D01*
X149218181Y-24940396D01*
X149333396Y-24854146D01*
X149419646Y-24738931D01*
X149469941Y-24604083D01*
X149476350Y-24544473D01*
X149476349Y-22648728D01*
X149469941Y-22589117D01*
X149419646Y-22454269D01*
X149419645Y-22454268D01*
X149419643Y-22454264D01*
X149333397Y-22339055D01*
X149333394Y-22339052D01*
X149218185Y-22252806D01*
X149218178Y-22252802D01*
X149083332Y-22202508D01*
X149083333Y-22202508D01*
X149023733Y-22196101D01*
X149023731Y-22196100D01*
X149023723Y-22196100D01*
X149023714Y-22196100D01*
X147127979Y-22196100D01*
X147127973Y-22196101D01*
X147068366Y-22202508D01*
X146933521Y-22252802D01*
X146933514Y-22252806D01*
X146818305Y-22339052D01*
X146818302Y-22339055D01*
X146732056Y-22454264D01*
X146732052Y-22454271D01*
X146681758Y-22589117D01*
X146675351Y-22648716D01*
X146675351Y-22648723D01*
X146675350Y-22648735D01*
X59168350Y-22648735D01*
X59168350Y-19283027D01*
X59168666Y-19274181D01*
X59173063Y-19212702D01*
X59185891Y-19033330D01*
X59188409Y-19015826D01*
X59238793Y-18784212D01*
X59243770Y-18767259D01*
X59326603Y-18545173D01*
X59333952Y-18529083D01*
X59447542Y-18321056D01*
X59457106Y-18306173D01*
X59528674Y-18210567D01*
X59599154Y-18116414D01*
X59610722Y-18103064D01*
X59778332Y-17935449D01*
X59791684Y-17923879D01*
X59981448Y-17781820D01*
X59996317Y-17772265D01*
X60204347Y-17658668D01*
X60220435Y-17651320D01*
X60442514Y-17568484D01*
X60459480Y-17563502D01*
X60691091Y-17513113D01*
X60708600Y-17510596D01*
X60948745Y-17493416D01*
X60957593Y-17493100D01*
X159085249Y-17493100D01*
X159085293Y-17493102D01*
G37*
%TD.AperFunction*%
%TD*%
M02*
