%TF.GenerationSoftware,KiCad,Pcbnew,9.0.3*%
%TF.CreationDate,2026-03-25T20:29:38-04:00*%
%TF.ProjectId,fpvc-power-distribution,66707663-2d70-46f7-9765-722d64697374,1*%
%TF.SameCoordinates,Original*%
%TF.FileFunction,Paste,Top*%
%TF.FilePolarity,Positive*%
%FSLAX46Y46*%
G04 Gerber Fmt 4.6, Leading zero omitted, Abs format (unit mm)*
G04 Created by KiCad (PCBNEW 9.0.3) date 2026-03-25 20:29:38*
%MOMM*%
%LPD*%
G01*
G04 APERTURE LIST*
G04 Aperture macros list*
%AMRoundRect*
0 Rectangle with rounded corners*
0 $1 Rounding radius*
0 $2 $3 $4 $5 $6 $7 $8 $9 X,Y pos of 4 corners*
0 Add a 4 corners polygon primitive as box body*
4,1,4,$2,$3,$4,$5,$6,$7,$8,$9,$2,$3,0*
0 Add four circle primitives for the rounded corners*
1,1,$1+$1,$2,$3*
1,1,$1+$1,$4,$5*
1,1,$1+$1,$6,$7*
1,1,$1+$1,$8,$9*
0 Add four rect primitives between the rounded corners*
20,1,$1+$1,$2,$3,$4,$5,0*
20,1,$1+$1,$4,$5,$6,$7,0*
20,1,$1+$1,$6,$7,$8,$9,0*
20,1,$1+$1,$8,$9,$2,$3,0*%
G04 Aperture macros list end*
%ADD10RoundRect,0.250000X0.350000X0.450000X-0.350000X0.450000X-0.350000X-0.450000X0.350000X-0.450000X0*%
%ADD11RoundRect,0.250000X1.750000X1.000000X-1.750000X1.000000X-1.750000X-1.000000X1.750000X-1.000000X0*%
%ADD12RoundRect,0.250000X1.000000X-1.750000X1.000000X1.750000X-1.000000X1.750000X-1.000000X-1.750000X0*%
%ADD13RoundRect,0.250000X0.475000X-0.337500X0.475000X0.337500X-0.475000X0.337500X-0.475000X-0.337500X0*%
%ADD14RoundRect,0.250000X0.450000X-0.350000X0.450000X0.350000X-0.450000X0.350000X-0.450000X-0.350000X0*%
%ADD15RoundRect,0.250000X-1.000000X1.750000X-1.000000X-1.750000X1.000000X-1.750000X1.000000X1.750000X0*%
%ADD16RoundRect,0.250000X-0.350000X-0.450000X0.350000X-0.450000X0.350000X0.450000X-0.350000X0.450000X0*%
%ADD17RoundRect,0.250000X-0.450000X0.350000X-0.450000X-0.350000X0.450000X-0.350000X0.450000X0.350000X0*%
%ADD18RoundRect,0.250000X-0.475000X0.337500X-0.475000X-0.337500X0.475000X-0.337500X0.475000X0.337500X0*%
%ADD19RoundRect,0.250001X0.799999X2.474999X-0.799999X2.474999X-0.799999X-2.474999X0.799999X-2.474999X0*%
%ADD20RoundRect,0.250000X0.337500X0.475000X-0.337500X0.475000X-0.337500X-0.475000X0.337500X-0.475000X0*%
G04 APERTURE END LIST*
D10*
%TO.C,R2*%
X76260650Y-73279000D03*
X78260650Y-73279000D03*
%TD*%
D11*
%TO.C,C4*%
X64380850Y-22961600D03*
X70480850Y-22961600D03*
%TD*%
D12*
%TO.C,C6*%
X90925850Y-20036600D03*
X90925850Y-26136600D03*
%TD*%
D13*
%TO.C,C5*%
X137153850Y-35005100D03*
X137153850Y-37080100D03*
%TD*%
D14*
%TO.C,R13*%
X144900850Y-39741600D03*
X144900850Y-41741600D03*
%TD*%
D15*
%TO.C,C3*%
X141090850Y-50776600D03*
X141090850Y-44676600D03*
%TD*%
D16*
%TO.C,R9*%
X122405850Y-80746600D03*
X120405850Y-80746600D03*
%TD*%
D10*
%TO.C,R4*%
X76209850Y-54686200D03*
X78209850Y-54686200D03*
%TD*%
D17*
%TO.C,R12*%
X144900850Y-60156600D03*
X144900850Y-58156600D03*
%TD*%
D10*
%TO.C,R3*%
X78191050Y-52400200D03*
X80191050Y-52400200D03*
%TD*%
%TO.C,R5*%
X78038650Y-31623000D03*
X80038650Y-31623000D03*
%TD*%
%TO.C,R1*%
X78241850Y-70993000D03*
X80241850Y-70993000D03*
%TD*%
%TO.C,R11*%
X148345850Y-20421600D03*
X150345850Y-20421600D03*
%TD*%
D13*
%TO.C,C2*%
X137915850Y-61929100D03*
X137915850Y-64004100D03*
%TD*%
D10*
%TO.C,R6*%
X76057450Y-33909000D03*
X78057450Y-33909000D03*
%TD*%
D18*
%TO.C,C9*%
X125215850Y-94665800D03*
X125215850Y-92590800D03*
%TD*%
D19*
%TO.C,F3*%
X80694450Y-66167000D03*
X87644450Y-66167000D03*
%TD*%
D20*
%TO.C,C7*%
X96640850Y-29946600D03*
X98715850Y-29946600D03*
%TD*%
D11*
%TO.C,C1*%
X138040850Y-73126600D03*
X144140850Y-73126600D03*
%TD*%
D16*
%TO.C,R10*%
X111991850Y-80746600D03*
X109991850Y-80746600D03*
%TD*%
D15*
%TO.C,C8*%
X130930850Y-93956600D03*
X130930850Y-87856600D03*
%TD*%
D19*
%TO.C,F2*%
X80694450Y-84759800D03*
X87644450Y-84759800D03*
%TD*%
M02*
