M48
; DRILL file {KiCad 9.0.3} date 2026-03-25T20:29:36-0400
; FORMAT={-:-/ absolute / inch / decimal}
; #@! TF.CreationDate,2026-03-25T20:29:36-04:00
; #@! TF.GenerationSoftware,Kicad,Pcbnew,9.0.3
; #@! TF.FileFunction,Plated,1,2,PTH
FMAT,2
INCH
; #@! TA.AperFunction,Plated,PTH,ViaDrill
T1C0.0118
; #@! TA.AperFunction,Plated,PTH,ViaDrill
T2C0.0157
; #@! TA.AperFunction,Plated,PTH,ViaDrill
T3C0.0236
; #@! TA.AperFunction,Plated,PTH,ComponentDrill
T4C0.0354
; #@! TA.AperFunction,Plated,PTH,ComponentDrill
T5C0.0394
; #@! TA.AperFunction,Plated,PTH,ComponentDrill
T6C0.0433
; #@! TA.AperFunction,Plated,PTH,ComponentDrill
T7C0.0472
; #@! TA.AperFunction,Plated,PTH,ComponentDrill
T8C0.0512
; #@! TA.AperFunction,Plated,PTH,ComponentDrill
T9C0.0700
; #@! TA.AperFunction,Plated,PTH,ComponentDrill
T10C0.0701
; #@! TA.AperFunction,Plated,PTH,ComponentDrill
T11C0.0860
%
G90
G05
T1
X3.9388Y-2.795
X4.4895Y-2.239
T2
X2.4382Y-0.7671
X2.4382Y-1.0671
X2.4382Y-1.1671
X2.4382Y-1.2671
X2.4382Y-1.3671
X2.4382Y-1.4671
X2.4382Y-1.5671
X2.4382Y-1.6671
X2.4382Y-1.7671
X2.4382Y-1.8671
X2.4382Y-1.9671
X2.4382Y-2.0671
X2.4382Y-2.1671
X2.4382Y-2.2671
X2.4382Y-2.3671
X2.4382Y-2.4671
X2.4382Y-2.5671
X2.4382Y-2.6671
X2.4382Y-2.7671
X2.4382Y-2.8671
X2.4382Y-2.9671
X2.4382Y-3.0671
X2.4382Y-3.1671
X2.4382Y-3.2671
X2.4382Y-3.3671
X2.4382Y-3.4671
X2.4382Y-3.5671
X2.4382Y-3.6671
X2.4382Y-3.7671
X2.5382Y-0.7671
X2.5382Y-1.0671
X2.5382Y-1.1671
X2.5382Y-1.4671
X2.5382Y-1.5671
X2.5382Y-1.6671
X2.5382Y-1.7671
X2.5382Y-1.8671
X2.5382Y-1.9671
X2.5382Y-2.0671
X2.5382Y-2.1671
X2.5382Y-2.2671
X2.5382Y-2.3671
X2.5382Y-2.4671
X2.5382Y-2.5671
X2.5382Y-2.6671
X2.5382Y-2.7671
X2.5382Y-2.8671
X2.5382Y-2.9671
X2.5382Y-3.0671
X2.5382Y-3.1671
X2.5382Y-3.2671
X2.5382Y-3.3671
X2.5382Y-3.4671
X2.5382Y-3.6671
X2.5382Y-3.7671
X2.6382Y-0.7671
X2.6382Y-1.0671
X2.6382Y-1.1671
X2.6382Y-1.4671
X2.6382Y-1.7671
X2.6382Y-1.8671
X2.6382Y-2.0671
X2.6382Y-2.1671
X2.6382Y-2.3671
X2.6382Y-2.4671
X2.6382Y-2.6671
X2.6382Y-2.7671
X2.6382Y-3.0671
X2.6382Y-3.1671
X2.6382Y-3.3671
X2.6382Y-3.7671
X2.6898Y-1.619
X2.6898Y-1.949
X2.6898Y-2.279
X2.6898Y-2.589
X2.6898Y-2.919
X2.6898Y-3.249
X2.7382Y-0.7671
X2.7382Y-1.0671
X2.7382Y-1.1671
X2.7382Y-1.3671
X2.7382Y-3.4671
X2.7382Y-3.6671
X2.7382Y-3.7671
X2.7398Y-1.529
X2.7498Y-2.679
X2.7498Y-3.009
X2.7498Y-3.339
X2.7798Y-0.999
X2.7798Y-1.719
X2.7798Y-1.859
X2.7798Y-2.049
X2.7798Y-2.169
X2.7798Y-2.369
X2.7798Y-2.499
X2.7798Y-2.829
X2.7798Y-3.159
X2.8382Y-0.7671
X2.8382Y-1.0671
X2.8382Y-1.1671
X2.8382Y-1.2671
X2.8382Y-1.3671
X2.8382Y-3.5671
X2.8382Y-3.6671
X2.8382Y-3.7671
X2.9382Y-0.7671
X2.9382Y-1.0671
X2.9382Y-1.1671
X2.9382Y-1.2671
X2.9382Y-1.6671
X2.9382Y-2.0671
X2.9382Y-2.1671
X2.9382Y-2.3671
X2.9382Y-2.4671
X2.9382Y-2.5671
X2.9382Y-2.7671
X2.9382Y-2.8671
X2.9382Y-3.1671
X2.9382Y-3.7671
X3.0198Y-1.539
X3.0298Y-2.359
X3.0298Y-2.579
X3.0298Y-3.089
X3.0298Y-3.299
X3.0334Y-0.879
X3.0382Y-0.7671
X3.0382Y-1.6671
X3.0382Y-2.4671
X3.0382Y-3.1671
X3.0382Y-3.7671
X3.0398Y-1.939
X3.1382Y-0.7671
X3.1382Y-0.8671
X3.1382Y-3.7671
X3.1598Y-1.929
X3.1798Y-1.629
X3.1798Y-2.459
X3.1798Y-3.199
X3.1798Y-3.489
X3.2382Y-0.7671
X3.2382Y-3.7671
X3.2398Y-0.879
X3.3382Y-0.7671
X3.3382Y-0.8671
X3.3382Y-0.9671
X3.3382Y-1.3671
X3.3382Y-1.4671
X3.3382Y-1.5671
X3.3382Y-1.6671
X3.3382Y-2.1671
X3.3382Y-2.2671
X3.3382Y-2.3671
X3.3382Y-2.4671
X3.3382Y-2.5671
X3.3382Y-2.6671
X3.3382Y-2.8671
X3.3382Y-2.9671
X3.3382Y-3.0671
X3.3382Y-3.1671
X3.3382Y-3.2671
X3.3382Y-3.3671
X3.3382Y-3.4671
X3.3382Y-3.7671
X3.3498Y-1.779
X3.3498Y-1.929
X3.4382Y-0.7671
X3.4382Y-0.8671
X3.4382Y-0.9671
X3.4382Y-1.1671
X3.4382Y-1.4671
X3.4382Y-1.5671
X3.4382Y-1.6671
X3.4382Y-1.7671
X3.4382Y-1.8671
X3.4382Y-1.9671
X3.4382Y-2.1671
X3.4382Y-2.2671
X3.4382Y-2.3671
X3.4382Y-2.8671
X3.4382Y-2.9671
X3.4382Y-3.0671
X3.4382Y-3.7671
X3.4498Y-2.449
X3.4498Y-2.739
X3.4498Y-3.189
X3.4498Y-3.489
X3.5298Y-2.499
X3.5298Y-2.559
X3.5298Y-3.249
X3.5382Y-1.5671
X3.5382Y-1.6671
X3.5382Y-2.1671
X3.5382Y-2.2671
X3.5382Y-2.3671
X3.5382Y-2.8671
X3.5382Y-2.9671
X3.5382Y-3.0671
X3.5382Y-3.1671
X3.5382Y-3.4671
X3.5382Y-3.7671
X3.5498Y-1.779
X3.5498Y-1.929
X3.5798Y-1.139
X3.6382Y-1.3671
X3.6382Y-2.1671
X3.6382Y-2.2671
X3.6382Y-2.3671
X3.6382Y-2.4671
X3.6382Y-2.8671
X3.6382Y-2.9671
X3.6382Y-3.0671
X3.6382Y-3.1671
X3.6382Y-3.4671
X3.6382Y-3.7671
X3.7382Y-0.7671
X3.7382Y-0.8671
X3.7382Y-0.9671
X3.7382Y-1.1671
X3.7382Y-1.3671
X3.7382Y-1.5671
X3.7382Y-1.6671
X3.7382Y-2.1671
X3.7382Y-2.3671
X3.7382Y-2.4671
X3.7382Y-2.8671
X3.7382Y-3.0671
X3.7382Y-3.1671
X3.7382Y-3.4671
X3.7382Y-3.7671
X3.7398Y-1.779
X3.8298Y-1.089
X3.8382Y-0.7671
X3.8382Y-0.8671
X3.8382Y-1.5671
X3.8382Y-1.6671
X3.8382Y-1.7671
X3.8382Y-2.4671
X3.8382Y-2.8671
X3.8382Y-3.1671
X3.8382Y-3.4671
X3.8382Y-3.7671
X3.8398Y-0.969
X3.9382Y-0.7671
X3.9382Y-0.8671
X3.9382Y-1.3671
X3.9382Y-1.5671
X3.9382Y-1.6671
X3.9382Y-1.7671
X3.9382Y-2.1671
X3.9382Y-2.3671
X3.9382Y-2.4671
X3.9382Y-2.8671
X3.9382Y-3.0671
X3.9382Y-3.1671
X3.9382Y-3.4671
X3.9382Y-3.7671
X4.0382Y-0.7671
X4.0382Y-0.8671
X4.0382Y-1.1671
X4.0382Y-1.3671
X4.0382Y-1.4671
X4.0382Y-1.5671
X4.0382Y-1.6671
X4.0382Y-1.7671
X4.0382Y-2.1671
X4.0382Y-2.2671
X4.0382Y-2.3671
X4.0382Y-2.4671
X4.0382Y-2.8671
X4.0382Y-2.9671
X4.0382Y-3.0671
X4.0382Y-3.4671
X4.0382Y-3.7671
X4.1382Y-0.7671
X4.1382Y-0.8671
X4.1382Y-1.1671
X4.1382Y-1.4671
X4.1382Y-1.5671
X4.1382Y-1.6671
X4.1382Y-1.7671
X4.1382Y-2.0671
X4.1382Y-2.1671
X4.1382Y-2.2671
X4.1382Y-2.3671
X4.1382Y-2.4671
X4.1382Y-2.7671
X4.1382Y-2.9671
X4.1382Y-3.3671
X4.1382Y-3.4671
X4.1382Y-3.7671
X4.2382Y-0.7671
X4.2382Y-0.8671
X4.2382Y-1.4671
X4.2382Y-1.5671
X4.2382Y-1.6671
X4.2382Y-2.0671
X4.2382Y-2.1671
X4.2382Y-2.2671
X4.2382Y-2.3671
X4.2382Y-2.4671
X4.2382Y-2.7671
X4.2382Y-3.2671
X4.2382Y-3.3671
X4.2382Y-3.4671
X4.2382Y-3.7671
X4.3382Y-0.7671
X4.3382Y-0.8671
X4.3382Y-1.1671
X4.3382Y-1.2671
X4.3382Y-1.3671
X4.3382Y-1.4671
X4.3382Y-1.5671
X4.3382Y-2.0671
X4.3382Y-2.1671
X4.3382Y-2.2671
X4.3382Y-2.3671
X4.3382Y-2.7671
X4.3382Y-3.2671
X4.3382Y-3.3671
X4.3382Y-3.4671
X4.3382Y-3.7671
X4.4382Y-0.7671
X4.4382Y-0.8671
X4.4382Y-1.1671
X4.4382Y-1.2671
X4.4382Y-1.3671
X4.4382Y-1.4671
X4.4382Y-1.5671
X4.4382Y-1.6671
X4.4382Y-2.0671
X4.4382Y-2.1671
X4.4382Y-2.4671
X4.4382Y-3.0671
X4.4382Y-3.2671
X4.4382Y-3.3671
X4.4382Y-3.4671
X4.4382Y-3.7671
X4.5382Y-0.7671
X4.5382Y-0.8671
X4.5382Y-1.1671
X4.5382Y-1.2671
X4.5382Y-1.3671
X4.5382Y-1.4671
X4.5382Y-1.5671
X4.5382Y-1.9671
X4.5382Y-2.0671
X4.5382Y-2.1671
X4.5382Y-2.3671
X4.5382Y-2.4671
X4.5382Y-2.9671
X4.5382Y-3.0671
X4.5382Y-3.2671
X4.5382Y-3.3671
X4.5382Y-3.4671
X4.5382Y-3.7671
X4.6198Y-3.289
X4.6382Y-0.7671
X4.6382Y-0.8671
X4.6382Y-1.1671
X4.6382Y-1.2671
X4.6382Y-1.3671
X4.6382Y-1.4671
X4.6382Y-3.3671
X4.6382Y-3.4671
X4.6382Y-3.7671
X4.7382Y-0.7671
X4.7382Y-0.8671
X4.7382Y-1.0671
X4.7382Y-1.1671
X4.7382Y-1.2671
X4.7382Y-1.3671
X4.7382Y-1.4671
X4.7382Y-1.7671
X4.7382Y-1.8671
X4.7382Y-1.9671
X4.7382Y-2.0671
X4.7382Y-2.1671
X4.7382Y-2.2671
X4.7382Y-2.3671
X4.7382Y-2.4671
X4.7382Y-2.7671
X4.7382Y-2.8671
X4.7382Y-2.9671
X4.7382Y-3.0671
X4.7382Y-3.2671
X4.7382Y-3.3671
X4.7382Y-3.4671
X4.7382Y-3.7671
X4.8198Y-0.939
X4.8198Y-1.119
X4.8382Y-0.7671
X4.8382Y-0.8671
X4.8382Y-1.2671
X4.8382Y-1.3671
X4.8382Y-1.4671
X4.8382Y-1.6671
X4.8382Y-1.7671
X4.8382Y-1.8671
X4.8382Y-1.9671
X4.8382Y-2.0671
X4.8382Y-2.1671
X4.8382Y-2.2671
X4.8382Y-2.3671
X4.8382Y-2.4671
X4.8382Y-2.7671
X4.8382Y-2.8671
X4.8382Y-2.9671
X4.8382Y-3.0671
X4.8382Y-3.2671
X4.8382Y-3.3671
X4.8382Y-3.4671
X4.8382Y-3.7671
X4.9382Y-0.7671
X4.9382Y-0.8671
X4.9382Y-1.1671
X4.9382Y-1.2671
X4.9382Y-1.3671
X4.9382Y-1.4671
X4.9382Y-1.6671
X4.9382Y-2.7671
X4.9382Y-2.8671
X4.9382Y-2.9671
X4.9382Y-3.0671
X4.9382Y-3.2671
X4.9382Y-3.3671
X4.9382Y-3.7671
X5.0382Y-0.7671
X5.0382Y-0.8671
X5.0382Y-1.1671
X5.0382Y-1.2671
X5.0382Y-1.3671
X5.0382Y-1.4671
X5.0382Y-1.6671
X5.0382Y-2.7671
X5.0382Y-2.8671
X5.0382Y-2.9671
X5.0382Y-3.3671
X5.0382Y-3.6671
X5.0382Y-3.7671
X5.0398Y-3.079
X5.0398Y-3.289
X5.1382Y-0.7671
X5.1382Y-0.8671
X5.1382Y-1.1671
X5.1382Y-1.8671
X5.1382Y-1.9671
X5.1382Y-2.0671
X5.1382Y-2.1671
X5.1382Y-2.2671
X5.1382Y-2.9671
X5.1382Y-3.0671
X5.1398Y-2.769
X5.1598Y-1.439
X5.2198Y-1.439
X5.2198Y-2.769
X5.2382Y-0.7671
X5.2382Y-0.8671
X5.2382Y-1.1671
X5.2382Y-1.2671
X5.2382Y-1.8671
X5.2382Y-1.9671
X5.2382Y-2.0671
X5.2382Y-2.1671
X5.2382Y-2.2671
X5.2382Y-2.9671
X5.2382Y-3.0671
X5.2382Y-3.1671
X5.2382Y-3.2671
X5.2798Y-1.439
X5.2998Y-2.769
X5.3382Y-0.7671
X5.3382Y-0.8671
X5.3382Y-1.1671
X5.3382Y-1.2671
X5.3382Y-1.8671
X5.3382Y-1.9671
X5.3382Y-2.0671
X5.3382Y-2.1671
X5.3382Y-2.2671
X5.3382Y-2.9671
X5.3382Y-3.0671
X5.3382Y-3.5671
X5.3382Y-3.6671
X5.3382Y-3.7671
X5.4382Y-0.7671
X5.4382Y-0.8671
X5.4382Y-1.2671
X5.4382Y-1.8671
X5.4382Y-1.9671
X5.4382Y-2.0671
X5.4382Y-2.1671
X5.4382Y-2.2671
X5.4382Y-2.3671
X5.4382Y-2.9671
X5.4382Y-3.0671
X5.4698Y-1.769
X5.5382Y-0.7671
X5.5382Y-0.8671
X5.5382Y-1.3671
X5.5382Y-1.4671
X5.5382Y-2.1671
X5.5382Y-2.9671
X5.6382Y-0.7671
X5.6382Y-0.8671
X5.6382Y-1.0671
X5.6382Y-1.4671
X5.6382Y-1.5671
X5.6382Y-2.3671
X5.6382Y-2.4671
X5.6398Y-1.769
X5.7382Y-0.7671
X5.7382Y-0.8671
X5.7382Y-0.9671
X5.7382Y-1.1671
X5.7382Y-1.7671
X5.7382Y-1.8671
X5.7382Y-2.4671
X5.7382Y-3.7671
X5.7798Y-1.959
X5.8298Y-1.119
X5.8382Y-1.2671
X5.8382Y-1.7671
X5.8382Y-2.1671
X5.8382Y-2.7671
X5.8382Y-3.6671
X5.8382Y-3.7671
X5.8798Y-1.869
X5.8798Y-2.059
X5.8798Y-2.509
X5.8798Y-2.699
X5.9382Y-0.8671
X5.9382Y-0.9671
X5.9382Y-1.0671
X5.9382Y-1.1671
X5.9382Y-1.7671
X5.9382Y-2.7671
X5.9382Y-3.7671
X5.9798Y-2.599
X6.0382Y-0.7671
X6.0382Y-0.8671
X6.0382Y-0.9671
X6.0382Y-1.0671
X6.0382Y-1.1671
X6.0382Y-1.4671
X6.0382Y-1.5671
X6.0382Y-1.6671
X6.0382Y-1.7671
X6.0382Y-1.8671
X6.0382Y-1.9671
X6.0382Y-2.0671
X6.0382Y-2.1671
X6.0382Y-2.2671
X6.0382Y-2.3671
X6.0382Y-2.4671
X6.0382Y-2.6671
X6.0382Y-2.7671
X6.0382Y-2.8671
X6.0382Y-2.9671
X6.0382Y-3.0671
X6.0382Y-3.1671
X6.0382Y-3.3671
X6.0382Y-3.7671
X6.1382Y-0.7671
X6.1382Y-0.8671
X6.1382Y-0.9671
X6.1382Y-1.0671
X6.1382Y-1.1671
X6.1382Y-1.4671
X6.1382Y-1.5671
X6.1382Y-1.6671
X6.1382Y-1.7671
X6.1382Y-1.8671
X6.1382Y-1.9671
X6.1382Y-2.0671
X6.1382Y-2.1671
X6.1382Y-2.2671
X6.1382Y-2.3671
X6.1382Y-2.4671
X6.1382Y-2.5671
X6.1382Y-2.6671
X6.1382Y-2.7671
X6.1382Y-2.8671
X6.1382Y-2.9671
X6.1382Y-3.0671
X6.1382Y-3.1671
X6.1382Y-3.2671
X6.1382Y-3.3671
X6.1382Y-3.4671
X6.1382Y-3.6671
X6.1382Y-3.7671
X6.2382Y-0.7671
X6.2382Y-0.8671
X6.2382Y-0.9671
X6.2382Y-1.0671
X6.2382Y-1.1671
X6.2382Y-1.2671
X6.2382Y-1.3671
X6.2382Y-1.4671
X6.2382Y-1.5671
X6.2382Y-1.6671
X6.2382Y-1.7671
X6.2382Y-1.8671
X6.2382Y-1.9671
X6.2382Y-2.0671
X6.2382Y-2.1671
X6.2382Y-2.2671
X6.2382Y-2.3671
X6.2382Y-2.4671
X6.2382Y-2.5671
X6.2382Y-2.6671
X6.2382Y-2.7671
X6.2382Y-2.8671
X6.2382Y-2.9671
X6.2382Y-3.0671
X6.2382Y-3.1671
X6.2382Y-3.2671
X6.2382Y-3.3671
X6.2382Y-3.4671
X6.2382Y-3.5671
X6.2382Y-3.6671
X6.2382Y-3.7671
T3
X5.3398Y-3.209
X5.4598Y-3.499
X5.4598Y-3.749
X5.4698Y-3.359
X5.5398Y-3.099
X5.5998Y-3.359
X5.5998Y-3.749
X5.7498Y-3.259
X5.8798Y-3.139
X6.0098Y-3.269
T4
X4.5196Y-3.179
X4.6196Y-3.179
X4.9298Y-3.179
X5.0298Y-3.179
X5.8298Y-0.929
X5.8298Y-1.029
T5
X3.0334Y-0.9909
X3.1334Y-0.9909
X3.2334Y-0.9909
T6
X3.0258Y-1.445
X3.0258Y-1.845
X3.0318Y-2.269
X3.0318Y-2.669
X3.0318Y-3.001
X3.0318Y-3.401
X3.1804Y-1.345
X3.1804Y-1.445
X3.1804Y-1.545
X3.1858Y-2.163
X3.1858Y-2.263
X3.1858Y-2.363
X3.1858Y-2.895
X3.1858Y-2.995
X3.1858Y-3.095
T7
X3.899Y-1.0306
X3.9974Y-1.0306
X4.0958Y-1.0306
X4.1942Y-1.0306
X4.2927Y-1.0306
X4.3911Y-1.0306
X4.4895Y-1.0306
X4.5879Y-1.0306
X4.8224Y-1.0306
X4.9208Y-1.0306
X5.0192Y-1.0306
X5.1177Y-1.0306
X5.2161Y-1.0306
X5.3145Y-1.0306
X5.4129Y-1.0306
X5.5114Y-1.0306
T8
X4.638Y-3.603
X4.7758Y-3.603
T9
X2.7798Y-1.621
X2.7798Y-1.951
X2.7798Y-2.271
X2.7798Y-2.591
X2.7798Y-2.921
X2.7798Y-3.2485
X5.8798Y-1.6315
X5.8798Y-1.959
X5.8798Y-2.289
X5.8798Y-2.609
X5.8798Y-2.929
X5.8798Y-3.259
T10
X3.2545Y-1.7861
X3.2545Y-1.9199
X3.645Y-1.7861
X3.645Y-1.9199
X5.4628Y-3.2337
X5.4628Y-3.6243
X5.5967Y-3.2337
X5.5967Y-3.6243
T11
X5.222Y-2.457
X5.222Y-2.654
X5.2235Y-1.554
X5.2235Y-1.751
M30
