%TF.GenerationSoftware,KiCad,Pcbnew,9.0.3*%
%TF.CreationDate,2026-03-25T20:29:38-04:00*%
%TF.ProjectId,fpvc-power-distribution,66707663-2d70-46f7-9765-722d64697374,1*%
%TF.SameCoordinates,Original*%
%TF.FileFunction,Soldermask,Bot*%
%TF.FilePolarity,Negative*%
%FSLAX46Y46*%
G04 Gerber Fmt 4.6, Leading zero omitted, Abs format (unit mm)*
G04 Created by KiCad (PCBNEW 9.0.3) date 2026-03-25 20:29:38*
%MOMM*%
%LPD*%
G01*
G04 APERTURE LIST*
G04 Aperture macros list*
%AMRoundRect*
0 Rectangle with rounded corners*
0 $1 Rounding radius*
0 $2 $3 $4 $5 $6 $7 $8 $9 X,Y pos of 4 corners*
0 Add a 4 corners polygon primitive as box body*
4,1,4,$2,$3,$4,$5,$6,$7,$8,$9,$2,$3,0*
0 Add four circle primitives for the rounded corners*
1,1,$1+$1,$2,$3*
1,1,$1+$1,$4,$5*
1,1,$1+$1,$6,$7*
1,1,$1+$1,$8,$9*
0 Add four rect primitives between the rounded corners*
20,1,$1+$1,$2,$3,$4,$5,0*
20,1,$1+$1,$4,$5,$6,$7,0*
20,1,$1+$1,$6,$7,$8,$9,0*
20,1,$1+$1,$8,$9,$2,$3,0*%
G04 Aperture macros list end*
%ADD10C,2.200000*%
%ADD11RoundRect,0.249999X0.850001X-0.850001X0.850001X0.850001X-0.850001X0.850001X-0.850001X-0.850001X0*%
%ADD12C,2.780000*%
%ADD13O,2.000000X1.905000*%
%ADD14R,2.000000X1.905000*%
%ADD15C,3.500000*%
%ADD16C,1.800000*%
%ADD17R,1.800000X1.800000*%
%ADD18O,1.500000X2.300000*%
%ADD19R,1.500000X2.300000*%
%ADD20C,2.600000*%
%ADD21RoundRect,0.250000X1.050000X1.050000X-1.050000X1.050000X-1.050000X-1.050000X1.050000X-1.050000X0*%
%ADD22RoundRect,0.571500X2.603500X1.333500X-2.603500X1.333500X-2.603500X-1.333500X2.603500X-1.333500X0*%
%ADD23C,2.004000*%
%ADD24RoundRect,0.102000X0.900000X0.900000X-0.900000X0.900000X-0.900000X-0.900000X0.900000X-0.900000X0*%
%ADD25C,3.175000*%
G04 APERTURE END LIST*
D10*
%TO.C,D3*%
X76854250Y-36703000D03*
D11*
X76854250Y-46863000D03*
%TD*%
D12*
%TO.C,F1*%
X142155850Y-82136600D03*
X138755850Y-82136600D03*
X142155850Y-92056600D03*
X138755850Y-92056600D03*
%TD*%
D13*
%TO.C,Q3*%
X80781050Y-39243000D03*
X80781050Y-36703000D03*
D14*
X80781050Y-34163000D03*
D15*
X97441050Y-36703000D03*
%TD*%
D13*
%TO.C,Q1*%
X80918250Y-78613000D03*
X80918250Y-76073000D03*
D14*
X80918250Y-73533000D03*
D15*
X97578250Y-76073000D03*
%TD*%
D16*
%TO.C,D6*%
X117336850Y-80746600D03*
D17*
X114796850Y-80746600D03*
%TD*%
D12*
%TO.C,F4*%
X82663850Y-45366200D03*
X82663850Y-48766200D03*
X92583850Y-45366200D03*
X92583850Y-48766200D03*
%TD*%
D10*
%TO.C,D1*%
X77006650Y-76225400D03*
D11*
X77006650Y-86385400D03*
%TD*%
D16*
%TO.C,D5*%
X127755850Y-80746600D03*
D17*
X125215850Y-80746600D03*
%TD*%
D18*
%TO.C,U2*%
X82128350Y-25169100D03*
X79588350Y-25169100D03*
D19*
X77048350Y-25169100D03*
%TD*%
D16*
%TO.C,D7*%
X148075850Y-26136600D03*
D17*
X148075850Y-23596600D03*
%TD*%
D10*
%TO.C,D2*%
X77006650Y-57632600D03*
D11*
X77006650Y-67792600D03*
%TD*%
D13*
%TO.C,Q2*%
X80918250Y-60020200D03*
X80918250Y-57480200D03*
D14*
X80918250Y-54940200D03*
D15*
X97578250Y-57480200D03*
%TD*%
D20*
%TO.C,J7*%
X117804250Y-91516200D03*
D21*
X121304250Y-91516200D03*
%TD*%
D22*
%TO.C,U1*%
X132676900Y-39471600D03*
X132638800Y-62407800D03*
X132676900Y-44475400D03*
X132638800Y-67411600D03*
%TD*%
D23*
%TO.C,J4*%
X122488350Y-26176600D03*
X124988350Y-26176600D03*
X127488350Y-26176600D03*
X129988350Y-26176600D03*
X132488350Y-26176600D03*
X134988350Y-26176600D03*
X137488350Y-26176600D03*
D24*
X139988350Y-26176600D03*
%TD*%
D23*
%TO.C,J5*%
X99033350Y-26176600D03*
X101533350Y-26176600D03*
X104033350Y-26176600D03*
X106533350Y-26176600D03*
X109033350Y-26176600D03*
X111533350Y-26176600D03*
X114033350Y-26176600D03*
D24*
X116533350Y-26176600D03*
%TD*%
D25*
%TO.C,J9*%
X149345850Y-82778600D03*
X149345850Y-74396600D03*
X149345850Y-66268600D03*
X149345850Y-58140600D03*
X149345850Y-49758600D03*
X149345850Y-41440100D03*
%TD*%
%TO.C,J10*%
X70605850Y-41173400D03*
X70605850Y-49555400D03*
X70605850Y-57683400D03*
X70605850Y-65811400D03*
X70605850Y-74193400D03*
X70605850Y-82511900D03*
%TD*%
M02*
